NotoSansThaana-Medium.ufo
<glyph name="exclam" format="2">
  <advance width="407.9016393442623"/>
  <unicode hex="0021"/>
  <outline>
    <contour>
      <point x="187.0655737704918" y="208.88524590163934" type="curve" smooth="yes"/>
      <point x="217.14754098360655" y="208.88524590163934"/>
      <point x="234.9016393442623" y="226.49180327868854"/>
      <point x="241.672131147541" y="256.4590163934426" type="curve" smooth="yes"/>
      <point x="254.55737704918033" y="310.4754098360656"/>
      <point x="268.8032786885246" y="365.3114754098361"/>
      <point x="307.0163934426229" y="482.8360655737705" type="curve" smooth="yes"/>
      <point x="333.8360655737705" y="565.0655737704918"/>
      <point x="350.3114754098361" y="612.9508196721312"/>
      <point x="360.1967213114754" y="638.4918032786885" type="curve" smooth="yes"/>
      <point x="371.9016393442623" y="669.4918032786885"/>
      <point x="377.60655737704917" y="687.9016393442623"/>
      <point x="377.60655737704917" y="703.0819672131148" type="curve" smooth="yes"/>
      <point x="377.60655737704917" y="722.1967213114754"/>
      <point x="369.8360655737705" y="731.2622950819672"/>
      <point x="349.655737704918" y="731.2622950819672" type="curve" smooth="yes"/>
      <point x="330.1803278688525" y="731.2622950819672"/>
      <point x="310.88524590163934" y="713.2622950819672"/>
      <point x="290.0" y="674.0819672131148" type="curve" smooth="yes"/>
      <point x="268.2295081967213" y="634.1311475409836"/>
      <point x="240.34426229508196" y="566.0"/>
      <point x="201.57377049180326" y="461.6885245901639" type="curve" smooth="yes"/>
      <point x="164.27868852459017" y="361.8032786885246"/>
      <point x="134.11475409836066" y="273.0655737704918"/>
      <point x="134.11475409836066" y="249.18032786885246" type="curve" smooth="yes"/>
      <point x="134.11475409836066" y="218.8360655737705"/>
      <point x="152.75409836065575" y="208.88524590163934"/>
    </contour>
    <contour>
      <point x="147.77049180327867" y="-10.0" type="curve" smooth="yes"/>
      <point x="196.65573770491804" y="-10.0"/>
      <point x="240.72131147540983" y="34.47540983606557"/>
      <point x="240.72131147540983" y="80.95081967213115" type="curve" smooth="yes"/>
      <point x="240.72131147540983" y="116.60655737704919"/>
      <point x="213.95081967213116" y="145.9016393442623"/>
      <point x="175.0655737704918" y="145.9016393442623" type="curve" smooth="yes"/>
      <point x="125.18032786885246" y="145.9016393442623"/>
      <point x="82.81967213114754" y="100.01639344262296"/>
      <point x="82.81967213114754" y="53.24590163934426" type="curve" smooth="yes"/>
      <point x="82.81967213114754" y="16.18032786885246"/>
      <point x="108.0" y="-10.0"/>
    </contour>
  </outline>
</glyph>
<glyph name="parenleft" format="2">
  <advance width="495.37704918032784"/>
  <unicode hex="0028"/>
  <outline>
    <contour>
      <point x="250.65573770491804" y="-225.88524590163934" type="curve" smooth="yes"/>
      <point x="282.24590163934425" y="-225.88524590163934"/>
      <point x="302.60655737704917" y="-201.29508196721312"/>
      <point x="302.60655737704917" y="-179.9344262295082" type="curve" smooth="yes"/>
      <point x="302.60655737704917" y="-164.45901639344262"/>
      <point x="293.42622950819674" y="-146.27868852459017"/>
      <point x="272.24590163934425" y="-124.39344262295081" type="curve" smooth="yes"/>
      <point x="220.9672131147541" y="-71.70491803278688"/>
      <point x="191.31147540983608" y="8.475409836065573"/>
      <point x="191.31147540983608" y="92.24590163934427" type="curve" smooth="yes"/>
      <point x="191.31147540983608" y="326.6393442622951"/>
      <point x="308.75409836065575" y="556.4426229508197"/>
      <point x="508.1475409836066" y="634.1475409836065" type="curve" smooth="yes"/>
      <point x="540.0327868852459" y="646.7377049180328"/>
      <point x="560.2950819672132" y="658.8032786885246"/>
      <point x="560.2950819672132" y="683.0491803278688" type="curve" smooth="yes"/>
      <point x="560.2950819672132" y="700.8196721311475"/>
      <point x="545.4098360655738" y="715.0"/>
      <point x="522.9344262295082" y="715.0" type="curve" smooth="yes"/>
      <point x="472.8688524590164" y="715.0"/>
      <point x="409.5737704918033" y="683.5901639344262"/>
      <point x="352.3114754098361" y="641.9180327868853" type="curve" smooth="yes"/>
      <point x="186.21311475409834" y="522.8032786885246"/>
      <point x="87.11475409836066" y="306.655737704918"/>
      <point x="87.11475409836066" y="92.24590163934427" type="curve" smooth="yes"/>
      <point x="87.11475409836066" y="-1.8852459016393368"/>
      <point x="117.18032786885246" y="-112.47540983606558"/>
      <point x="182.36065573770492" y="-183.47540983606558" type="curve" smooth="yes"/>
      <point x="207.77049180327867" y="-210.88524590163934"/>
      <point x="231.36065573770492" y="-225.88524590163934"/>
    </contour>
  </outline>
</glyph>
<glyph name="parenright" format="2">
  <advance width="495.37704918032784"/>
  <unicode hex="0029"/>
  <outline>
    <contour>
      <point x="-22.229508196721312" y="-225.88524590163934" type="curve" smooth="yes"/>
      <point x="3.4262295081967196" y="-225.88524590163934"/>
      <point x="30.901639344262296" y="-219.88524590163934"/>
      <point x="59.49180327868852" y="-207.18032786885246" type="curve" smooth="yes"/>
      <point x="271.344262295082" y="-115.67213114754098"/>
      <point x="413.59016393442624" y="154.18032786885246"/>
      <point x="413.59016393442624" y="396.8688524590164" type="curve" smooth="yes"/>
      <point x="413.59016393442624" y="490.7049180327869"/>
      <point x="383.7049180327869" y="599.0491803278688"/>
      <point x="320.11475409836066" y="670.4098360655738" type="curve" smooth="yes"/>
      <point x="294.40983606557376" y="699.7049180327868"/>
      <point x="269.9344262295082" y="715.0"/>
      <point x="250.04918032786884" y="715.0" type="curve" smooth="yes"/>
      <point x="218.45901639344262" y="715.0"/>
      <point x="198.0983606557377" y="690.4098360655738"/>
      <point x="198.0983606557377" y="669.0491803278688" type="curve" smooth="yes"/>
      <point x="198.0983606557377" y="653.5737704918033"/>
      <point x="207.27868852459017" y="635.3934426229508"/>
      <point x="228.45901639344262" y="613.5081967213115" type="curve" smooth="yes"/>
      <point x="279.7377049180328" y="560.8196721311475"/>
      <point x="309.39344262295083" y="480.6393442622951"/>
      <point x="309.39344262295083" y="396.8688524590164" type="curve" smooth="yes"/>
      <point x="309.39344262295083" y="161.77049180327867"/>
      <point x="189.77049180327867" y="-68.50819672131148"/>
      <point x="-7.442622950819672" y="-145.0327868852459" type="curve" smooth="yes"/>
      <point x="-41.21311475409836" y="-157.91803278688525"/>
      <point x="-59.59016393442623" y="-170.39344262295083"/>
      <point x="-59.59016393442623" y="-193.9344262295082" type="curve" smooth="yes"/>
      <point x="-59.59016393442623" y="-211.70491803278688"/>
      <point x="-44.704918032786885" y="-225.88524590163934"/>
    </contour>
  </outline>
</glyph>
<glyph name="comma" format="2">
  <advance width="369.3114754098361"/>
  <unicode hex="002C"/>
  <outline>
    <contour>
      <point x="100.47540983606558" y="-128.59016393442624" type="curve" smooth="yes"/>
      <point x="117.18032786885246" y="-128.59016393442624"/>
      <point x="133.65573770491804" y="-115.59016393442623"/>
      <point x="148.78688524590163" y="-101.1639344262295" type="curve" smooth="yes"/>
      <point x="180.9672131147541" y="-72.50819672131148"/>
      <point x="247.72131147540983" y="15.655737704918032"/>
      <point x="247.72131147540983" y="69.24590163934425" type="curve" smooth="yes"/>
      <point x="247.72131147540983" y="115.8360655737705"/>
      <point x="218.4262295081967" y="139.8360655737705"/>
      <point x="180.47540983606558" y="139.8360655737705" type="curve" smooth="yes"/>
      <point x="133.88524590163934" y="139.8360655737705"/>
      <point x="90.52459016393442" y="101.60655737704917"/>
      <point x="90.52459016393442" y="55.950819672131146" type="curve" smooth="yes"/>
      <point x="90.52459016393442" y="24.65573770491803"/>
      <point x="112.63934426229508" y="-0.9344262295081966"/>
      <point x="145.34426229508196" y="-4.704918032786885" type="curve"/>
      <point x="133.81967213114754" y="-31.393442622950822"/>
      <point x="114.24590163934425" y="-50.85245901639344"/>
      <point x="86.04918032786885" y="-78.63934426229508" type="curve" smooth="yes"/>
      <point x="77.63934426229508" y="-87.34426229508196"/>
      <point x="73.22950819672131" y="-93.22950819672131"/>
      <point x="73.22950819672131" y="-103.93442622950819" type="curve" smooth="yes"/>
      <point x="73.22950819672131" y="-111.18032786885246"/>
      <point x="78.47540983606558" y="-128.59016393442624"/>
    </contour>
  </outline>
</glyph>
<glyph name="period" format="2">
  <advance width="369.3114754098361"/>
  <unicode hex="002E"/>
  <outline>
    <contour>
      <point x="142.18032786885246" y="-10.0" type="curve" smooth="yes"/>
      <point x="191.36065573770492" y="-10.0"/>
      <point x="235.72131147540983" y="32.40983606557377"/>
      <point x="235.72131147540983" y="79.18032786885246" type="curve" smooth="yes"/>
      <point x="235.72131147540983" y="114.54098360655738"/>
      <point x="208.36065573770492" y="142.65573770491804"/>
      <point x="169.47540983606558" y="142.65573770491804" type="curve" smooth="yes"/>
      <point x="120.18032786885246" y="142.65573770491804"/>
      <point x="77.52459016393442" y="99.1311475409836"/>
      <point x="77.52459016393442" y="52.36065573770492" type="curve" smooth="yes"/>
      <point x="77.52459016393442" y="15.59016393442623"/>
      <point x="102.70491803278688" y="-10.0"/>
    </contour>
  </outline>
</glyph>
<glyph name="colon" format="2">
  <advance width="369.3114754098361"/>
  <unicode hex="003A"/>
  <outline>
    <contour>
      <point x="173.18032786885246" y="242.77049180327867" type="curve" smooth="yes"/>
      <point x="223.36065573770492" y="242.77049180327867"/>
      <point x="267.42622950819674" y="285.1803278688525"/>
      <point x="267.42622950819674" y="331.655737704918" type="curve" smooth="yes"/>
      <point x="267.42622950819674" y="367.0163934426229"/>
      <point x="240.0655737704918" y="395.1311475409836"/>
      <point x="201.18032786885246" y="395.1311475409836" type="curve" smooth="yes"/>
      <point x="151.88524590163934" y="395.1311475409836"/>
      <point x="109.22950819672131" y="351.9016393442623"/>
      <point x="109.22950819672131" y="304.8360655737705" type="curve" smooth="yes"/>
      <point x="109.22950819672131" y="268.0655737704918"/>
      <point x="134.40983606557376" y="242.77049180327867"/>
    </contour>
    <contour>
      <point x="142.18032786885246" y="-10.0" type="curve" smooth="yes"/>
      <point x="191.36065573770492" y="-10.0"/>
      <point x="235.72131147540983" y="32.40983606557377"/>
      <point x="235.72131147540983" y="79.18032786885246" type="curve" smooth="yes"/>
      <point x="235.72131147540983" y="114.54098360655738"/>
      <point x="208.36065573770492" y="142.65573770491804"/>
      <point x="169.47540983606558" y="142.65573770491804" type="curve" smooth="yes"/>
      <point x="120.18032786885246" y="142.65573770491804"/>
      <point x="77.52459016393442" y="99.1311475409836"/>
      <point x="77.52459016393442" y="52.36065573770492" type="curve" smooth="yes"/>
      <point x="77.52459016393442" y="15.59016393442623"/>
      <point x="102.70491803278688" y="-10.0"/>
    </contour>
  </outline>
</glyph>
<glyph name="semicolon" format="2">
  <advance width="369.3114754098361"/>
  <unicode hex="003B"/>
  <outline>
    <contour>
      <point x="93.42622950819671" y="-128.59016393442624" type="curve" smooth="yes"/>
      <point x="110.1311475409836" y="-128.59016393442624"/>
      <point x="126.60655737704919" y="-114.88524590163934"/>
      <point x="141.7377049180328" y="-101.1639344262295" type="curve" smooth="yes"/>
      <point x="173.91803278688525" y="-73.21311475409836"/>
      <point x="240.672131147541" y="15.655737704918032"/>
      <point x="240.672131147541" y="69.24590163934425" type="curve" smooth="yes"/>
      <point x="240.672131147541" y="115.8360655737705"/>
      <point x="211.37704918032787" y="139.8360655737705"/>
      <point x="173.4262295081967" y="139.8360655737705" type="curve" smooth="yes"/>
      <point x="127.54098360655738" y="139.8360655737705"/>
      <point x="84.18032786885246" y="101.60655737704917"/>
      <point x="84.18032786885246" y="55.950819672131146" type="curve" smooth="yes"/>
      <point x="84.18032786885246" y="24.65573770491803"/>
      <point x="105.59016393442623" y="-0.9344262295081966"/>
      <point x="138.29508196721312" y="-4.704918032786885" type="curve"/>
      <point x="126.77049180327869" y="-30.688524590163937"/>
      <point x="108.60655737704919" y="-50.14754098360656"/>
      <point x="79.70491803278688" y="-78.63934426229508" type="curve" smooth="yes"/>
      <point x="70.59016393442623" y="-88.04918032786885"/>
      <point x="66.18032786885246" y="-93.22950819672131"/>
      <point x="66.18032786885246" y="-103.93442622950819" type="curve" smooth="yes"/>
      <point x="66.18032786885246" y="-111.18032786885246"/>
      <point x="71.42622950819673" y="-128.59016393442624"/>
    </contour>
    <contour>
      <point x="176.1311475409836" y="242.77049180327867" type="curve" smooth="yes"/>
      <point x="226.01639344262296" y="242.77049180327867"/>
      <point x="270.37704918032784" y="285.1803278688525"/>
      <point x="270.37704918032784" y="331.655737704918" type="curve" smooth="yes"/>
      <point x="270.37704918032784" y="367.0163934426229"/>
      <point x="243.01639344262296" y="395.1311475409836"/>
      <point x="204.13114754098362" y="395.1311475409836" type="curve" smooth="yes"/>
      <point x="154.8360655737705" y="395.1311475409836"/>
      <point x="112.18032786885246" y="351.9016393442623"/>
      <point x="112.18032786885246" y="304.8360655737705" type="curve" smooth="yes"/>
      <point x="112.18032786885246" y="268.0655737704918"/>
      <point x="137.36065573770492" y="242.77049180327867"/>
    </contour>
  </outline>
</glyph>
<glyph name="uni060C" format="2">
  <advance width="370.4918032786885"/>
  <unicode hex="060C"/>
  <outline>
    <contour>
      <point x="158.24590163934425" y="-9.40983606557377" type="curve" smooth="yes"/>
      <point x="204.8360655737705" y="-9.40983606557377"/>
      <point x="248.19672131147541" y="29.524590163934427"/>
      <point x="248.19672131147541" y="74.47540983606558" type="curve" smooth="yes"/>
      <point x="248.19672131147541" y="105.77049180327869"/>
      <point x="226.08196721311475" y="132.36065573770492"/>
      <point x="193.37704918032787" y="136.1311475409836" type="curve"/>
      <point x="204.9016393442623" y="162.81967213114754"/>
      <point x="225.0655737704918" y="181.68852459016392"/>
      <point x="252.672131147541" y="210.0655737704918" type="curve" smooth="yes"/>
      <point x="261.08196721311475" y="218.77049180327867"/>
      <point x="265.4918032786885" y="224.65573770491804"/>
      <point x="265.4918032786885" y="235.36065573770492" type="curve" smooth="yes"/>
      <point x="265.4918032786885" y="242.60655737704917"/>
      <point x="260.24590163934425" y="260.016393442623"/>
      <point x="238.24590163934425" y="260.016393442623" type="curve" smooth="yes"/>
      <point x="223.65573770491804" y="260.016393442623"/>
      <point x="206.18032786885246" y="247.01639344262296"/>
      <point x="189.9344262295082" y="231.59016393442624" type="curve" smooth="yes"/>
      <point x="158.75409836065575" y="204.04918032786884"/>
      <point x="91.0" y="115.47540983606558"/>
      <point x="91.0" y="61.18032786885246" type="curve" smooth="yes"/>
      <point x="91.0" y="14.59016393442623"/>
      <point x="120.29508196721312" y="-9.40983606557377"/>
    </contour>
  </outline>
</glyph>
<glyph name="uni061B" format="2">
  <advance width="369.3114754098361"/>
  <unicode hex="061B"/>
  <outline>
    <contour>
      <point x="180.85245901639345" y="252.21311475409837" type="curve" smooth="yes"/>
      <point x="227.44262295081967" y="252.21311475409837"/>
      <point x="270.8032786885246" y="291.1475409836066"/>
      <point x="270.8032786885246" y="336.0983606557377" type="curve" smooth="yes"/>
      <point x="270.8032786885246" y="367.39344262295083"/>
      <point x="248.68852459016392" y="393.983606557377"/>
      <point x="215.98360655737704" y="397.75409836065575" type="curve"/>
      <point x="227.50819672131146" y="424.44262295081967"/>
      <point x="247.672131147541" y="443.3114754098361"/>
      <point x="275.27868852459017" y="470.983606557377" type="curve" smooth="yes"/>
      <point x="284.39344262295083" y="480.39344262295083"/>
      <point x="288.0983606557377" y="486.27868852459017"/>
      <point x="288.0983606557377" y="496.983606557377" type="curve" smooth="yes"/>
      <point x="288.0983606557377" y="504.2295081967213"/>
      <point x="282.8524590163934" y="521.639344262295"/>
      <point x="260.8524590163934" y="521.639344262295" type="curve" smooth="yes"/>
      <point x="246.2622950819672" y="521.639344262295"/>
      <point x="228.08196721311475" y="507.9344262295082"/>
      <point x="212.54098360655738" y="493.21311475409834" type="curve" smooth="yes"/>
      <point x="181.36065573770492" y="465.672131147541"/>
      <point x="113.60655737704919" y="377.0983606557377"/>
      <point x="113.60655737704919" y="322.8032786885246" type="curve" smooth="yes"/>
      <point x="113.60655737704919" y="276.21311475409834"/>
      <point x="142.9016393442623" y="252.21311475409837"/>
    </contour>
    <contour>
      <point x="142.18032786885246" y="-10.0" type="curve" smooth="yes"/>
      <point x="191.36065573770492" y="-10.0"/>
      <point x="235.72131147540983" y="32.40983606557377"/>
      <point x="235.72131147540983" y="79.18032786885246" type="curve" smooth="yes"/>
      <point x="235.72131147540983" y="114.54098360655738"/>
      <point x="208.36065573770492" y="142.65573770491804"/>
      <point x="169.47540983606558" y="142.65573770491804" type="curve" smooth="yes"/>
      <point x="120.18032786885246" y="142.65573770491804"/>
      <point x="77.52459016393442" y="99.1311475409836"/>
      <point x="77.52459016393442" y="52.36065573770492" type="curve" smooth="yes"/>
      <point x="77.52459016393442" y="15.59016393442623"/>
      <point x="102.70491803278688" y="-10.0"/>
    </contour>
  </outline>
</glyph>
<glyph name="uni061F" format="2">
  <advance width="479.0"/>
  <unicode hex="061F"/>
  <outline>
    <contour>
      <point x="219.0" y="211.0" type="curve" smooth="yes"/>
      <point x="236.0" y="211.0"/>
      <point x="255.0" y="219.0"/>
      <point x="269.0" y="236.0" type="curve" smooth="yes"/>
      <point x="289.0655737704918" y="260.3606557377049"/>
      <point x="298.95081967213116" y="286.42622950819674"/>
      <point x="298.95081967213116" y="323.42622950819674" type="curve" smooth="yes"/>
      <point x="298.95081967213116" y="366.0655737704918"/>
      <point x="277.60655737704917" y="399.0"/>
      <point x="253.9016393442623" y="434.0" type="curve" smooth="yes"/>
      <point x="235.19672131147541" y="462.0"/>
      <point x="218.85245901639342" y="489.6393442622951"/>
      <point x="218.85245901639342" y="523.9344262295082" type="curve" smooth="yes"/>
      <point x="218.85245901639342" y="587.5081967213115"/>
      <point x="273.72131147540983" y="626.0983606557377"/>
      <point x="335.0" y="626.0983606557377" type="curve" smooth="yes"/>
      <point x="362.0" y="626.0983606557377"/>
      <point x="385.0" y="613.0983606557377"/>
      <point x="405.0" y="600.0983606557377" type="curve" smooth="yes"/>
      <point x="426.0" y="586.0983606557377"/>
      <point x="444.0" y="573.0983606557377"/>
      <point x="461.0" y="573.0983606557377" type="curve" smooth="yes"/>
      <point x="479.0" y="573.0983606557377"/>
      <point x="512.0" y="604.0491803278688"/>
      <point x="512.0" y="635.0" type="curve" smooth="yes"/>
      <point x="512.0" y="644.0"/>
      <point x="510.0" y="656.0"/>
      <point x="491.4754098360656" y="671.8196721311475" type="curve" smooth="yes"/>
      <point x="457.0" y="702.0"/>
      <point x="411.0" y="714.0"/>
      <point x="349.0" y="714.0" type="curve" smooth="yes"/>
      <point x="217.0" y="714.0"/>
      <point x="126.22950819672131" y="620.1147540983607"/>
      <point x="126.22950819672131" y="524.1147540983607" type="curve" smooth="yes"/>
      <point x="126.22950819672131" y="473.75409836065575"/>
      <point x="142.9344262295082" y="441.2950819672131"/>
      <point x="160.81967213114754" y="411.344262295082" type="curve" smooth="yes"/>
      <point x="179.45901639344262" y="381.0"/>
      <point x="199.04918032786884" y="352.4754098360656"/>
      <point x="199.04918032786884" y="325.0" type="curve" smooth="yes"/>
      <point x="199.04918032786884" y="301.0"/>
      <point x="191.52459016393442" y="283.2950819672131"/>
      <point x="184.11475409836066" y="266.7049180327869" type="curve" smooth="yes"/>
      <point x="179.0" y="255.29508196721312"/>
      <point x="174.0" y="243.0"/>
      <point x="174.0" y="230.0" type="curve" smooth="yes"/>
      <point x="174.0" y="212.0"/>
      <point x="203.0" y="211.0"/>
    </contour>
    <contour>
      <point x="157.9344262295082" y="-12.360655737704917" type="curve" smooth="yes"/>
      <point x="208.88524590163934" y="-12.360655737704917"/>
      <point x="254.72131147540983" y="31.229508196721312"/>
      <point x="254.72131147540983" y="79.47540983606558" type="curve" smooth="yes"/>
      <point x="254.72131147540983" y="116.01639344262296"/>
      <point x="226.88524590163934" y="145.01639344262296"/>
      <point x="186.81967213114754" y="145.01639344262296" type="curve" smooth="yes"/>
      <point x="136.04918032786884" y="145.01639344262296"/>
      <point x="91.91803278688525" y="100.31147540983606"/>
      <point x="91.91803278688525" y="52.0655737704918" type="curve" smooth="yes"/>
      <point x="91.91803278688525" y="14.114754098360656"/>
      <point x="117.98360655737704" y="-12.360655737704917"/>
    </contour>
  </outline>
</glyph>
<glyph name="uni0660" format="2">
  <advance width="307.8032786885246"/>
  <unicode hex="0660"/>
  <outline>
    <contour>
      <point x="91.39344262295083" y="392.1803278688525" type="curve" smooth="yes"/>
      <point x="91.39344262295083" y="354.8196721311475"/>
      <point x="124.1639344262295" y="296.57377049180326"/>
      <point x="148.9344262295082" y="296.57377049180326" type="curve" smooth="yes"/>
      <point x="171.11475409836066" y="296.57377049180326"/>
      <point x="211.77049180327867" y="310.75409836065575"/>
      <point x="211.77049180327867" y="335.2295081967213" type="curve" smooth="yes"/>
      <point x="211.77049180327867" y="381.88524590163934"/>
      <point x="186.0" y="439.42622950819674"/>
      <point x="155.2295081967213" y="439.42622950819674" type="curve" smooth="yes"/>
      <point x="127.75409836065575" y="439.42622950819674"/>
      <point x="91.39344262295083" y="422.24590163934425"/>
    </contour>
  </outline>
</glyph>
<glyph name="uni0661" format="2">
  <advance width="329.27868852459017"/>
  <unicode hex="0661"/>
  <outline>
    <contour>
      <point x="176.29508196721312" y="130.81967213114754" type="curve" smooth="yes"/>
      <point x="199.77049180327867" y="130.81967213114754"/>
      <point x="215.95081967213116" y="142.40983606557376"/>
      <point x="226.24590163934425" y="162.29508196721312" type="curve" smooth="yes"/>
      <point x="238.8360655737705" y="186.47540983606558"/>
      <point x="245.8360655737705" y="241.47540983606558"/>
      <point x="245.8360655737705" y="291.88524590163934" type="curve" smooth="yes"/>
      <point x="245.8360655737705" y="375.7704918032787"/>
      <point x="238.8360655737705" y="453.1803278688525"/>
      <point x="221.1311475409836" y="536.5901639344262" type="curve" smooth="yes"/>
      <point x="206.4262295081967" y="604.5901639344262"/>
      <point x="187.4262295081967" y="661.7049180327868"/>
      <point x="164.1311475409836" y="695.5901639344262" type="curve" smooth="yes"/>
      <point x="150.8360655737705" y="715.1803278688525"/>
      <point x="134.95081967213116" y="718.1803278688525"/>
      <point x="117.36065573770492" y="718.1803278688525" type="curve" smooth="yes"/>
      <point x="88.88524590163934" y="718.1803278688525"/>
      <point x="54.114754098360656" y="696.0"/>
      <point x="54.114754098360656" y="664.5245901639345" type="curve" smooth="yes"/>
      <point x="54.114754098360656" y="648.9344262295082"/>
      <point x="59.114754098360656" y="634.344262295082"/>
      <point x="68.40983606557377" y="617.7540983606557" type="curve" smooth="yes"/>
      <point x="94.40983606557377" y="571.4590163934427"/>
      <point x="109.70491803278688" y="519.2786885245902"/>
      <point x="124.11475409836066" y="458.45901639344265" type="curve" smooth="yes"/>
      <point x="137.52459016393442" y="401.2295081967213"/>
      <point x="148.52459016393442" y="331.7049180327869"/>
      <point x="148.52459016393442" y="280.88524590163934" type="curve" smooth="yes"/>
      <point x="148.52459016393442" y="251.47540983606558"/>
      <point x="147.52459016393442" y="223.59016393442624"/>
      <point x="145.52459016393442" y="205.59016393442624" type="curve" smooth="yes"/>
      <point x="143.52459016393442" y="190.59016393442624"/>
      <point x="141.52459016393442" y="174.88524590163934"/>
      <point x="141.52459016393442" y="162.29508196721312" type="curve" smooth="yes"/>
      <point x="141.52459016393442" y="143.40983606557376"/>
      <point x="155.11475409836066" y="130.81967213114754"/>
    </contour>
  </outline>
</glyph>
<glyph name="uni0662" format="2">
  <advance width="483.40983606557376"/>
  <unicode hex="0662"/>
  <outline>
    <contour>
      <point x="423.95081967213116" y="702.4754098360655" type="curve" smooth="yes"/>
      <point x="409.3606557377049" y="702.4754098360655"/>
      <point x="393.95081967213116" y="694.0655737704918"/>
      <point x="382.7704918032787" y="678.1803278688525" type="curve" smooth="yes"/>
      <point x="354.88524590163934" y="637.7704918032787"/>
      <point x="324.7704918032787" y="614.360655737705"/>
      <point x="277.0655737704918" y="614.360655737705" type="curve" smooth="yes"/>
      <point x="241.36065573770492" y="614.360655737705"/>
      <point x="196.95081967213116" y="626.360655737705"/>
      <point x="169.95081967213116" y="654.1803278688525" type="curve"/>
      <point x="160.95081967213116" y="670.8852459016393"/>
      <point x="152.24590163934425" y="685.5901639344262"/>
      <point x="142.54098360655738" y="697.2950819672132" type="curve" smooth="yes"/>
      <point x="130.95081967213116" y="712.1803278688525"/>
      <point x="115.0655737704918" y="718.1803278688525"/>
      <point x="101.47540983606558" y="718.1803278688525" type="curve" smooth="yes"/>
      <point x="70.0" y="718.1803278688525"/>
      <point x="39.22950819672131" y="696.0"/>
      <point x="39.22950819672131" y="667.8196721311475" type="curve" smooth="yes"/>
      <point x="39.22950819672131" y="649.639344262295"/>
      <point x="43.22950819672131" y="636.0491803278688"/>
      <point x="52.81967213114754" y="621.1639344262295" type="curve" smooth="yes"/>
      <point x="118.52459016393442" y="522.8688524590164"/>
      <point x="154.45901639344262" y="405.1803278688525"/>
      <point x="155.04918032786884" y="280.88524590163934" type="curve" smooth="yes"/>
      <point x="155.04918032786884" y="248.36065573770492"/>
      <point x="154.04918032786884" y="223.59016393442624"/>
      <point x="152.75409836065575" y="205.59016393442624" type="curve" smooth="yes"/>
      <point x="151.45901639344262" y="190.59016393442624"/>
      <point x="149.75409836065575" y="174.88524590163934"/>
      <point x="149.75409836065575" y="162.29508196721312" type="curve" smooth="yes"/>
      <point x="149.75409836065575" y="143.40983606557376"/>
      <point x="165.9344262295082" y="130.81967213114754"/>
      <point x="187.11475409836066" y="130.81967213114754" type="curve" smooth="yes"/>
      <point x="210.0" y="130.81967213114754"/>
      <point x="222.88524590163934" y="142.40983606557376"/>
      <point x="233.47540983606558" y="162.29508196721312" type="curve" smooth="yes"/>
      <point x="246.0655737704918" y="186.18032786885246"/>
      <point x="253.0655737704918" y="241.47540983606558"/>
      <point x="253.0655737704918" y="290.88524590163934" type="curve" smooth="yes"/>
      <point x="253.0655737704918" y="372.2950819672131"/>
      <point x="234.65573770491804" y="477.11475409836066"/>
      <point x="206.54098360655738" y="563.5245901639345" type="curve"/>
      <point x="237.8360655737705" y="539.2295081967213"/>
      <point x="272.1311475409836" y="529.639344262295"/>
      <point x="310.1311475409836" y="529.639344262295" type="curve" smooth="yes"/>
      <point x="361.1311475409836" y="529.639344262295"/>
      <point x="405.42622950819674" y="551.9344262295082"/>
      <point x="440.8360655737705" y="599.7540983606557" type="curve" smooth="yes"/>
      <point x="452.42622950819674" y="614.639344262295"/>
      <point x="460.72131147540983" y="628.639344262295"/>
      <point x="460.72131147540983" y="656.8196721311475" type="curve" smooth="yes"/>
      <point x="460.72131147540983" y="684.5901639344262"/>
      <point x="444.8360655737705" y="702.4754098360655"/>
    </contour>
  </outline>
</glyph>
<glyph name="uni0663" format="2">
  <advance width="550.2295081967213"/>
  <unicode hex="0663"/>
  <outline>
    <contour>
      <point x="206.59016393442624" y="130.81967213114754" type="curve" smooth="yes"/>
      <point x="228.77049180327867" y="130.81967213114754"/>
      <point x="242.36065573770492" y="142.40983606557376"/>
      <point x="252.24590163934425" y="162.29508196721312" type="curve" smooth="yes"/>
      <point x="264.1311475409836" y="186.18032786885246"/>
      <point x="271.8360655737705" y="241.47540983606558"/>
      <point x="271.8360655737705" y="293.59016393442624" type="curve" smooth="yes"/>
      <point x="271.8360655737705" y="362.40983606557376"/>
      <point x="256.72131147540983" y="442.9344262295082"/>
      <point x="234.31147540983608" y="516.0491803278688" type="curve"/>
      <point x="237.01639344262296" y="516.0491803278688"/>
      <point x="238.31147540983608" y="516.0491803278688"/>
      <point x="241.01639344262296" y="516.0491803278688" type="curve" smooth="yes"/>
      <point x="272.54098360655735" y="517.2295081967213"/>
      <point x="295.8360655737705" y="530.9344262295082"/>
      <point x="318.54098360655735" y="554.0491803278688" type="curve"/>
      <point x="339.8360655737705" y="539.344262295082"/>
      <point x="363.1311475409836" y="534.344262295082"/>
      <point x="393.72131147540983" y="534.344262295082" type="curve" smooth="yes"/>
      <point x="445.60655737704917" y="534.344262295082"/>
      <point x="482.1967213114754" y="573.9344262295082"/>
      <point x="506.60655737704917" y="630.0491803278688" type="curve" smooth="yes"/>
      <point x="514.9016393442623" y="648.639344262295"/>
      <point x="521.1967213114754" y="668.5245901639345"/>
      <point x="521.1967213114754" y="679.8196721311475" type="curve" smooth="yes"/>
      <point x="521.1967213114754" y="708.2950819672132"/>
      <point x="495.72131147540983" y="725.1803278688525"/>
      <point x="475.8360655737705" y="725.1803278688525" type="curve" smooth="yes"/>
      <point x="457.24590163934425" y="725.1803278688525"/>
      <point x="445.3606557377049" y="712.8852459016393"/>
      <point x="436.0655737704918" y="682.4098360655738" type="curve" smooth="yes"/>
      <point x="421.655737704918" y="637.0"/>
      <point x="399.3606557377049" y="601.2950819672132"/>
      <point x="367.95081967213116" y="601.2950819672132" type="curve" smooth="yes"/>
      <point x="363.54098360655735" y="601.2950819672132"/>
      <point x="358.42622950819674" y="602.0"/>
      <point x="353.016393442623" y="603.7049180327868" type="curve"/>
      <point x="356.42622950819674" y="608.8196721311475"/>
      <point x="360.24590163934425" y="616.4590163934427"/>
      <point x="364.0655737704918" y="624.8032786885246" type="curve" smooth="yes"/>
      <point x="371.4262295081967" y="640.9344262295082"/>
      <point x="376.1311475409836" y="655.5245901639345"/>
      <point x="376.1311475409836" y="675.0" type="curve" smooth="yes"/>
      <point x="376.1311475409836" y="699.2950819672132"/>
      <point x="351.655737704918" y="716.1803278688525"/>
      <point x="327.7704918032787" y="716.1803278688525" type="curve" smooth="yes"/>
      <point x="310.88524590163934" y="716.1803278688525"/>
      <point x="294.59016393442624" y="707.8852459016393"/>
      <point x="287.0" y="686.2950819672132" type="curve" smooth="yes"/>
      <point x="269.40983606557376" y="634.4754098360655"/>
      <point x="249.22950819672133" y="594.5901639344262"/>
      <point x="216.95081967213116" y="594.5901639344262" type="curve" smooth="yes"/>
      <point x="213.24590163934425" y="594.5901639344262"/>
      <point x="209.54098360655738" y="594.5901639344262"/>
      <point x="205.1311475409836" y="595.5901639344262" type="curve"/>
      <point x="187.42622950819674" y="637.0"/>
      <point x="167.1311475409836" y="672.2950819672132"/>
      <point x="147.1311475409836" y="697.2950819672132" type="curve" smooth="yes"/>
      <point x="133.24590163934425" y="715.1803278688525"/>
      <point x="118.65573770491804" y="719.4754098360655"/>
      <point x="99.77049180327869" y="719.4754098360655" type="curve" smooth="yes"/>
      <point x="72.59016393442623" y="719.4754098360655"/>
      <point x="38.52459016393443" y="696.0"/>
      <point x="38.52459016393443" y="667.8196721311475" type="curve" smooth="yes"/>
      <point x="38.52459016393443" y="649.639344262295"/>
      <point x="42.81967213114754" y="636.0491803278688"/>
      <point x="57.704918032786885" y="617.1639344262295" type="curve" smooth="yes"/>
      <point x="132.0" y="523.1639344262295"/>
      <point x="174.52459016393442" y="398.0"/>
      <point x="174.52459016393442" y="280.88524590163934" type="curve" smooth="yes"/>
      <point x="174.52459016393442" y="251.18032786885246"/>
      <point x="173.52459016393442" y="223.59016393442624"/>
      <point x="171.52459016393442" y="205.59016393442624" type="curve" smooth="yes"/>
      <point x="169.52459016393442" y="190.59016393442624"/>
      <point x="168.52459016393442" y="174.88524590163934"/>
      <point x="168.52459016393442" y="162.29508196721312" type="curve" smooth="yes"/>
      <point x="168.52459016393442" y="143.40983606557376"/>
      <point x="185.40983606557376" y="130.81967213114754"/>
    </contour>
  </outline>
</glyph>
<glyph name="uni0664" format="2">
  <advance width="418.0655737704918"/>
  <unicode hex="0664"/>
  <outline>
    <contour>
      <point x="309.2950819672131" y="130.40983606557376" type="curve" smooth="yes"/>
      <point x="367.59016393442624" y="130.40983606557376"/>
      <point x="398.0655737704918" y="148.29508196721312"/>
      <point x="398.0655737704918" y="187.0655737704918" type="curve" smooth="yes"/>
      <point x="398.0655737704918" y="218.54098360655738"/>
      <point x="385.1803278688525" y="233.8360655737705"/>
      <point x="364.2950819672131" y="233.8360655737705" type="curve" smooth="yes"/>
      <point x="339.40983606557376" y="233.8360655737705"/>
      <point x="325.40983606557376" y="230.1311475409836"/>
      <point x="296.40983606557376" y="230.1311475409836" type="curve" smooth="yes"/>
      <point x="232.29508196721312" y="230.1311475409836"/>
      <point x="176.54098360655738" y="252.72131147540983"/>
      <point x="176.54098360655738" y="292.3606557377049" type="curve" smooth="yes"/>
      <point x="176.54098360655738" y="325.2950819672131"/>
      <point x="204.0655737704918" y="364.7049180327869"/>
      <point x="255.40983606557376" y="405.6393442622951" type="curve" smooth="yes"/>
      <point x="279.59016393442624" y="425.5245901639344"/>
      <point x="304.7704918032787" y="438.40983606557376"/>
      <point x="304.7704918032787" y="458.0" type="curve" smooth="yes"/>
      <point x="304.7704918032787" y="476.59016393442624"/>
      <point x="298.4754098360656" y="486.88524590163934"/>
      <point x="269.4754098360656" y="497.88524590163934" type="curve" smooth="yes"/>
      <point x="234.29508196721312" y="511.1803278688525"/>
      <point x="184.24590163934425" y="533.0"/>
      <point x="158.72131147540983" y="553.5245901639345" type="curve"/>
      <point x="189.01639344262296" y="577.5245901639345"/>
      <point x="246.95081967213116" y="609.7540983606557"/>
      <point x="295.1311475409836" y="633.0491803278688" type="curve" smooth="yes"/>
      <point x="317.72131147540983" y="644.0491803278688"/>
      <point x="327.016393442623" y="656.2295081967213"/>
      <point x="327.016393442623" y="671.8196721311475" type="curve" smooth="yes"/>
      <point x="327.016393442623" y="690.7049180327868"/>
      <point x="308.8360655737705" y="720.7704918032787"/>
      <point x="282.655737704918" y="720.7704918032787" type="curve" smooth="yes"/>
      <point x="266.3606557377049" y="720.7704918032787"/>
      <point x="242.18032786885246" y="713.1803278688525"/>
      <point x="211.59016393442624" y="693.8852459016393" type="curve" smooth="yes"/>
      <point x="172.0" y="669.2950819672132"/>
      <point x="124.59016393442623" y="632.4754098360655"/>
      <point x="83.11475409836066" y="599.0" type="curve" smooth="yes"/>
      <point x="64.81967213114754" y="583.7049180327868"/>
      <point x="53.81967213114754" y="570.4098360655738"/>
      <point x="53.81967213114754" y="550.8196721311475" type="curve" smooth="yes"/>
      <point x="53.81967213114754" y="535.5245901639345"/>
      <point x="66.81967213114754" y="521.344262295082"/>
      <point x="79.70491803278688" y="512.0491803278688" type="curve" smooth="yes"/>
      <point x="113.70491803278688" y="487.6393442622951"/>
      <point x="171.9344262295082" y="462.8196721311475"/>
      <point x="195.5737704918033" y="453.7049180327869" type="curve"/>
      <point x="122.34426229508196" y="404.88524590163934"/>
      <point x="65.63934426229508" y="345.7704918032787"/>
      <point x="65.63934426229508" y="274.1803278688525" type="curve" smooth="yes"/>
      <point x="65.63934426229508" y="184.29508196721312"/>
      <point x="190.22950819672133" y="130.40983606557376"/>
    </contour>
  </outline>
</glyph>
<glyph name="uni0665" format="2">
  <advance width="481.88524590163934"/>
  <unicode hex="0665"/>
  <outline>
    <contour>
      <point x="235.29508196721312" y="155.63934426229508" type="curve" smooth="yes"/>
      <point x="381.95081967213116" y="155.63934426229508"/>
      <point x="444.8360655737705" y="238.22950819672133"/>
      <point x="444.8360655737705" y="339.7049180327869" type="curve" smooth="yes"/>
      <point x="444.8360655737705" y="494.59016393442624"/>
      <point x="348.3606557377049" y="675.7704918032787"/>
      <point x="239.88524590163934" y="675.7704918032787" type="curve" smooth="yes"/>
      <point x="148.11475409836066" y="675.7704918032787"/>
      <point x="37.049180327868854" y="483.59016393442624"/>
      <point x="37.049180327868854" y="332.7049180327869" type="curve" smooth="yes"/>
      <point x="37.049180327868854" y="211.22950819672133"/>
      <point x="113.22950819672131" y="155.63934426229508"/>
    </contour>
    <contour>
      <point x="236.29508196721312" y="254.36065573770492" type="curve" smooth="yes"/>
      <point x="166.18032786885246" y="254.36065573770492"/>
      <point x="123.77049180327869" y="284.7704918032787"/>
      <point x="123.77049180327869" y="341.2950819672131" type="curve" smooth="yes"/>
      <point x="123.77049180327869" y="439.8196721311475"/>
      <point x="188.18032786885246" y="575.4590163934427"/>
      <point x="235.88524590163934" y="575.4590163934427" type="curve" smooth="yes"/>
      <point x="304.7049180327869" y="575.4590163934427"/>
      <point x="355.40983606557376" y="441.5245901639344"/>
      <point x="355.40983606557376" y="345.0" type="curve" smooth="yes"/>
      <point x="355.40983606557376" y="291.4754098360656"/>
      <point x="316.7049180327869" y="254.36065573770492"/>
    </contour>
  </outline>
</glyph>
<glyph name="uni0666" format="2">
  <advance width="491.3606557377049"/>
  <unicode hex="0666"/>
  <outline>
    <contour>
      <point x="400.59016393442624" y="130.81967213114754" type="curve" smooth="yes"/>
      <point x="431.3606557377049" y="130.81967213114754"/>
      <point x="462.8360655737705" y="153.0"/>
      <point x="462.8360655737705" y="181.47540983606558" type="curve" smooth="yes"/>
      <point x="462.8360655737705" y="198.77049180327867"/>
      <point x="458.8360655737705" y="214.65573770491804"/>
      <point x="447.54098360655735" y="233.95081967213116" type="curve" smooth="yes"/>
      <point x="427.54098360655735" y="267.655737704918"/>
      <point x="411.42622950819674" y="303.88524590163934"/>
      <point x="398.1311475409836" y="343.59016393442624" type="curve" smooth="yes"/>
      <point x="374.54098360655735" y="414.40983606557376"/>
      <point x="359.54098360655735" y="503.88524590163934"/>
      <point x="359.54098360655735" y="569.0" type="curve" smooth="yes"/>
      <point x="359.54098360655735" y="599.0"/>
      <point x="360.54098360655735" y="625.4098360655738"/>
      <point x="362.54098360655735" y="643.4098360655738" type="curve" smooth="yes"/>
      <point x="364.54098360655735" y="658.4098360655738"/>
      <point x="365.54098360655735" y="674.1147540983607"/>
      <point x="365.54098360655735" y="687.0" type="curve" smooth="yes"/>
      <point x="365.54098360655735" y="705.5901639344262"/>
      <point x="348.655737704918" y="718.1803278688525"/>
      <point x="327.4754098360656" y="718.1803278688525" type="curve" smooth="yes"/>
      <point x="303.8196721311475" y="718.1803278688525"/>
      <point x="290.40983606557376" y="705.7049180327868"/>
      <point x="280.40983606557376" y="685.4098360655738" type="curve"/>
      <point x="258.75409836065575" y="673.2295081967213"/>
      <point x="229.81967213114754" y="665.7049180327868"/>
      <point x="197.70491803278688" y="665.7049180327868" type="curve" smooth="yes"/>
      <point x="157.77049180327867" y="665.7049180327868"/>
      <point x="128.4262295081967" y="673.5245901639345"/>
      <point x="103.36065573770492" y="686.2950819672132" type="curve" smooth="yes"/>
      <point x="80.36065573770492" y="697.8852459016393"/>
      <point x="65.54098360655738" y="704.0655737704918"/>
      <point x="50.36065573770492" y="704.0655737704918" type="curve" smooth="yes"/>
      <point x="29.59016393442623" y="704.0655737704918"/>
      <point x="12.819672131147541" y="686.8196721311475"/>
      <point x="12.819672131147541" y="659.4098360655738" type="curve" smooth="yes"/>
      <point x="12.819672131147541" y="633.5901639344262"/>
      <point x="21.934426229508198" y="613.7049180327868"/>
      <point x="45.9344262295082" y="599.9344262295082" type="curve" smooth="yes"/>
      <point x="73.22950819672131" y="584.5737704918033"/>
      <point x="119.11475409836066" y="574.688524590164"/>
      <point x="165.0" y="574.688524590164" type="curve" smooth="yes"/>
      <point x="199.11475409836066" y="574.688524590164"/>
      <point x="231.34426229508196" y="577.3934426229508"/>
      <point x="261.9344262295082" y="587.688524590164" type="curve"/>
      <point x="261.2295081967213" y="576.639344262295"/>
      <point x="261.2295081967213" y="567.344262295082"/>
      <point x="261.2295081967213" y="560.8196721311475" type="curve" smooth="yes"/>
      <point x="261.2295081967213" y="484.7049180327869"/>
      <point x="275.6393442622951" y="373.8360655737705"/>
      <point x="301.75409836065575" y="281.60655737704917" type="curve" smooth="yes"/>
      <point x="316.344262295082" y="229.24590163934425"/>
      <point x="334.9344262295082" y="182.88524590163934"/>
      <point x="356.11475409836066" y="153.40983606557376" type="curve" smooth="yes"/>
      <point x="368.40983606557376" y="136.11475409836066"/>
      <point x="386.0" y="130.81967213114754"/>
    </contour>
  </outline>
</glyph>
<glyph name="uni0667" format="2">
  <advance width="484.72131147540983"/>
  <unicode hex="0667"/>
  <outline>
    <contour>
      <point x="307.3114754098361" y="204.0655737704918" type="curve" smooth="yes"/>
      <point x="347.42622950819674" y="353.6393442622951"/>
      <point x="411.4262295081967" y="521.7540983606557"/>
      <point x="455.72131147540983" y="610.9344262295082" type="curve" smooth="yes"/>
      <point x="461.72131147540983" y="623.2295081967213"/>
      <point x="469.3114754098361" y="638.5245901639345"/>
      <point x="469.3114754098361" y="649.8196721311475" type="curve" smooth="yes"/>
      <point x="469.3114754098361" y="666.7049180327868"/>
      <point x="445.1311475409836" y="689.1803278688525"/>
      <point x="401.7704918032787" y="689.1803278688525" type="curve" smooth="yes"/>
      <point x="380.88524590163934" y="689.1803278688525"/>
      <point x="367.59016393442624" y="673.5901639344262"/>
      <point x="359.0" y="655.0" type="curve" smooth="yes"/>
      <point x="317.88524590163934" y="569.0655737704918"/>
      <point x="276.4754098360656" y="439.24590163934425"/>
      <point x="247.0655737704918" y="283.9016393442623" type="curve"/>
      <point x="203.36065573770492" y="485.95081967213116"/>
      <point x="150.1311475409836" y="636.7704918032787"/>
      <point x="123.1311475409836" y="667.1803278688525" type="curve" smooth="yes"/>
      <point x="112.54098360655738" y="678.4754098360655"/>
      <point x="101.8360655737705" y="684.4754098360655"/>
      <point x="78.36065573770492" y="684.4754098360655" type="curve" smooth="yes"/>
      <point x="45.885245901639344" y="684.4754098360655"/>
      <point x="15.40983606557377" y="665.5901639344262"/>
      <point x="15.40983606557377" y="646.7049180327868" type="curve" smooth="yes"/>
      <point x="15.40983606557377" y="636.4098360655738"/>
      <point x="19.40983606557377" y="629.8196721311475"/>
      <point x="27.704918032786885" y="616.2295081967213" type="curve" smooth="yes"/>
      <point x="55.704918032786885" y="569.9344262295082"/>
      <point x="127.22950819672131" y="404.8196721311475"/>
      <point x="184.11475409836066" y="195.88524590163934" type="curve" smooth="yes"/>
      <point x="194.0" y="159.52459016393442"/>
      <point x="213.59016393442624" y="144.40983606557376"/>
      <point x="239.77049180327867" y="144.40983606557376" type="curve" smooth="yes"/>
      <point x="274.24590163934425" y="144.40983606557376"/>
      <point x="294.1311475409836" y="154.11475409836066"/>
    </contour>
  </outline>
</glyph>
<glyph name="uni0668" format="2">
  <advance width="484.72131147540983"/>
  <unicode hex="0668"/>
  <outline>
    <contour>
      <point x="82.95081967213115" y="144.40983606557376" type="curve" smooth="yes"/>
      <point x="103.8360655737705" y="144.40983606557376"/>
      <point x="118.1311475409836" y="160.70491803278688"/>
      <point x="126.42622950819671" y="179.29508196721312" type="curve" smooth="yes"/>
      <point x="166.54098360655738" y="265.5245901639344"/>
      <point x="207.95081967213116" y="395.04918032786884"/>
      <point x="238.36065573770492" y="550.688524590164" type="curve"/>
      <point x="281.3606557377049" y="348.344262295082"/>
      <point x="335.59016393442624" y="197.52459016393442"/>
      <point x="362.0" y="166.70491803278688" type="curve" smooth="yes"/>
      <point x="372.59016393442624" y="154.11475409836066"/>
      <point x="382.88524590163934" y="149.81967213114754"/>
      <point x="407.0655737704918" y="149.81967213114754" type="curve" smooth="yes"/>
      <point x="439.54098360655735" y="149.81967213114754"/>
      <point x="469.3114754098361" y="168.70491803278688"/>
      <point x="469.3114754098361" y="187.59016393442624" type="curve" smooth="yes"/>
      <point x="469.3114754098361" y="197.59016393442624"/>
      <point x="465.3114754098361" y="205.18032786885246"/>
      <point x="457.72131147540983" y="218.0655737704918" type="curve" smooth="yes"/>
      <point x="428.3114754098361" y="265.4754098360656"/>
      <point x="358.9016393442623" y="425.655737704918"/>
      <point x="300.60655737704917" y="637.7049180327868" type="curve" smooth="yes"/>
      <point x="290.016393442623" y="676.8852459016393"/>
      <point x="272.1311475409836" y="689.1803278688525"/>
      <point x="244.95081967213116" y="689.1803278688525" type="curve" smooth="yes"/>
      <point x="209.77049180327867" y="689.1803278688525"/>
      <point x="189.59016393442624" y="677.7704918032787"/>
      <point x="176.0" y="625.8852459016393" type="curve" smooth="yes"/>
      <point x="137.70491803278688" y="480.655737704918"/>
      <point x="78.0" y="309.3606557377049"/>
      <point x="28.704918032786885" y="222.65573770491804" type="curve" smooth="yes"/>
      <point x="21.704918032786885" y="210.65573770491804"/>
      <point x="15.40983606557377" y="194.65573770491804"/>
      <point x="15.40983606557377" y="184.47540983606558" type="curve" smooth="yes"/>
      <point x="15.40983606557377" y="167.59016393442624"/>
      <point x="39.59016393442623" y="144.40983606557376"/>
    </contour>
  </outline>
</glyph>
<glyph name="uni0669" format="2">
  <advance width="486.4754098360656"/>
  <unicode hex="0669"/>
  <outline>
    <contour>
      <point x="413.2950819672131" y="126.52459016393442" type="curve" smooth="yes"/>
      <point x="446.0655737704918" y="126.52459016393442"/>
      <point x="469.42622950819674" y="142.40983606557376"/>
      <point x="469.42622950819674" y="174.88524590163934" type="curve" smooth="yes"/>
      <point x="469.42622950819674" y="182.47540983606558"/>
      <point x="468.24590163934425" y="191.47540983606558"/>
      <point x="462.24590163934425" y="199.77049180327867" type="curve" smooth="yes"/>
      <point x="448.24590163934425" y="219.65573770491804"/>
      <point x="438.9016393442623" y="236.9344262295082"/>
      <point x="425.42622950819674" y="270.8196721311475" type="curve" smooth="yes"/>
      <point x="402.95081967213116" y="327.9344262295082"/>
      <point x="389.24590163934425" y="376.40983606557376"/>
      <point x="376.655737704918" y="488.4754098360656" type="curve" smooth="yes"/>
      <point x="357.0655737704918" y="663.8852459016393"/>
      <point x="253.59016393442624" y="707.4754098360655"/>
      <point x="180.11475409836066" y="707.4754098360655" type="curve" smooth="yes"/>
      <point x="101.93442622950819" y="707.4754098360655"/>
      <point x="27.049180327868854" y="647.4754098360655"/>
      <point x="27.049180327868854" y="551.5901639344262" type="curve" smooth="yes"/>
      <point x="27.049180327868854" y="448.11475409836066"/>
      <point x="101.63934426229508" y="387.5245901639344"/>
      <point x="189.2295081967213" y="387.5245901639344" type="curve" smooth="yes"/>
      <point x="234.2295081967213" y="387.5245901639344"/>
      <point x="264.2295081967213" y="399.11475409836066"/>
      <point x="289.2295081967213" y="414.11475409836066" type="curve"/>
      <point x="294.5245901639344" y="356.40983606557376"/>
      <point x="303.9344262295082" y="292.7049180327869"/>
      <point x="314.5245901639344" y="250.40983606557376" type="curve" smooth="yes"/>
      <point x="325.11475409836066" y="208.40983606557376"/>
      <point x="347.2295081967213" y="164.0"/>
      <point x="364.2295081967213" y="148.40983606557376" type="curve" smooth="yes"/>
      <point x="377.11475409836066" y="136.22950819672133"/>
      <point x="392.7049180327869" y="126.52459016393442"/>
    </contour>
    <contour>
      <point x="204.40983606557376" y="471.24590163934425" type="curve" smooth="yes"/>
      <point x="147.29508196721312" y="471.24590163934425"/>
      <point x="113.47540983606558" y="503.0655737704918"/>
      <point x="113.47540983606558" y="550.8852459016393" type="curve" smooth="yes"/>
      <point x="113.47540983606558" y="591.8196721311475"/>
      <point x="138.0" y="626.344262295082"/>
      <point x="177.11475409836066" y="626.344262295082" type="curve" smooth="yes"/>
      <point x="208.2295081967213" y="626.344262295082"/>
      <point x="268.6393442622951" y="608.9344262295082"/>
      <point x="277.6393442622951" y="489.95081967213116" type="curve"/>
      <point x="263.9344262295082" y="480.95081967213116"/>
      <point x="231.2295081967213" y="471.24590163934425"/>
    </contour>
  </outline>
</glyph>
<glyph name="uni066A" format="2">
  <advance width="549.4918032786885"/>
  <unicode hex="066A"/>
  <outline>
    <contour>
      <point x="181.01639344262296" y="155.52459016393442" type="curve" smooth="yes"/>
      <point x="193.60655737704917" y="155.52459016393442"/>
      <point x="205.19672131147541" y="162.81967213114754"/>
      <point x="209.49180327868854" y="176.11475409836066" type="curve" smooth="yes"/>
      <point x="218.08196721311475" y="200.59016393442624"/>
      <point x="224.19672131147541" y="243.11475409836066"/>
      <point x="243.78688524590166" y="290.0" type="curve" smooth="yes"/>
      <point x="263.1967213114754" y="336.5245901639344"/>
      <point x="294.60655737704917" y="398.6393442622951"/>
      <point x="326.72131147540983" y="448.8688524590164" type="curve" smooth="yes"/>
      <point x="363.1311475409836" y="505.6885245901639"/>
      <point x="405.3114754098361" y="557.4590163934427"/>
      <point x="446.3114754098361" y="592.0491803278688" type="curve" smooth="yes"/>
      <point x="461.60655737704917" y="605.344262295082"/>
      <point x="476.4918032786885" y="622.9344262295082"/>
      <point x="476.4918032786885" y="634.1147540983607" type="curve" smooth="yes"/>
      <point x="476.4918032786885" y="647.8196721311475"/>
      <point x="470.55737704918033" y="664.8196721311475"/>
      <point x="464.1967213114754" y="673.7704918032787" type="curve" smooth="yes"/>
      <point x="449.1967213114754" y="695.5901639344262"/>
      <point x="428.9016393442623" y="705.2459016393443"/>
      <point x="406.8360655737705" y="705.9508196721312" type="curve" smooth="yes"/>
      <point x="388.78688524590166" y="698.9016393442623"/>
      <point x="369.3114754098361" y="679.016393442623"/>
      <point x="344.08196721311475" y="650.9672131147541" type="curve" smooth="yes"/>
      <point x="303.78688524590166" y="607.1475409836065"/>
      <point x="257.672131147541" y="543.688524590164"/>
      <point x="222.4918032786885" y="476.5081967213115" type="curve" smooth="yes"/>
      <point x="178.72131147540983" y="393.44262295081967"/>
      <point x="128.0655737704918" y="276.3114754098361"/>
      <point x="128.0655737704918" y="215.77049180327867" type="curve" smooth="yes"/>
      <point x="128.0655737704918" y="181.70491803278688"/>
      <point x="150.54098360655738" y="155.52459016393442"/>
    </contour>
    <contour>
      <point x="121.29508196721312" y="531.9344262295082" type="curve" smooth="yes"/>
      <point x="144.47540983606558" y="531.9344262295082"/>
      <point x="186.95081967213116" y="548.5245901639345"/>
      <point x="186.95081967213116" y="575.4098360655738" type="curve" smooth="yes"/>
      <point x="186.95081967213116" y="626.1803278688525"/>
      <point x="158.36065573770492" y="689.2459016393443"/>
      <point x="125.18032786885246" y="689.2459016393443" type="curve" smooth="yes"/>
      <point x="94.29508196721312" y="689.2459016393443"/>
      <point x="54.81967213114754" y="670.360655737705"/>
      <point x="54.81967213114754" y="637.1803278688525" type="curve" smooth="yes"/>
      <point x="54.81967213114754" y="596.0"/>
      <point x="91.70491803278688" y="531.9344262295082"/>
    </contour>
    <contour>
      <point x="417.4918032786885" y="212.81967213114754" type="curve" smooth="yes"/>
      <point x="441.08196721311475" y="212.81967213114754"/>
      <point x="483.1475409836066" y="229.11475409836066"/>
      <point x="483.1475409836066" y="256.0" type="curve" smooth="yes"/>
      <point x="483.1475409836066" y="306.7704918032787"/>
      <point x="454.9672131147541" y="369.8360655737705"/>
      <point x="421.08196721311475" y="369.8360655737705" type="curve" smooth="yes"/>
      <point x="390.9016393442623" y="369.8360655737705"/>
      <point x="351.72131147540983" y="351.24590163934425"/>
      <point x="351.72131147540983" y="318.0655737704918" type="curve" smooth="yes"/>
      <point x="351.72131147540983" y="276.59016393442624"/>
      <point x="388.60655737704917" y="212.81967213114754"/>
    </contour>
  </outline>
</glyph>
<glyph name="uni066B" format="2">
  <advance width="308.4918032786885"/>
  <unicode hex="066B"/>
  <outline>
    <contour>
      <point x="100.24590163934425" y="22.245901639344268" type="curve" smooth="yes"/>
      <point x="116.95081967213115" y="22.245901639344268"/>
      <point x="133.01639344262296" y="35.950819672131146"/>
      <point x="148.55737704918033" y="49.67213114754098" type="curve" smooth="yes"/>
      <point x="180.44262295081967" y="76.50819672131148"/>
      <point x="247.4918032786885" y="166.49180327868854"/>
      <point x="247.4918032786885" y="220.08196721311475" type="curve" smooth="yes"/>
      <point x="247.4918032786885" y="266.672131147541"/>
      <point x="218.19672131147541" y="290.672131147541"/>
      <point x="180.24590163934425" y="290.672131147541" type="curve" smooth="yes"/>
      <point x="133.65573770491804" y="290.672131147541"/>
      <point x="90.29508196721312" y="252.44262295081967"/>
      <point x="90.29508196721312" y="206.78688524590163" type="curve" smooth="yes"/>
      <point x="90.29508196721312" y="175.49180327868854"/>
      <point x="112.40983606557377" y="149.9016393442623"/>
      <point x="145.11475409836066" y="146.1311475409836" type="curve"/>
      <point x="133.59016393442624" y="119.44262295081967"/>
      <point x="113.42622950819671" y="101.27868852459017"/>
      <point x="85.81967213114754" y="72.19672131147541" type="curve" smooth="yes"/>
      <point x="77.40983606557377" y="63.49180327868852"/>
      <point x="73.0" y="57.606557377049185"/>
      <point x="73.0" y="46.90163934426229" type="curve" smooth="yes"/>
      <point x="73.0" y="39.65573770491803"/>
      <point x="78.24590163934427" y="22.245901639344268"/>
    </contour>
  </outline>
</glyph>
<glyph name="uni066C" format="2">
  <advance width="308.4918032786885"/>
  <unicode hex="066C"/>
  <outline>
    <contour>
      <point x="208.24590163934425" y="400.88524590163934" type="curve" smooth="yes"/>
      <point x="191.54098360655738" y="400.88524590163934"/>
      <point x="175.47540983606558" y="387.1803278688525"/>
      <point x="159.9344262295082" y="373.45901639344265" type="curve" smooth="yes"/>
      <point x="128.04918032786884" y="346.62295081967216"/>
      <point x="61.0" y="256.6393442622951"/>
      <point x="61.0" y="203.04918032786884" type="curve" smooth="yes"/>
      <point x="61.0" y="156.45901639344262"/>
      <point x="90.29508196721312" y="132.45901639344262"/>
      <point x="128.24590163934425" y="132.45901639344262" type="curve" smooth="yes"/>
      <point x="174.8360655737705" y="132.45901639344262"/>
      <point x="218.19672131147541" y="170.68852459016392"/>
      <point x="218.19672131147541" y="216.34426229508196" type="curve" smooth="yes"/>
      <point x="218.19672131147541" y="247.63934426229508"/>
      <point x="196.08196721311475" y="273.2295081967213"/>
      <point x="163.37704918032787" y="277.0" type="curve"/>
      <point x="174.9016393442623" y="303.6885245901639"/>
      <point x="195.0655737704918" y="321.8524590163934"/>
      <point x="222.672131147541" y="350.9344262295082" type="curve" smooth="yes"/>
      <point x="231.08196721311475" y="359.6393442622951"/>
      <point x="235.4918032786885" y="365.5245901639344"/>
      <point x="235.4918032786885" y="376.2295081967213" type="curve" smooth="yes"/>
      <point x="235.4918032786885" y="383.4754098360656"/>
      <point x="230.24590163934425" y="400.88524590163934"/>
    </contour>
  </outline>
</glyph>
<glyph name="uni0781" format="2">
  <advance width="679.7704918032787"/>
  <unicode hex="0781"/>
  <outline>
    <contour>
      <point x="3.4262295081967196" y="-78.0" type="curve" smooth="yes"/>
      <point x="22.01639344262295" y="-78.0"/>
      <point x="71.34426229508196" y="-63.65573770491803"/>
      <point x="132.19672131147541" y="-20.032786885245898" type="curve" smooth="yes"/>
      <point x="209.11475409836066" y="33.868852459016395"/>
      <point x="280.0983606557377" y="106.21311475409837"/>
      <point x="353.59016393442624" y="196.59016393442624" type="curve"/>
      <point x="358.59016393442624" y="195.88524590163934"/>
      <point x="364.59016393442624" y="195.88524590163934"/>
      <point x="370.2950819672131" y="195.88524590163934" type="curve" smooth="yes"/>
      <point x="463.1475409836066" y="196.47540983606558"/>
      <point x="548.9508196721312" y="227.39344262295083"/>
      <point x="605.4918032786885" y="271.62295081967216" type="curve" smooth="yes"/>
      <point x="646.1147540983607" y="301.75409836065575"/>
      <point x="665.4754098360655" y="330.04918032786884"/>
      <point x="665.4754098360655" y="359.4754098360656" type="curve" smooth="yes"/>
      <point x="665.4754098360655" y="374.42622950819674"/>
      <point x="653.8196721311475" y="395.1311475409836"/>
      <point x="625.639344262295" y="395.1311475409836" type="curve" smooth="yes"/>
      <point x="604.4098360655738" y="395.1311475409836"/>
      <point x="576.2459016393443" y="364.6885245901639"/>
      <point x="558.4754098360655" y="350.7377049180328" type="curve" smooth="yes"/>
      <point x="517.9508196721312" y="320.2622950819672"/>
      <point x="481.0655737704918" y="305.672131147541"/>
      <point x="439.4754098360656" y="304.78688524590166" type="curve"/>
      <point x="420.2950819672131" y="336.08196721311475"/>
      <point x="390.7049180327869" y="359.08196721311475"/>
      <point x="347.27868852459017" y="359.08196721311475" type="curve" smooth="yes"/>
      <point x="285.45901639344265" y="359.08196721311475"/>
      <point x="249.5081967213115" y="323.4918032786885"/>
      <point x="249.5081967213115" y="277.8360655737705" type="curve" smooth="yes"/>
      <point x="249.5081967213115" y="261.54098360655735"/>
      <point x="255.80327868852459" y="244.29508196721312"/>
      <point x="266.5081967213115" y="232.18032786885246" type="curve"/>
      <point x="226.22950819672133" y="185.4262295081967"/>
      <point x="169.11475409836066" y="129.95081967213116"/>
      <point x="89.91803278688525" y="80.88524590163934" type="curve" smooth="yes"/>
      <point x="59.63934426229508" y="61.42622950819673"/>
      <point x="21.18032786885246" y="48.016393442622956"/>
      <point x="-13.868852459016393" y="36.90163934426229" type="curve" smooth="yes"/>
      <point x="-43.52459016393443" y="27.016393442622956"/>
      <point x="-58.704918032786885" y="8.426229508196712"/>
      <point x="-58.704918032786885" y="-18.34426229508197" type="curve" smooth="yes"/>
      <point x="-58.704918032786885" y="-56.114754098360656"/>
      <point x="-37.22950819672131" y="-78.0"/>
    </contour>
  </outline>
</glyph>
<glyph name="uni0782" format="2">
  <advance width="812.2459016393443"/>
  <unicode hex="0782"/>
  <outline>
    <contour>
      <point x="4.016393442622949" y="-78.0" type="curve" smooth="yes"/>
      <point x="22.901639344262293" y="-78.0"/>
      <point x="69.22950819672131" y="-63.65573770491803"/>
      <point x="133.672131147541" y="-19.737704918032787" type="curve" smooth="yes"/>
      <point x="200.7377049180328" y="25.262295081967213"/>
      <point x="286.40983606557376" y="110.1639344262295"/>
      <point x="352.7049180327869" y="196.47540983606558" type="curve"/>
      <point x="358.0" y="196.18032786885246"/>
      <point x="364.0655737704918" y="195.29508196721312"/>
      <point x="373.78688524590166" y="195.29508196721312" type="curve" smooth="yes"/>
      <point x="425.5245901639344" y="195.29508196721312"/>
      <point x="466.344262295082" y="206.0"/>
      <point x="500.9344262295082" y="219.47540983606558" type="curve"/>
      <point x="529.4590163934427" y="197.59016393442624"/>
      <point x="557.2786885245902" y="187.29508196721312"/>
      <point x="595.1147540983607" y="187.29508196721312" type="curve" smooth="yes"/>
      <point x="671.4754098360655" y="187.29508196721312"/>
      <point x="739.360655737705" y="230.81967213114754"/>
      <point x="775.1311475409836" y="286.95081967213116" type="curve" smooth="yes"/>
      <point x="789.2459016393443" y="308.3606557377049"/>
      <point x="797.2459016393443" y="330.4754098360656"/>
      <point x="797.2459016393443" y="351.1803278688525" type="curve" smooth="yes"/>
      <point x="797.2459016393443" y="377.3114754098361"/>
      <point x="787.0" y="395.1311475409836"/>
      <point x="758.1147540983607" y="395.1311475409836" type="curve" smooth="yes"/>
      <point x="736.7049180327868" y="395.1311475409836"/>
      <point x="722.8196721311475" y="378.9672131147541"/>
      <point x="702.0" y="352.55737704918033" type="curve" smooth="yes"/>
      <point x="663.5901639344262" y="303.672131147541"/>
      <point x="639.9508196721312" y="277.4918032786885"/>
      <point x="612.360655737705" y="277.4918032786885" type="curve" smooth="yes"/>
      <point x="606.2459016393443" y="277.4918032786885"/>
      <point x="598.655737704918" y="278.1967213114754"/>
      <point x="591.1311475409836" y="279.60655737704917" type="curve"/>
      <point x="596.2459016393443" y="290.3114754098361"/>
      <point x="601.360655737705" y="310.3606557377049"/>
      <point x="601.360655737705" y="327.3606557377049" type="curve" smooth="yes"/>
      <point x="601.360655737705" y="360.60655737704917"/>
      <point x="588.5245901639345" y="380.42622950819674"/>
      <point x="557.2295081967213" y="380.42622950819674" type="curve" smooth="yes"/>
      <point x="538.7540983606557" y="380.42622950819674"/>
      <point x="524.4590163934427" y="365.8360655737705"/>
      <point x="507.75409836065575" y="345.42622950819674" type="curve" smooth="yes"/>
      <point x="491.04918032786884" y="325.72131147540983"/>
      <point x="473.9344262295082" y="305.42622950819674"/>
      <point x="446.59016393442624" y="300.8360655737705" type="curve"/>
      <point x="429.7704918032787" y="333.1311475409836"/>
      <point x="392.40983606557376" y="359.08196721311475"/>
      <point x="349.57377049180326" y="359.08196721311475" type="curve" smooth="yes"/>
      <point x="287.27868852459017" y="359.08196721311475"/>
      <point x="249.80327868852459" y="321.016393442623"/>
      <point x="249.80327868852459" y="277.1311475409836" type="curve" smooth="yes"/>
      <point x="249.80327868852459" y="261.42622950819674"/>
      <point x="255.5081967213115" y="244.18032786885246"/>
      <point x="266.21311475409834" y="231.59016393442624" type="curve"/>
      <point x="183.75409836065575" y="140.08196721311475"/>
      <point x="99.52459016393442" y="75.08196721311475"/>
      <point x="-7.3770491803278695" y="39.26229508196721" type="curve" smooth="yes"/>
      <point x="-42.9344262295082" y="26.540983606557376"/>
      <point x="-58.40983606557377" y="8.426229508196712"/>
      <point x="-58.40983606557377" y="-18.34426229508197" type="curve" smooth="yes"/>
      <point x="-58.40983606557377" y="-56.114754098360656"/>
      <point x="-36.9344262295082" y="-78.0"/>
    </contour>
  </outline>
</glyph>
<glyph name="uni0783" format="2">
  <advance width="649.8852459016393"/>
  <unicode hex="0783"/>
  <outline>
    <contour>
      <point x="7.426229508196727" y="-78.0" type="curve" smooth="yes"/>
      <point x="32.08196721311475" y="-78.0"/>
      <point x="93.9672131147541" y="-54.52459016393443"/>
      <point x="161.21311475409837" y="-12.80327868852459" type="curve" smooth="yes"/>
      <point x="238.37704918032787" y="34.49180327868852"/>
      <point x="309.1803278688525" y="106.63934426229508"/>
      <point x="388.7049180327869" y="175.9344262295082" type="curve"/>
      <point x="433.7049180327869" y="161.22950819672133"/>
      <point x="482.11475409836066" y="152.52459016393442"/>
      <point x="523.4098360655738" y="152.52459016393442" type="curve" smooth="yes"/>
      <point x="572.1311475409836" y="152.52459016393442"/>
      <point x="607.8360655737705" y="166.59016393442624"/>
      <point x="607.8360655737705" y="194.47540983606558" type="curve" smooth="yes"/>
      <point x="607.8360655737705" y="226.24590163934425"/>
      <point x="582.0" y="240.95081967213116"/>
      <point x="541.639344262295" y="240.95081967213116" type="curve" smooth="yes"/>
      <point x="517.5901639344262" y="240.95081967213116"/>
      <point x="497.0655737704918" y="244.0655737704918"/>
      <point x="480.8360655737705" y="249.18032786885246" type="curve"/>
      <point x="526.5245901639345" y="286.04918032786884"/>
      <point x="548.4262295081967" y="302.7049180327869"/>
      <point x="579.8360655737705" y="321.4754098360656" type="curve" smooth="yes"/>
      <point x="608.9508196721312" y="338.95081967213116"/>
      <point x="634.8852459016393" y="357.3606557377049"/>
      <point x="634.8852459016393" y="373.4754098360656" type="curve" smooth="yes"/>
      <point x="634.8852459016393" y="401.59016393442624"/>
      <point x="612.2459016393443" y="409.42622950819674"/>
      <point x="591.4590163934427" y="409.42622950819674" type="curve" smooth="yes"/>
      <point x="543.5737704918033" y="409.42622950819674"/>
      <point x="476.45901639344265" y="370.655737704918"/>
      <point x="397.75409836065575" y="306.24590163934425" type="curve"/>
      <point x="379.344262295082" y="325.1803278688525"/>
      <point x="354.0983606557377" y="342.655737704918"/>
      <point x="319.4590163934426" y="342.655737704918" type="curve" smooth="yes"/>
      <point x="274.57377049180326" y="342.655737704918"/>
      <point x="259.39344262295083" y="312.0163934426229"/>
      <point x="259.39344262295083" y="285.7704918032787" type="curve" smooth="yes"/>
      <point x="259.39344262295083" y="260.7704918032787"/>
      <point x="274.5081967213115" y="238.77049180327867"/>
      <point x="300.21311475409834" y="219.47540983606558" type="curve"/>
      <point x="230.60655737704917" y="155.75409836065575"/>
      <point x="165.37704918032787" y="107.70491803278688"/>
      <point x="92.11475409836066" y="73.8360655737705" type="curve" smooth="yes"/>
      <point x="60.114754098360656" y="58.8360655737705"/>
      <point x="26.475409836065573" y="47.016393442622956"/>
      <point x="-7.6885245901639365" y="38.196721311475414" type="curve" smooth="yes"/>
      <point x="-40.52459016393443" y="29.606557377049185"/>
      <point x="-59.0" y="11.83606557377049"/>
      <point x="-59.0" y="-18.34426229508197" type="curve" smooth="yes"/>
      <point x="-59.0" y="-54.114754098360656"/>
      <point x="-36.52459016393443" y="-78.0"/>
    </contour>
  </outline>
</glyph>
<glyph name="uni0784" format="2">
  <advance width="721.7377049180328"/>
  <unicode hex="0784"/>
  <outline>
    <contour>
      <point x="280.37704918032784" y="-11.475409836065573" type="curve" smooth="yes"/>
      <point x="492.5245901639344" y="-11.475409836065573"/>
      <point x="662.7377049180328" y="114.39344262295081"/>
      <point x="662.7377049180328" y="265.1803278688525" type="curve" smooth="yes"/>
      <point x="662.7377049180328" y="317.42622950819674"/>
      <point x="626.2622950819672" y="365.42622950819674"/>
      <point x="549.016393442623" y="365.42622950819674" type="curve" smooth="yes"/>
      <point x="487.42622950819674" y="365.42622950819674"/>
      <point x="427.4754098360656" y="337.4754098360656"/>
      <point x="382.08196721311475" y="303.42622950819674" type="curve"/>
      <point x="354.8524590163934" y="321.8360655737705"/>
      <point x="316.72131147540983" y="335.42622950819674"/>
      <point x="271.3114754098361" y="335.42622950819674" type="curve" smooth="yes"/>
      <point x="139.0" y="335.42622950819674"/>
      <point x="57.81967213114754" y="256.0655737704918"/>
      <point x="57.81967213114754" y="146.88524590163934" type="curve" smooth="yes"/>
      <point x="57.81967213114754" y="50.18032786885246"/>
      <point x="152.18032786885246" y="-11.475409836065573"/>
    </contour>
    <contour>
      <point x="207.55737704918033" y="91.06557377049181" type="curve"/>
      <point x="183.55737704918033" y="102.65573770491804"/>
      <point x="162.78688524590166" y="121.77049180327869"/>
      <point x="162.78688524590166" y="155.59016393442624" type="curve" smooth="yes"/>
      <point x="162.78688524590166" y="203.47540983606558"/>
      <point x="206.672131147541" y="242.11475409836066"/>
      <point x="264.72131147540983" y="242.11475409836066" type="curve" smooth="yes"/>
      <point x="276.655737704918" y="242.11475409836066"/>
      <point x="294.60655737704917" y="239.52459016393442"/>
      <point x="306.95081967213116" y="235.11475409836066" type="curve"/>
      <point x="266.1475409836066" y="193.19672131147541"/>
      <point x="225.8360655737705" y="128.52459016393442"/>
    </contour>
    <contour>
      <point x="301.62295081967216" y="80.36065573770492" type="curve"/>
      <point x="344.9672131147541" y="168.52459016393442"/>
      <point x="450.42622950819674" y="272.11475409836066"/>
      <point x="525.5409836065573" y="272.11475409836066" type="curve" smooth="yes"/>
      <point x="545.4754098360656" y="272.11475409836066"/>
      <point x="557.4754098360656" y="263.7049180327869"/>
      <point x="557.4754098360656" y="245.77049180327867" type="curve" smooth="yes"/>
      <point x="557.4754098360656" y="184.5737704918033"/>
      <point x="475.04918032786884" y="92.1311475409836"/>
    </contour>
  </outline>
</glyph>
<glyph name="uni0785" format="2">
  <advance width="547.360655737705"/>
  <unicode hex="0785"/>
  <outline>
    <contour>
      <point x="4.426229508196721" y="-78.0" type="curve" smooth="yes"/>
      <point x="74.0655737704918" y="-78.0"/>
      <point x="196.19672131147541" y="-6.557377049180328"/>
      <point x="328.5737704918033" y="88.1639344262295" type="curve" smooth="yes"/>
      <point x="414.0655737704918" y="149.29508196721312"/>
      <point x="478.4754098360656" y="203.29508196721312"/>
      <point x="510.4754098360656" y="246.29508196721312" type="curve" smooth="yes"/>
      <point x="525.360655737705" y="266.1803278688525"/>
      <point x="533.360655737705" y="283.7704918032787"/>
      <point x="533.360655737705" y="298.3606557377049" type="curve" smooth="yes"/>
      <point x="533.360655737705" y="314.3114754098361"/>
      <point x="527.9344262295082" y="332.016393442623"/>
      <point x="499.2295081967213" y="332.016393442623" type="curve" smooth="yes"/>
      <point x="485.75409836065575" y="332.016393442623"/>
      <point x="468.0983606557377" y="320.1311475409836"/>
      <point x="446.44262295081967" y="299.88524590163934" type="curve" smooth="yes"/>
      <point x="424.2622950819672" y="279.8196721311475"/>
      <point x="398.8524590163934" y="253.29508196721312"/>
      <point x="372.6885245901639" y="231.24590163934425" type="curve"/>
      <point x="344.9344262295082" y="234.8360655737705"/>
      <point x="324.4754098360656" y="250.72131147540983"/>
      <point x="324.4754098360656" y="279.0655737704918" type="curve" smooth="yes"/>
      <point x="324.4754098360656" y="304.0655737704918"/>
      <point x="333.88524590163934" y="319.4754098360656"/>
      <point x="344.4754098360656" y="330.0655737704918" type="curve" smooth="yes"/>
      <point x="363.0163934426229" y="348.0163934426229"/>
      <point x="374.2950819672131" y="358.24590163934425"/>
      <point x="374.2950819672131" y="371.4754098360656" type="curve" smooth="yes"/>
      <point x="374.2950819672131" y="398.3606557377049"/>
      <point x="352.59016393442624" y="409.42622950819674"/>
      <point x="327.04918032786884" y="409.42622950819674" type="curve" smooth="yes"/>
      <point x="309.75409836065575" y="409.42622950819674"/>
      <point x="291.6393442622951" y="403.0163934426229"/>
      <point x="276.6393442622951" y="391.9016393442623" type="curve" smooth="yes"/>
      <point x="244.68852459016392" y="368.9016393442623"/>
      <point x="222.21311475409834" y="327.24590163934425"/>
      <point x="222.21311475409834" y="282.0655737704918" type="curve" smooth="yes"/>
      <point x="222.21311475409834" y="229.65573770491804"/>
      <point x="249.91803278688525" y="189.95081967213116"/>
      <point x="290.0327868852459" y="170.47540983606558" type="curve"/>
      <point x="249.55737704918033" y="144.59016393442624"/>
      <point x="206.0983606557377" y="118.65573770491804"/>
      <point x="157.68852459016392" y="95.24590163934425" type="curve" smooth="yes"/>
      <point x="100.45901639344262" y="67.42622950819671"/>
      <point x="46.950819672131146" y="46.90163934426229"/>
      <point x="1.6065573770491803" y="40.196721311475414" type="curve" smooth="yes"/>
      <point x="-34.0" y="35.016393442622956"/>
      <point x="-59.0" y="14.42622950819672"/>
      <point x="-59.0" y="-17.049180327868854" type="curve" smooth="yes"/>
      <point x="-59.0" y="-54.114754098360656"/>
      <point x="-37.81967213114754" y="-78.0"/>
    </contour>
  </outline>
</glyph>
<glyph name="uni0786" format="2">
  <advance width="553.8360655737705"/>
  <unicode hex="0786"/>
  <outline>
    <contour>
      <point x="82.72131147540983" y="-10.0" type="curve" smooth="yes"/>
      <point x="135.80327868852459" y="-10.0"/>
      <point x="229.68852459016392" y="26.065573770491802"/>
      <point x="328.9344262295082" y="103.19672131147541" type="curve" smooth="yes"/>
      <point x="383.91803278688525" y="143.72131147540983"/>
      <point x="462.44262295081967" y="207.0327868852459"/>
      <point x="500.0655737704918" y="261.40983606557376" type="curve" smooth="yes"/>
      <point x="515.655737704918" y="283.59016393442624"/>
      <point x="523.9508196721312" y="303.88524590163934"/>
      <point x="523.9508196721312" y="320.4754098360656" type="curve" smooth="yes"/>
      <point x="523.9508196721312" y="347.24590163934425"/>
      <point x="512.0655737704918" y="365.42622950819674"/>
      <point x="483.11475409836066" y="365.42622950819674" type="curve" smooth="yes"/>
      <point x="457.9344262295082" y="365.42622950819674"/>
      <point x="436.57377049180326" y="349.8360655737705"/>
      <point x="418.8032786885246" y="322.1803278688525" type="curve" smooth="yes"/>
      <point x="395.73770491803276" y="286.6393442622951"/>
      <point x="318.37704918032784" y="193.22950819672133"/>
      <point x="236.98360655737704" y="143.18032786885246" type="curve" smooth="yes"/>
      <point x="220.34426229508196" y="132.65573770491804"/>
      <point x="201.40983606557376" y="123.24590163934427"/>
      <point x="184.36065573770492" y="117.54098360655738" type="curve"/>
      <point x="232.40983606557376" y="197.78688524590163"/>
      <point x="252.9016393442623" y="238.04918032786884"/>
      <point x="252.9016393442623" y="270.0655737704918" type="curve" smooth="yes"/>
      <point x="252.9016393442623" y="311.3606557377049"/>
      <point x="237.4918032786885" y="332.3114754098361"/>
      <point x="199.54098360655738" y="332.3114754098361" type="curve" smooth="yes"/>
      <point x="154.31147540983608" y="332.3114754098361"/>
      <point x="140.0" y="298.39344262295083"/>
      <point x="133.63934426229508" y="259.2295081967213" type="curve" smooth="yes"/>
      <point x="124.81967213114754" y="207.31147540983608"/>
      <point x="115.52459016393442" y="178.54098360655738"/>
      <point x="61.80327868852459" y="98.72131147540983" type="curve" smooth="yes"/>
      <point x="35.18032786885246" y="58.01639344262295"/>
      <point x="29.295081967213115" y="51.37704918032787"/>
      <point x="29.295081967213115" y="29.950819672131146" type="curve" smooth="yes"/>
      <point x="29.295081967213115" y="9.180327868852459"/>
      <point x="52.36065573770492" y="-10.0"/>
    </contour>
  </outline>
</glyph>
<glyph name="uni0787" format="2">
  <advance width="536.2459016393443"/>
  <unicode hex="0787"/>
  <outline>
    <contour>
      <point x="5.360655737704917" y="-10.0" type="curve" smooth="yes"/>
      <point x="37.01639344262295" y="-10.0"/>
      <point x="87.72131147540983" y="15.065573770491802"/>
      <point x="152.50819672131146" y="56.37704918032787" type="curve" smooth="yes"/>
      <point x="224.36065573770492" y="101.65573770491804"/>
      <point x="322.60655737704917" y="183.9672131147541"/>
      <point x="377.5081967213115" y="251.0983606557377" type="curve"/>
      <point x="373.983606557377" y="189.4918032786885"/>
      <point x="351.75409836065575" y="149.9672131147541"/>
      <point x="317.1803278688525" y="101.09836065573771" type="curve" smooth="yes"/>
      <point x="300.0" y="76.14754098360656"/>
      <point x="289.45901639344265" y="61.016393442622956"/>
      <point x="289.45901639344265" y="40.950819672131146" type="curve" smooth="yes"/>
      <point x="289.45901639344265" y="15.475409836065573"/>
      <point x="309.2295081967213" y="-0.7049180327868853"/>
      <point x="339.88524590163934" y="-0.7049180327868853" type="curve" smooth="yes"/>
      <point x="361.8360655737705" y="-0.7049180327868853"/>
      <point x="383.9016393442623" y="14.360655737704917"/>
      <point x="401.0983606557377" y="39.868852459016395" type="curve" smooth="yes"/>
      <point x="448.37704918032784" y="102.39344262295081"/>
      <point x="477.5409836065574" y="177.78688524590163"/>
      <point x="477.5409836065574" y="267.1803278688525" type="curve" smooth="yes"/>
      <point x="477.5409836065574" y="325.672131147541"/>
      <point x="460.11475409836066" y="365.42622950819674"/>
      <point x="407.8196721311475" y="365.42622950819674" type="curve" smooth="yes"/>
      <point x="365.7704918032787" y="365.42622950819674"/>
      <point x="321.8360655737705" y="324.0983606557377"/>
      <point x="293.6393442622951" y="293.3114754098361" type="curve" smooth="yes"/>
      <point x="239.54098360655738" y="235.21311475409837"/>
      <point x="180.31147540983608" y="188.80327868852459"/>
      <point x="110.73770491803279" y="152.5081967213115" type="curve" smooth="yes"/>
      <point x="72.78688524590164" y="132.2622950819672"/>
      <point x="32.540983606557376" y="115.90163934426229"/>
      <point x="-10.049180327868854" y="102.90163934426229" type="curve" smooth="yes"/>
      <point x="-41.114754098360656" y="93.31147540983606"/>
      <point x="-59.0" y="74.54098360655738"/>
      <point x="-59.0" y="44.36065573770492" type="curve" smooth="yes"/>
      <point x="-59.0" y="9.59016393442623"/>
      <point x="-37.114754098360656" y="-10.0"/>
    </contour>
  </outline>
</glyph>
<glyph name="uni0788" format="2">
  <advance width="543.9016393442623"/>
  <unicode hex="0788"/>
  <outline>
    <contour>
      <point x="7.131147540983605" y="-78.0" type="curve" smooth="yes"/>
      <point x="32.540983606557376" y="-78.0"/>
      <point x="117.14754098360655" y="-44.786885245901644"/>
      <point x="181.98360655737704" y="-3.6065573770491803" type="curve" smooth="yes"/>
      <point x="262.5245901639344" y="47.278688524590166"/>
      <point x="382.0983606557377" y="141.72131147540983"/>
      <point x="438.44262295081967" y="207.60655737704917" type="curve" smooth="yes"/>
      <point x="470.78688524590166" y="245.72131147540983"/>
      <point x="488.9016393442623" y="287.24590163934425"/>
      <point x="488.9016393442623" y="330.1803278688525" type="curve" smooth="yes"/>
      <point x="488.9016393442623" y="384.3606557377049"/>
      <point x="445.24590163934425" y="409.42622950819674"/>
      <point x="381.5245901639344" y="409.42622950819674" type="curve" smooth="yes"/>
      <point x="274.2295081967213" y="409.42622950819674"/>
      <point x="164.08196721311475" y="320.0655737704918"/>
      <point x="164.08196721311475" y="231.9344262295082" type="curve" smooth="yes"/>
      <point x="164.08196721311475" y="194.34426229508196"/>
      <point x="183.08196721311475" y="161.1639344262295"/>
      <point x="221.0327868852459" y="141.9344262295082" type="curve"/>
      <point x="191.70491803278688" y="123.36065573770492"/>
      <point x="149.55737704918033" y="100.08196721311475"/>
      <point x="108.88524590163934" y="80.80327868852459" type="curve" smooth="yes"/>
      <point x="66.21311475409836" y="60.37704918032787"/>
      <point x="21.950819672131146" y="43.721311475409834"/>
      <point x="-8.278688524590166" y="36.42622950819673" type="curve" smooth="yes"/>
      <point x="-40.63934426229508" y="27.950819672131146"/>
      <point x="-59.0" y="10.131147540983605"/>
      <point x="-59.0" y="-20.34426229508197" type="curve" smooth="yes"/>
      <point x="-59.0" y="-55.114754098360656"/>
      <point x="-36.81967213114754" y="-78.0"/>
    </contour>
    <contour>
      <point x="315.344262295082" y="207.18032786885246" type="curve"/>
      <point x="289.6393442622951" y="209.77049180327867"/>
      <point x="266.2295081967213" y="217.65573770491804"/>
      <point x="266.2295081967213" y="240.40983606557376" type="curve" smooth="yes"/>
      <point x="266.2295081967213" y="282.5245901639344"/>
      <point x="321.6393442622951" y="324.7049180327869"/>
      <point x="362.5245901639344" y="324.7049180327869" type="curve" smooth="yes"/>
      <point x="383.45901639344265" y="324.7049180327869"/>
      <point x="387.8688524590164" y="315.40983606557376"/>
      <point x="387.8688524590164" y="305.88524590163934" type="curve" smooth="yes"/>
      <point x="387.8688524590164" y="273.3606557377049"/>
      <point x="355.4754098360656" y="239.01639344262296"/>
    </contour>
  </outline>
</glyph>
<glyph name="uni0789" format="2">
  <advance width="518.8852459016393"/>
  <unicode hex="0789"/>
  <outline>
    <contour>
      <point x="26.42622950819672" y="-20.0" type="curve" smooth="yes"/>
      <point x="40.721311475409834" y="-20.0"/>
      <point x="65.8360655737705" y="-14.885245901639344"/>
      <point x="96.54098360655738" y="-4.885245901639345" type="curve" smooth="yes"/>
      <point x="135.18032786885246" y="7.524590163934426"/>
      <point x="180.11475409836066" y="26.639344262295083"/>
      <point x="219.77049180327867" y="48.81967213114754" type="curve" smooth="yes"/>
      <point x="290.1803278688525" y="87.9344262295082"/>
      <point x="395.2950819672131" y="159.40983606557376"/>
      <point x="446.7049180327869" y="227.45901639344262" type="curve" smooth="yes"/>
      <point x="469.3606557377049" y="257.11475409836066"/>
      <point x="479.88524590163934" y="284.59016393442624"/>
      <point x="479.88524590163934" y="310.1803278688525" type="curve" smooth="yes"/>
      <point x="479.88524590163934" y="376.11475409836066"/>
      <point x="395.1311475409836" y="395.1311475409836"/>
      <point x="299.45901639344265" y="395.1311475409836" type="curve" smooth="yes"/>
      <point x="240.86885245901638" y="395.1311475409836"/>
      <point x="195.75409836065575" y="390.1311475409836"/>
      <point x="164.34426229508196" y="380.8360655737705" type="curve" smooth="yes"/>
      <point x="121.9344262295082" y="368.54098360655735"/>
      <point x="102.70491803278688" y="348.655737704918"/>
      <point x="102.70491803278688" y="324.4754098360656" type="curve" smooth="yes"/>
      <point x="102.70491803278688" y="300.8196721311475"/>
      <point x="118.77049180327869" y="278.2295081967213"/>
      <point x="150.13114754098362" y="278.2295081967213" type="curve" smooth="yes"/>
      <point x="171.77049180327867" y="278.2295081967213"/>
      <point x="195.18032786885246" y="286.6393442622951"/>
      <point x="223.59016393442624" y="294.9344262295082" type="curve" smooth="yes"/>
      <point x="248.59016393442624" y="302.2295081967213"/>
      <point x="277.1803278688525" y="308.5245901639344"/>
      <point x="309.40983606557376" y="308.5245901639344" type="curve" smooth="yes"/>
      <point x="334.9344262295082" y="308.5245901639344"/>
      <point x="361.04918032786884" y="304.40983606557376"/>
      <point x="361.04918032786884" y="294.7049180327869" type="curve" smooth="yes"/>
      <point x="361.04918032786884" y="281.5245901639344"/>
      <point x="350.672131147541" y="262.983606557377"/>
      <point x="316.54098360655735" y="231.5081967213115" type="curve" smooth="yes"/>
      <point x="240.49180327868854" y="161.29508196721312"/>
      <point x="158.91803278688525" y="129.24590163934425"/>
      <point x="76.8360655737705" y="106.49180327868852" type="curve" smooth="yes"/>
      <point x="54.540983606557376" y="100.49180327868852"/>
      <point x="33.131147540983605" y="94.78688524590164"/>
      <point x="12.196721311475411" y="90.08196721311475" type="curve" smooth="yes"/>
      <point x="-21.934426229508198" y="81.90163934426229"/>
      <point x="-39.295081967213115" y="63.016393442622956"/>
      <point x="-39.295081967213115" y="32.950819672131146" type="curve" smooth="yes"/>
      <point x="-39.295081967213115" y="-2.114754098360656"/>
      <point x="-17.81967213114754" y="-20.0"/>
    </contour>
  </outline>
</glyph>
<glyph name="uni078B" format="2">
  <advance width="633.7049180327868"/>
  <unicode hex="078B"/>
  <outline>
    <contour>
      <point x="3.4262295081967196" y="-78.0" type="curve" smooth="yes"/>
      <point x="24.081967213114755" y="-78.0"/>
      <point x="76.88524590163934" y="-62.36065573770492"/>
      <point x="144.34426229508196" y="-14.426229508196721" type="curve" smooth="yes"/>
      <point x="213.55737704918033" y="35.131147540983605"/>
      <point x="254.04918032786884" y="72.91803278688525"/>
      <point x="316.5245901639344" y="146.98360655737704" type="curve"/>
      <point x="335.344262295082" y="143.98360655737704"/>
      <point x="352.04918032786884" y="143.27868852459017"/>
      <point x="365.45901639344265" y="143.27868852459017" type="curve" smooth="yes"/>
      <point x="479.3114754098361" y="143.27868852459017"/>
      <point x="583.360655737705" y="204.47540983606558"/>
      <point x="583.360655737705" y="307.7049180327869" type="curve" smooth="yes"/>
      <point x="583.360655737705" y="345.8688524590164"/>
      <point x="559.016393442623" y="378.04918032786884"/>
      <point x="541.0655737704918" y="385.40983606557376" type="curve"/>
      <point x="573.5245901639345" y="397.5245901639344"/>
      <point x="604.0" y="411.11475409836066"/>
      <point x="604.0" y="439.2950819672131" type="curve" smooth="yes"/>
      <point x="604.0" y="463.0655737704918"/>
      <point x="587.1147540983607" y="481.655737704918"/>
      <point x="561.9344262295082" y="481.655737704918" type="curve" smooth="yes"/>
      <point x="540.5245901639345" y="481.655737704918"/>
      <point x="524.7540983606557" y="465.9016393442623"/>
      <point x="499.75409836065575" y="454.1311475409836" type="curve" smooth="yes"/>
      <point x="462.9344262295082" y="437.3606557377049"/>
      <point x="404.0983606557377" y="438.24590163934425"/>
      <point x="404.0983606557377" y="391.2950819672131" type="curve" smooth="yes"/>
      <point x="404.0983606557377" y="372.0"/>
      <point x="418.6885245901639" y="361.344262295082"/>
      <point x="437.59016393442624" y="354.1639344262295" type="curve" smooth="yes"/>
      <point x="457.11475409836066" y="345.6393442622951"/>
      <point x="477.6885245901639" y="336.27868852459017"/>
      <point x="477.6885245901639" y="305.7049180327869" type="curve" smooth="yes"/>
      <point x="477.6885245901639" y="259.5245901639344"/>
      <point x="433.6393442622951" y="239.18032786885246"/>
      <point x="391.4590163934426" y="239.18032786885246" type="curve" smooth="yes"/>
      <point x="374.2295081967213" y="239.18032786885246"/>
      <point x="358.40983606557376" y="240.88524590163934"/>
      <point x="346.0" y="245.29508196721312" type="curve"/>
      <point x="337.8196721311475" y="271.24590163934425"/>
      <point x="313.6393442622951" y="299.1803278688525"/>
      <point x="277.40983606557376" y="299.1803278688525" type="curve" smooth="yes"/>
      <point x="238.8688524590164" y="299.1803278688525"/>
      <point x="208.5081967213115" y="271.88524590163934"/>
      <point x="208.5081967213115" y="231.45901639344262" type="curve" smooth="yes"/>
      <point x="208.5081967213115" y="214.04918032786884"/>
      <point x="215.91803278688525" y="196.52459016393442"/>
      <point x="227.91803278688525" y="184.9344262295082" type="curve"/>
      <point x="185.62295081967213" y="141.63934426229508"/>
      <point x="155.55737704918033" y="116.34426229508196"/>
      <point x="102.22950819672131" y="83.24590163934425" type="curve" smooth="yes"/>
      <point x="68.0" y="62.31147540983606"/>
      <point x="25.60655737704918" y="48.90163934426229"/>
      <point x="-10.918032786885249" y="37.49180327868852" type="curve" smooth="yes"/>
      <point x="-42.049180327868854" y="27.311475409836063"/>
      <point x="-59.0" y="8.721311475409834"/>
      <point x="-59.0" y="-18.34426229508197" type="curve" smooth="yes"/>
      <point x="-59.0" y="-56.114754098360656"/>
      <point x="-37.52459016393443" y="-78.0"/>
    </contour>
  </outline>
</glyph>
<glyph name="uni078D" format="2">
  <advance width="573.9344262295082"/>
  <unicode hex="078D"/>
  <outline>
    <contour>
      <point x="7.131147540983605" y="-78.0" type="curve" smooth="yes"/>
      <point x="30.311475409836063" y="-78.0"/>
      <point x="76.95081967213115" y="-63.0655737704918"/>
      <point x="150.91803278688525" y="-19.75409836065574" type="curve" smooth="yes"/>
      <point x="275.0" y="52.55737704918033"/>
      <point x="423.21311475409834" y="200.327868852459"/>
      <point x="491.08196721311475" y="277.08196721311475" type="curve" smooth="yes"/>
      <point x="514.1803278688525" y="303.3606557377049"/>
      <point x="525.2295081967213" y="319.59016393442624"/>
      <point x="525.2295081967213" y="339.344262295082" type="curve" smooth="yes"/>
      <point x="525.2295081967213" y="362.11475409836066"/>
      <point x="510.6393442622951" y="374.59016393442624"/>
      <point x="487.9836065573771" y="374.59016393442624" type="curve" smooth="yes"/>
      <point x="466.4590163934426" y="374.59016393442624"/>
      <point x="444.6393442622951" y="370.40983606557376"/>
      <point x="421.1639344262295" y="367.8196721311475" type="curve" smooth="yes"/>
      <point x="393.6393442622951" y="364.5245901639344"/>
      <point x="364.04918032786884" y="360.9344262295082"/>
      <point x="337.7049180327869" y="359.9344262295082" type="curve"/>
      <point x="362.11475409836066" y="375.344262295082"/>
      <point x="380.11475409836066" y="389.9344262295082"/>
      <point x="391.40983606557376" y="404.2295081967213" type="curve" smooth="yes"/>
      <point x="401.2950819672131" y="416.11475409836066"/>
      <point x="406.59016393442624" y="428.0"/>
      <point x="406.59016393442624" y="438.0" type="curve" smooth="yes"/>
      <point x="406.59016393442624" y="461.7704918032787"/>
      <point x="389.5245901639344" y="481.655737704918"/>
      <point x="364.1639344262295" y="481.655737704918" type="curve" smooth="yes"/>
      <point x="345.6885245901639" y="481.655737704918"/>
      <point x="329.21311475409834" y="474.3606557377049"/>
      <point x="316.62295081967216" y="459.4754098360656" type="curve" smooth="yes"/>
      <point x="288.62295081967216" y="427.4754098360656"/>
      <point x="261.9836065573771" y="400.4754098360656"/>
      <point x="225.75409836065575" y="375.3606557377049" type="curve" smooth="yes"/>
      <point x="209.0983606557377" y="363.59016393442624"/>
      <point x="199.44262295081967" y="348.5245901639344"/>
      <point x="199.44262295081967" y="331.9344262295082" type="curve" smooth="yes"/>
      <point x="199.44262295081967" y="299.1639344262295"/>
      <point x="231.91803278688525" y="276.6885245901639"/>
      <point x="289.8688524590164" y="276.6885245901639" type="curve" smooth="yes"/>
      <point x="322.62295081967216" y="276.6885245901639"/>
      <point x="354.6885245901639" y="277.983606557377"/>
      <point x="380.2622950819672" y="281.983606557377" type="curve"/>
      <point x="308.08196721311475" y="217.0327868852459"/>
      <point x="224.2622950819672" y="149.2622950819672"/>
      <point x="177.49180327868854" y="121.42622950819673" type="curve" smooth="yes"/>
      <point x="86.81967213114754" y="66.09836065573771"/>
      <point x="39.39344262295082" y="51.14754098360656"/>
      <point x="-8.278688524590164" y="38.196721311475414" type="curve" smooth="yes"/>
      <point x="-41.52459016393443" y="29.721311475409834"/>
      <point x="-59.295081967213115" y="11.426229508196727"/>
      <point x="-59.295081967213115" y="-18.34426229508197" type="curve" smooth="yes"/>
      <point x="-59.295081967213115" y="-54.114754098360656"/>
      <point x="-36.81967213114754" y="-78.0"/>
    </contour>
  </outline>
</glyph>
<glyph name="uni078F" format="2">
  <advance width="725.2459016393443"/>
  <unicode hex="078F"/>
  <outline>
    <contour>
      <point x="271.9016393442623" y="-156.0" type="curve" smooth="yes"/>
      <point x="341.39344262295083" y="-156.0"/>
      <point x="412.4918032786885" y="-147.59016393442624"/>
      <point x="447.4918032786885" y="-137.40983606557376" type="curve" smooth="yes"/>
      <point x="476.9016393442623" y="-128.81967213114754"/>
      <point x="494.8360655737705" y="-114.34426229508196"/>
      <point x="494.8360655737705" y="-92.63934426229508" type="curve" smooth="yes"/>
      <point x="494.8360655737705" y="-64.75409836065575"/>
      <point x="478.7704918032787" y="-50.278688524590166"/>
      <point x="454.7049180327869" y="-50.278688524590166" type="curve" smooth="yes"/>
      <point x="433.8196721311475" y="-50.278688524590166"/>
      <point x="415.2295081967213" y="-53.983606557377044"/>
      <point x="396.2295081967213" y="-55.983606557377044" type="curve" smooth="yes"/>
      <point x="369.75409836065575" y="-58.983606557377044"/>
      <point x="340.04918032786884" y="-62.68852459016394"/>
      <point x="277.9016393442623" y="-62.68852459016394" type="curve" smooth="yes"/>
      <point x="188.327868852459" y="-62.68852459016394"/>
      <point x="151.44262295081967" y="-38.459016393442624"/>
      <point x="151.44262295081967" y="6.655737704918032" type="curve" smooth="yes"/>
      <point x="151.44262295081967" y="75.40983606557377"/>
      <point x="223.04918032786884" y="144.75409836065575"/>
      <point x="288.11475409836066" y="185.52459016393442" type="curve"/>
      <point x="301.5245901639344" y="175.22950819672133"/>
      <point x="317.88524590163934" y="165.75409836065575"/>
      <point x="330.24590163934425" y="165.75409836065575" type="curve" smooth="yes"/>
      <point x="357.655737704918" y="165.75409836065575"/>
      <point x="390.7049180327869" y="182.34426229508196"/>
      <point x="421.9344262295082" y="226.5081967213115" type="curve"/>
      <point x="435.7049180327869" y="183.1639344262295"/>
      <point x="462.0327868852459" y="158.45901639344262"/>
      <point x="496.1639344262295" y="158.45901639344262" type="curve" smooth="yes"/>
      <point x="538.5901639344262" y="158.45901639344262"/>
      <point x="576.6065573770492" y="190.54098360655738"/>
      <point x="629.7377049180328" y="238.9672131147541" type="curve" smooth="yes"/>
      <point x="671.4918032786885" y="276.3114754098361"/>
      <point x="699.0655737704918" y="306.72131147540983"/>
      <point x="699.0655737704918" y="341.4754098360656" type="curve" smooth="yes"/>
      <point x="699.0655737704918" y="365.24590163934425"/>
      <point x="685.8852459016393" y="380.42622950819674"/>
      <point x="658.639344262295" y="380.42622950819674" type="curve" smooth="yes"/>
      <point x="638.9344262295082" y="380.42622950819674"/>
      <point x="624.0491803278688" y="376.1311475409836"/>
      <point x="610.1639344262295" y="363.42622950819674" type="curve" smooth="yes"/>
      <point x="599.5737704918033" y="353.72131147540983"/>
      <point x="591.8032786885246" y="341.1311475409836"/>
      <point x="576.2786885245902" y="316.9016393442623" type="curve" smooth="yes"/>
      <point x="554.5737704918033" y="282.0163934426229"/>
      <point x="525.1147540983607" y="252.65573770491804"/>
      <point x="514.2295081967213" y="252.65573770491804" type="curve" smooth="yes"/>
      <point x="502.11475409836066" y="252.65573770491804"/>
      <point x="492.7704918032787" y="301.62295081967216"/>
      <point x="489.7704918032787" y="336.0" type="curve" smooth="yes"/>
      <point x="488.0655737704918" y="353.2950819672131"/>
      <point x="478.0655737704918" y="365.42622950819674"/>
      <point x="459.04918032786884" y="365.42622950819674" type="curve" smooth="yes"/>
      <point x="450.27868852459017" y="365.42622950819674"/>
      <point x="439.6885245901639" y="355.3606557377049"/>
      <point x="428.6885245901639" y="343.4754098360656" type="curve" smooth="yes"/>
      <point x="399.08196721311475" y="311.62295081967216"/>
      <point x="373.0983606557377" y="282.0"/>
      <point x="354.2295081967213" y="282.0" type="curve" smooth="yes"/>
      <point x="343.2950819672131" y="282.0"/>
      <point x="328.95081967213116" y="307.8196721311475"/>
      <point x="313.0163934426229" y="334.344262295082" type="curve" smooth="yes"/>
      <point x="302.54098360655735" y="352.3606557377049"/>
      <point x="290.88524590163934" y="366.1311475409836"/>
      <point x="275.11475409836066" y="366.1311475409836" type="curve" smooth="yes"/>
      <point x="225.1639344262295" y="366.1311475409836"/>
      <point x="179.68852459016392" y="324.2950819672131"/>
      <point x="179.68852459016392" y="289.5245901639344" type="curve" smooth="yes"/>
      <point x="179.68852459016392" y="273.04918032786884"/>
      <point x="187.8688524590164" y="262.2295081967213"/>
      <point x="199.34426229508196" y="252.9344262295082" type="curve" smooth="yes"/>
      <point x="207.04918032786884" y="245.81967213114754"/>
      <point x="217.34426229508196" y="239.11475409836066"/>
      <point x="226.04918032786884" y="233.70491803278688" type="curve"/>
      <point x="142.62295081967213" y="182.75409836065575"/>
      <point x="49.0" y="92.47540983606558"/>
      <point x="49.0" y="-4.344262295081968" type="curve" smooth="yes"/>
      <point x="49.0" y="-91.1311475409836"/>
      <point x="110.85245901639344" y="-156.0"/>
    </contour>
  </outline>
</glyph>
<glyph name="uni0791" format="2">
  <advance width="393.8360655737705"/>
  <unicode hex="0791"/>
  <outline>
    <contour>
      <point x="252.11475409836066" y="-44.0" type="curve" smooth="yes"/>
      <point x="306.0" y="-44.0"/>
      <point x="325.5409836065574" y="-23.885245901639344"/>
      <point x="325.5409836065574" y="6.950819672131146" type="curve" smooth="yes"/>
      <point x="325.5409836065574" y="36.721311475409834"/>
      <point x="313.3606557377049" y="52.42622950819673"/>
      <point x="285.40983606557376" y="52.42622950819673" type="curve" smooth="yes"/>
      <point x="267.11475409836066" y="52.42622950819673"/>
      <point x="254.22950819672133" y="50.721311475409834"/>
      <point x="237.9344262295082" y="50.721311475409834" type="curve" smooth="yes"/>
      <point x="180.95081967213116" y="50.721311475409834"/>
      <point x="133.42622950819674" y="77.36065573770492"/>
      <point x="133.42622950819674" y="94.0655737704918" type="curve" smooth="yes"/>
      <point x="133.42622950819674" y="101.77049180327869"/>
      <point x="167.68852459016392" y="124.98360655737704"/>
      <point x="207.24590163934425" y="141.327868852459" type="curve" smooth="yes"/>
      <point x="254.49180327868854" y="162.75409836065575"/>
      <point x="275.42622950819674" y="179.327868852459"/>
      <point x="275.42622950819674" y="212.88524590163934" type="curve" smooth="yes"/>
      <point x="275.42622950819674" y="229.36065573770492"/>
      <point x="264.42622950819674" y="240.24590163934425"/>
      <point x="245.7704918032787" y="248.24590163934425" type="curve" smooth="yes"/>
      <point x="214.34426229508196" y="262.24590163934425"/>
      <point x="179.65573770491804" y="268.54098360655735"/>
      <point x="163.1311475409836" y="273.655737704918" type="curve"/>
      <point x="173.77049180327867" y="280.88524590163934"/>
      <point x="198.95081967213116" y="298.4754098360656"/>
      <point x="217.8360655737705" y="316.2950819672131" type="curve" smooth="yes"/>
      <point x="231.19672131147541" y="328.88524590163934"/>
      <point x="238.60655737704917" y="339.5245901639344"/>
      <point x="238.60655737704917" y="354.2950819672131" type="curve" smooth="yes"/>
      <point x="238.60655737704917" y="372.7704918032787"/>
      <point x="225.8360655737705" y="390.24590163934425"/>
      <point x="199.18032786885246" y="390.24590163934425" type="curve" smooth="yes"/>
      <point x="183.54098360655738" y="390.24590163934425"/>
      <point x="162.60655737704917" y="378.72131147540983"/>
      <point x="141.37704918032787" y="363.08196721311475" type="curve" smooth="yes"/>
      <point x="108.14754098360656" y="339.0327868852459"/>
      <point x="78.26229508196721" y="312.0327868852459"/>
      <point x="60.786885245901644" y="292.73770491803276" type="curve" smooth="yes"/>
      <point x="46.65573770491803" y="277.78688524590166"/>
      <point x="39.0" y="264.1475409836066"/>
      <point x="39.0" y="249.65573770491804" type="curve" smooth="yes"/>
      <point x="39.0" y="230.47540983606558"/>
      <point x="53.295081967213115" y="218.59016393442624"/>
      <point x="76.42622950819673" y="212.70491803278688" type="curve" smooth="yes"/>
      <point x="108.24590163934427" y="204.29508196721312"/>
      <point x="135.70491803278688" y="201.29508196721312"/>
      <point x="148.11475409836066" y="197.47540983606558" type="curve"/>
      <point x="106.55737704918033" y="177.11475409836066"/>
      <point x="24.0" y="149.34426229508196"/>
      <point x="24.0" y="80.95081967213115" type="curve" smooth="yes"/>
      <point x="24.0" y="5.540983606557376"/>
      <point x="161.70491803278688" y="-44.0"/>
    </contour>
  </outline>
</glyph>
<glyph name="uni0792" format="2">
  <advance width="571.7704918032787"/>
  <unicode hex="0792"/>
  <outline>
    <contour>
      <point x="263.7049180327869" y="-156.0" type="curve" smooth="yes"/>
      <point x="306.3114754098361" y="-156.0"/>
      <point x="347.4918032786885" y="-151.70491803278688"/>
      <point x="378.4918032786885" y="-143.52459016393442" type="curve" smooth="yes"/>
      <point x="411.9016393442623" y="-134.63934426229508"/>
      <point x="433.42622950819674" y="-119.34426229508196"/>
      <point x="433.42622950819674" y="-96.34426229508196" type="curve" smooth="yes"/>
      <point x="433.42622950819674" y="-69.39344262295081"/>
      <point x="418.1311475409836" y="-56.213114754098356"/>
      <point x="395.95081967213116" y="-56.213114754098356" type="curve" smooth="yes"/>
      <point x="378.1803278688525" y="-56.213114754098356"/>
      <point x="361.7049180327869" y="-58.09836065573771"/>
      <point x="346.11475409836066" y="-59.393442622950815" type="curve" smooth="yes"/>
      <point x="323.8196721311475" y="-60.98360655737705"/>
      <point x="300.2295081967213" y="-62.68852459016394"/>
      <point x="270.70491803278685" y="-62.68852459016394" type="curve" smooth="yes"/>
      <point x="195.40983606557376" y="-62.68852459016394"/>
      <point x="151.44262295081967" y="-49.393442622950815"/>
      <point x="151.44262295081967" y="-17.34426229508197" type="curve" smooth="yes"/>
      <point x="151.44262295081967" y="16.704918032786885"/>
      <point x="201.39344262295083" y="68.63934426229508"/>
      <point x="283.11475409836066" y="122.88524590163934" type="curve"/>
      <point x="304.2950819672131" y="110.59016393442623"/>
      <point x="328.0655737704918" y="100.0"/>
      <point x="350.8360655737705" y="93.70491803278688" type="curve" smooth="yes"/>
      <point x="369.655737704918" y="88.29508196721312"/>
      <point x="388.1803278688525" y="85.29508196721312"/>
      <point x="405.2950819672131" y="85.29508196721312" type="curve" smooth="yes"/>
      <point x="441.54098360655735" y="85.29508196721312"/>
      <point x="455.42622950819674" y="105.77049180327869"/>
      <point x="455.42622950819674" y="130.54098360655738" type="curve" smooth="yes"/>
      <point x="455.42622950819674" y="152.72131147540983"/>
      <point x="441.60655737704917" y="166.47540983606558"/>
      <point x="413.8360655737705" y="174.36065573770492" type="curve" smooth="yes"/>
      <point x="402.0163934426229" y="178.0655737704918"/>
      <point x="391.60655737704917" y="180.65573770491804"/>
      <point x="381.1967213114754" y="185.36065573770492" type="curve"/>
      <point x="422.4918032786885" y="209.95081967213116"/>
      <point x="455.1475409836066" y="230.8360655737705"/>
      <point x="499.3114754098361" y="250.0655737704918" type="curve" smooth="yes"/>
      <point x="537.1803278688525" y="266.2950819672131"/>
      <point x="547.0655737704918" y="280.4754098360656"/>
      <point x="547.0655737704918" y="306.655737704918" type="curve" smooth="yes"/>
      <point x="547.0655737704918" y="335.95081967213116"/>
      <point x="523.1803278688525" y="347.60655737704917"/>
      <point x="505.6393442622951" y="347.60655737704917" type="curve" smooth="yes"/>
      <point x="491.344262295082" y="347.60655737704917"/>
      <point x="465.6393442622951" y="337.9016393442623"/>
      <point x="434.45901639344265" y="323.3114754098361" type="curve" smooth="yes"/>
      <point x="395.9344262295082" y="304.9016393442623"/>
      <point x="349.11475409836066" y="278.08196721311475"/>
      <point x="303.6393442622951" y="250.19672131147541" type="curve"/>
      <point x="297.344262295082" y="256.08196721311475"/>
      <point x="285.2295081967213" y="267.08196721311475"/>
      <point x="278.5245901639344" y="274.4918032786885" type="curve" smooth="yes"/>
      <point x="266.2295081967213" y="288.9016393442623"/>
      <point x="257.5245901639344" y="297.60655737704917"/>
      <point x="234.22950819672133" y="297.60655737704917" type="curve" smooth="yes"/>
      <point x="204.81967213114754" y="297.60655737704917"/>
      <point x="184.27868852459017" y="266.0163934426229"/>
      <point x="184.27868852459017" y="240.54098360655738" type="curve" smooth="yes"/>
      <point x="184.27868852459017" y="220.47540983606558"/>
      <point x="193.34426229508196" y="203.36065573770492"/>
      <point x="206.9344262295082" y="185.77049180327867" type="curve"/>
      <point x="124.8688524590164" y="130.40983606557376"/>
      <point x="49.295081967213115" y="66.47540983606558"/>
      <point x="49.295081967213115" y="-30.049180327868854" type="curve" smooth="yes"/>
      <point x="49.295081967213115" y="-94.36065573770492"/>
      <point x="109.24590163934425" y="-156.0"/>
    </contour>
  </outline>
</glyph>
<glyph name="uni0793" format="2">
  <advance width="674.5409836065573"/>
  <unicode hex="0793"/>
  <outline>
    <contour>
      <point x="280.0163934426229" y="-156.0" type="curve" smooth="yes"/>
      <point x="337.327868852459" y="-156.0"/>
      <point x="412.88524590163934" y="-151.0"/>
      <point x="457.6393442622951" y="-133.65573770491804" type="curve" smooth="yes"/>
      <point x="489.24590163934425" y="-122.0655737704918"/>
      <point x="506.3114754098361" y="-106.0"/>
      <point x="506.3114754098361" y="-83.63934426229508" type="curve" smooth="yes"/>
      <point x="506.3114754098361" y="-58.278688524590166"/>
      <point x="490.24590163934425" y="-46.68852459016394"/>
      <point x="465.88524590163934" y="-46.68852459016394" type="curve" smooth="yes"/>
      <point x="453.0983606557377" y="-46.68852459016394"/>
      <point x="444.5081967213115" y="-49.278688524590166"/>
      <point x="424.21311475409834" y="-53.278688524590166" type="curve" smooth="yes"/>
      <point x="399.9836065573771" y="-57.983606557377044"/>
      <point x="359.40983606557376" y="-62.68852459016394"/>
      <point x="279.42622950819674" y="-62.68852459016394" type="curve" smooth="yes"/>
      <point x="181.91803278688525" y="-62.68852459016394"/>
      <point x="149.672131147541" y="-42.754098360655746"/>
      <point x="149.672131147541" y="8.065573770491802" type="curve" smooth="yes"/>
      <point x="149.672131147541" y="43.278688524590166"/>
      <point x="186.22950819672133" y="73.27868852459017"/>
      <point x="257.1803278688525" y="108.34426229508196" type="curve"/>
      <point x="282.88524590163934" y="104.34426229508196"/>
      <point x="311.11475409836066" y="102.04918032786885"/>
      <point x="344.8196721311475" y="102.04918032786885" type="curve" smooth="yes"/>
      <point x="492.75409836065575" y="102.04918032786885"/>
      <point x="645.5409836065573" y="179.45901639344262"/>
      <point x="645.5409836065573" y="287.59016393442624" type="curve" smooth="yes"/>
      <point x="645.5409836065573" y="345.24590163934425"/>
      <point x="608.7049180327868" y="383.95081967213116"/>
      <point x="535.344262295082" y="383.95081967213116" type="curve" smooth="yes"/>
      <point x="474.40983606557376" y="383.95081967213116"/>
      <point x="425.1803278688525" y="358.9016393442623"/>
      <point x="380.11475409836066" y="323.0163934426229" type="curve"/>
      <point x="344.88524590163934" y="355.4754098360656"/>
      <point x="295.54098360655735" y="367.54098360655735"/>
      <point x="266.5245901639344" y="367.54098360655735" type="curve" smooth="yes"/>
      <point x="155.11475409836066" y="367.54098360655735"/>
      <point x="97.80327868852459" y="297.5409836065574"/>
      <point x="97.80327868852459" y="238.0" type="curve" smooth="yes"/>
      <point x="97.80327868852459" y="196.04918032786884"/>
      <point x="119.22950819672131" y="161.75409836065575"/>
      <point x="158.98360655737704" y="139.70491803278688" type="curve"/>
      <point x="85.65573770491804" y="92.31147540983606"/>
      <point x="47.52459016393443" y="50.08196721311475"/>
      <point x="47.52459016393443" y="-13.344262295081968" type="curve" smooth="yes"/>
      <point x="47.52459016393443" y="-98.36065573770492"/>
      <point x="118.78688524590164" y="-156.0"/>
    </contour>
    <contour>
      <point x="246.39344262295083" y="193.29508196721312" type="curve"/>
      <point x="210.63934426229508" y="201.29508196721312"/>
      <point x="194.81967213114754" y="216.29508196721312"/>
      <point x="194.81967213114754" y="237.70491803278688" type="curve" smooth="yes"/>
      <point x="194.81967213114754" y="254.95081967213116"/>
      <point x="209.47540983606558" y="284.0"/>
      <point x="261.45901639344265" y="284.0" type="curve" smooth="yes"/>
      <point x="285.0983606557377" y="284.0"/>
      <point x="300.27868852459017" y="275.7049180327869"/>
      <point x="314.0983606557377" y="261.59016393442624" type="curve"/>
      <point x="289.8032786885246" y="238.0"/>
      <point x="263.1475409836066" y="211.1639344262295"/>
    </contour>
    <contour>
      <point x="354.04918032786884" y="184.81967213114754" type="curve"/>
      <point x="405.344262295082" y="238.70491803278688"/>
      <point x="465.0" y="300.88524590163934"/>
      <point x="513.344262295082" y="300.88524590163934" type="curve" smooth="yes"/>
      <point x="536.2786885245902" y="300.88524590163934"/>
      <point x="543.983606557377" y="288.7704918032787"/>
      <point x="543.983606557377" y="280.0655737704918" type="curve" smooth="yes"/>
      <point x="543.983606557377" y="234.0983606557377"/>
      <point x="452.9016393442623" y="189.11475409836066"/>
    </contour>
  </outline>
</glyph>
<glyph name="uni0794" format="2">
  <advance width="730.0655737704918"/>
  <unicode hex="0794"/>
  <outline>
    <contour>
      <point x="7.42622950819672" y="-78.0" type="curve" smooth="yes"/>
      <point x="30.721311475409834" y="-78.0"/>
      <point x="79.29508196721312" y="-63.47540983606557"/>
      <point x="154.08196721311475" y="-21.44262295081967" type="curve" smooth="yes"/>
      <point x="247.98360655737704" y="30.147540983606557"/>
      <point x="340.1803278688525" y="127.22950819672131"/>
      <point x="422.9344262295082" y="220.22950819672133" type="curve"/>
      <point x="472.9836065573771" y="225.2295081967213"/>
      <point x="515.2786885245902" y="239.75409836065575"/>
      <point x="560.6229508196722" y="258.57377049180326" type="curve"/>
      <point x="551.672131147541" y="197.8688524590164"/>
      <point x="502.9836065573771" y="143.95081967213116"/>
      <point x="480.0327868852459" y="114.18032786885246" type="curve" smooth="yes"/>
      <point x="469.44262295081967" y="100.18032786885246"/>
      <point x="458.91803278688525" y="89.52459016393442"/>
      <point x="458.91803278688525" y="65.0" type="curve" smooth="yes"/>
      <point x="458.91803278688525" y="40.22950819672131"/>
      <point x="478.6885245901639" y="23.34426229508197"/>
      <point x="509.344262295082" y="23.34426229508197" type="curve" smooth="yes"/>
      <point x="531.2950819672132" y="23.34426229508197"/>
      <point x="554.360655737705" y="39.81967213114754"/>
      <point x="569.7868852459017" y="60.90163934426229" type="curve" smooth="yes"/>
      <point x="621.7868852459017" y="128.44262295081967"/>
      <point x="667.0655737704918" y="222.31147540983608"/>
      <point x="667.0655737704918" y="311.1803278688525" type="curve" smooth="yes"/>
      <point x="667.0655737704918" y="370.08196721311475"/>
      <point x="658.2295081967213" y="395.1311475409836"/>
      <point x="627.7049180327868" y="395.1311475409836" type="curve" smooth="yes"/>
      <point x="612.2950819672132" y="395.1311475409836"/>
      <point x="596.4098360655738" y="387.60655737704917"/>
      <point x="578.2950819672132" y="376.1967213114754" type="curve" smooth="yes"/>
      <point x="540.6229508196722" y="353.0655737704918"/>
      <point x="505.0983606557377" y="331.95081967213116"/>
      <point x="450.70491803278685" y="326.24590163934425" type="curve"/>
      <point x="432.11475409836066" y="357.8360655737705"/>
      <point x="403.59016393442624" y="380.4262295081967"/>
      <point x="362.8196721311475" y="380.4262295081967" type="curve" smooth="yes"/>
      <point x="303.1639344262295" y="380.4262295081967"/>
      <point x="270.39344262295083" y="338.95081967213116"/>
      <point x="270.39344262295083" y="294.1803278688525" type="curve" smooth="yes"/>
      <point x="270.39344262295083" y="267.1803278688525"/>
      <point x="287.0327868852459" y="244.18032786885246"/>
      <point x="317.44262295081967" y="231.0" type="curve"/>
      <point x="261.3114754098361" y="172.1639344262295"/>
      <point x="195.19672131147541" y="120.22950819672131"/>
      <point x="115.21311475409837" y="82.47540983606558" type="curve" smooth="yes"/>
      <point x="77.1639344262295" y="64.24590163934427"/>
      <point x="37.0" y="50.721311475409834"/>
      <point x="-8.278688524590164" y="39.90163934426229" type="curve" smooth="yes"/>
      <point x="-41.22950819672131" y="32.31147540983606"/>
      <point x="-59.0" y="12.131147540983605"/>
      <point x="-59.0" y="-18.34426229508197" type="curve" smooth="yes"/>
      <point x="-59.0" y="-54.114754098360656"/>
      <point x="-36.52459016393443" y="-78.0"/>
    </contour>
  </outline>
</glyph>
<glyph name="uni0795" format="2">
  <advance width="451.655737704918"/>
  <unicode hex="0795"/>
  <outline>
    <contour>
      <point x="6.83606557377049" y="-78.29508196721312" type="curve" smooth="yes"/>
      <point x="30.196721311475407" y="-78.29508196721312"/>
      <point x="90.65573770491804" y="-56.47540983606557"/>
      <point x="151.47540983606558" y="-21.065573770491802" type="curve" smooth="yes"/>
      <point x="218.7377049180328" y="18.24590163934426"/>
      <point x="367.88524590163934" y="115.81967213114754"/>
      <point x="367.88524590163934" y="180.59016393442624" type="curve" smooth="yes"/>
      <point x="367.88524590163934" y="203.18032786885246"/>
      <point x="354.2950819672131" y="211.77049180327867"/>
      <point x="331.0" y="223.18032786885246" type="curve"/>
      <point x="345.04918032786884" y="230.11475409836066"/>
      <point x="361.57377049180326" y="239.2295081967213"/>
      <point x="378.344262295082" y="251.52459016393442" type="curve" smooth="yes"/>
      <point x="405.40983606557376" y="270.5245901639344"/>
      <point x="426.1803278688525" y="293.40983606557376"/>
      <point x="426.1803278688525" y="321.88524590163934" type="curve" smooth="yes"/>
      <point x="426.1803278688525" y="352.2950819672131"/>
      <point x="389.59016393442624" y="362.88524590163934"/>
      <point x="346.88524590163934" y="374.59016393442624" type="curve"/>
      <point x="363.75409836065575" y="382.8196721311475"/>
      <point x="380.9344262295082" y="393.5245901639344"/>
      <point x="395.0" y="403.40983606557376" type="curve" smooth="yes"/>
      <point x="410.2950819672131" y="414.8196721311475"/>
      <point x="420.655737704918" y="427.5245901639344"/>
      <point x="420.655737704918" y="439.0" type="curve" smooth="yes"/>
      <point x="420.655737704918" y="462.7704918032787"/>
      <point x="401.59016393442624" y="481.655737704918"/>
      <point x="378.2295081967213" y="481.655737704918" type="curve" smooth="yes"/>
      <point x="352.04918032786884" y="481.655737704918"/>
      <point x="333.8524590163934" y="457.7049180327869"/>
      <point x="294.57377049180326" y="433.24590163934425" type="curve" smooth="yes"/>
      <point x="250.36065573770492" y="405.9672131147541"/>
      <point x="217.68852459016392" y="398.3606557377049"/>
      <point x="217.68852459016392" y="367.0655737704918" type="curve" smooth="yes"/>
      <point x="217.68852459016392" y="347.4754098360656"/>
      <point x="231.52459016393442" y="337.88524590163934"/>
      <point x="252.11475409836066" y="330.59016393442624" type="curve" smooth="yes"/>
      <point x="288.8032786885246" y="317.3606557377049"/>
      <point x="312.04918032786884" y="317.7049180327869"/>
      <point x="312.04918032786884" y="307.4754098360656" type="curve" smooth="yes"/>
      <point x="312.04918032786884" y="299.88524590163934"/>
      <point x="289.1639344262295" y="291.655737704918"/>
      <point x="260.0327868852459" y="278.1803278688525" type="curve" smooth="yes"/>
      <point x="224.31147540983608" y="261.40983606557376"/>
      <point x="194.7377049180328" y="244.29508196721312"/>
      <point x="194.7377049180328" y="222.88524590163934" type="curve" smooth="yes"/>
      <point x="194.7377049180328" y="206.36065573770492"/>
      <point x="203.7377049180328" y="196.0655737704918"/>
      <point x="214.327868852459" y="188.18032786885246" type="curve" smooth="yes"/>
      <point x="227.44262295081967" y="178.47540983606558"/>
      <point x="246.21311475409834" y="172.70491803278688"/>
      <point x="252.40983606557376" y="166.18032786885246" type="curve" smooth="yes"/>
      <point x="252.40983606557376" y="141.18032786885246"/>
      <point x="204.21311475409837" y="109.88524590163934"/>
      <point x="122.40983606557377" y="76.42622950819673" type="curve" smooth="yes"/>
      <point x="84.88524590163934" y="61.31147540983606"/>
      <point x="47.77049180327869" y="52.31147540983606"/>
      <point x="5.377049180327866" y="42.08196721311475" type="curve" smooth="yes"/>
      <point x="-31.0" y="33.606557377049185"/>
      <point x="-59.0" y="11.540983606557376"/>
      <point x="-59.0" y="-18.639344262295083" type="curve" smooth="yes"/>
      <point x="-59.0" y="-54.40983606557377"/>
      <point x="-37.114754098360656" y="-78.29508196721312"/>
    </contour>
    <contour>
      <point x="249.70491803278688" y="-155.4262295081967" type="curve" smooth="yes"/>
      <point x="279.0655737704918" y="-155.4262295081967"/>
      <point x="308.42622950819674" y="-131.65573770491804"/>
      <point x="308.42622950819674" y="-97.70491803278688" type="curve" smooth="yes"/>
      <point x="308.42622950819674" y="-68.34426229508196"/>
      <point x="285.655737704918" y="-45.57377049180327"/>
      <point x="256.2950819672131" y="-45.57377049180327" type="curve" smooth="yes"/>
      <point x="225.63934426229508" y="-45.57377049180327"/>
      <point x="198.5737704918033" y="-70.63934426229508"/>
      <point x="198.5737704918033" y="-104.29508196721312" type="curve" smooth="yes"/>
      <point x="198.5737704918033" y="-133.65573770491804"/>
      <point x="219.34426229508196" y="-155.4262295081967"/>
    </contour>
  </outline>
</glyph>
<glyph name="uni0796" format="2">
  <advance width="586.2459016393443"/>
  <unicode hex="0796"/>
  <outline>
    <contour>
      <point x="268.8360655737705" y="-156.0" type="curve" smooth="yes"/>
      <point x="323.8032786885246" y="-156.0"/>
      <point x="392.4918032786885" y="-152.11475409836066"/>
      <point x="439.655737704918" y="-136.59016393442624" type="curve" smooth="yes"/>
      <point x="474.3114754098361" y="-125.0"/>
      <point x="495.72131147540983" y="-108.22950819672131"/>
      <point x="495.72131147540983" y="-83.63934426229508" type="curve" smooth="yes"/>
      <point x="495.72131147540983" y="-58.278688524590166"/>
      <point x="477.88524590163934" y="-45.803278688524586"/>
      <point x="455.88524590163934" y="-45.803278688524586" type="curve" smooth="yes"/>
      <point x="447.75409836065575" y="-45.803278688524586"/>
      <point x="428.1639344262295" y="-50.393442622950815"/>
      <point x="407.2295081967213" y="-54.09836065573771" type="curve" smooth="yes"/>
      <point x="382.11475409836066" y="-58.09836065573771"/>
      <point x="344.2950819672131" y="-62.68852459016394"/>
      <point x="268.8360655737705" y="-62.68852459016394" type="curve" smooth="yes"/>
      <point x="170.7377049180328" y="-62.68852459016394"/>
      <point x="140.14754098360658" y="-41.868852459016395"/>
      <point x="140.14754098360658" y="8.950819672131146" type="curve" smooth="yes"/>
      <point x="140.14754098360658" y="41.885245901639344"/>
      <point x="170.37704918032787" y="68.0"/>
      <point x="211.22950819672133" y="90.8688524590164" type="curve"/>
      <point x="237.27868852459017" y="85.75409836065575"/>
      <point x="264.0983606557377" y="85.1639344262295"/>
      <point x="280.6393442622951" y="85.1639344262295" type="curve" smooth="yes"/>
      <point x="392.8360655737705" y="85.1639344262295"/>
      <point x="499.24590163934425" y="146.0655737704918"/>
      <point x="499.24590163934425" y="249.29508196721312" type="curve" smooth="yes"/>
      <point x="499.24590163934425" y="286.8688524590164"/>
      <point x="475.37704918032784" y="318.45901639344265"/>
      <point x="456.655737704918" y="325.5245901639344" type="curve"/>
      <point x="494.0163934426229" y="337.6393442622951"/>
      <point x="522.2459016393443" y="353.59016393442624"/>
      <point x="522.2459016393443" y="379.40983606557376" type="curve" smooth="yes"/>
      <point x="522.2459016393443" y="403.1803278688525"/>
      <point x="503.7704918032787" y="421.3606557377049"/>
      <point x="478.11475409836066" y="421.3606557377049" type="curve" smooth="yes"/>
      <point x="457.1803278688525" y="421.3606557377049"/>
      <point x="444.95081967213116" y="405.42622950819674"/>
      <point x="403.40983606557376" y="388.0655737704918" type="curve" smooth="yes"/>
      <point x="359.7704918032787" y="370.3606557377049"/>
      <point x="320.75409836065575" y="369.0655737704918"/>
      <point x="320.75409836065575" y="331.11475409836066" type="curve" smooth="yes"/>
      <point x="320.75409836065575" y="308.6393442622951"/>
      <point x="333.57377049180326" y="301.6393442622951"/>
      <point x="357.9344262295082" y="290.04918032786884" type="curve" smooth="yes"/>
      <point x="378.11475409836066" y="280.75409836065575"/>
      <point x="393.27868852459017" y="275.57377049180326"/>
      <point x="393.27868852459017" y="247.29508196721312" type="curve" smooth="yes"/>
      <point x="393.27868852459017" y="203.77049180327867"/>
      <point x="346.8688524590164" y="181.0655737704918"/>
      <point x="307.6393442622951" y="181.0655737704918" type="curve" smooth="yes"/>
      <point x="290.8196721311475" y="181.0655737704918"/>
      <point x="272.04918032786884" y="183.0655737704918"/>
      <point x="258.2295081967213" y="187.18032786885246" type="curve"/>
      <point x="251.04918032786884" y="212.8360655737705"/>
      <point x="230.75409836065575" y="242.24590163934425"/>
      <point x="197.21311475409837" y="242.24590163934425" type="curve" smooth="yes"/>
      <point x="165.44262295081967" y="242.24590163934425"/>
      <point x="122.62295081967213" y="225.52459016393442"/>
      <point x="122.62295081967213" y="170.0" type="curve" smooth="yes"/>
      <point x="122.62295081967213" y="155.88524590163934"/>
      <point x="127.50819672131148" y="141.40983606557376"/>
      <point x="136.68852459016392" y="131.40983606557376" type="curve"/>
      <point x="72.36065573770492" y="87.90163934426229"/>
      <point x="39.295081967213115" y="42.65573770491803"/>
      <point x="39.295081967213115" y="-13.344262295081968" type="curve" smooth="yes"/>
      <point x="39.295081967213115" y="-98.36065573770492"/>
      <point x="107.60655737704919" y="-156.0"/>
    </contour>
  </outline>
</glyph>
<glyph name="uni0797" format="2">
  <advance width="644.5245901639345"/>
  <unicode hex="0797"/>
  <outline>
    <contour>
      <point x="17.131147540983605" y="-156.59016393442624" type="curve" smooth="yes"/>
      <point x="39.131147540983605" y="-156.59016393442624"/>
      <point x="82.52459016393442" y="-139.95081967213116"/>
      <point x="138.91803278688525" y="-102.67213114754098" type="curve" smooth="yes"/>
      <point x="192.37704918032787" y="-67.70491803278688"/>
      <point x="229.36065573770492" y="-21.475409836065573"/>
      <point x="229.36065573770492" y="22.40983606557377" type="curve" smooth="yes"/>
      <point x="229.36065573770492" y="41.40983606557377"/>
      <point x="218.0655737704918" y="59.18032786885246"/>
      <point x="203.70491803278688" y="72.95081967213115" type="curve" smooth="yes"/>
      <point x="189.70491803278688" y="87.0655737704918"/>
      <point x="177.36065573770492" y="96.47540983606558"/>
      <point x="177.36065573770492" y="103.0" type="curve" smooth="yes"/>
      <point x="177.36065573770492" y="112.04918032786885"/>
      <point x="192.65573770491804" y="125.52459016393442"/>
      <point x="210.88524590163934" y="139.34426229508196" type="curve"/>
      <point x="239.0655737704918" y="85.40983606557377"/>
      <point x="288.655737704918" y="60.295081967213115"/>
      <point x="355.655737704918" y="60.295081967213115" type="curve" smooth="yes"/>
      <point x="423.7377049180328" y="60.295081967213115"/>
      <point x="517.5573770491803" y="110.19672131147541"/>
      <point x="517.5573770491803" y="196.54098360655738" type="curve" smooth="yes"/>
      <point x="517.5573770491803" y="254.29508196721312"/>
      <point x="483.8032786885246" y="297.4754098360656"/>
      <point x="434.8032786885246" y="309.72131147540983" type="curve"/>
      <point x="513.5245901639345" y="357.75409836065575"/>
      <point x="612.0491803278688" y="414.8688524590164"/>
      <point x="646.2295081967213" y="436.8196721311475" type="curve" smooth="yes"/>
      <point x="677.4098360655738" y="456.4754098360656"/>
      <point x="690.639344262295" y="472.59016393442624"/>
      <point x="690.639344262295" y="487.40983606557376" type="curve" smooth="yes"/>
      <point x="690.639344262295" y="516.2295081967213"/>
      <point x="669.4754098360655" y="524.1803278688525"/>
      <point x="651.0491803278688" y="524.1803278688525" type="curve" smooth="yes"/>
      <point x="637.4590163934427" y="524.1803278688525"/>
      <point x="621.0491803278688" y="521.4754098360655"/>
      <point x="602.9344262295082" y="511.95081967213116" type="curve" smooth="yes"/>
      <point x="539.0655737704918" y="478.8524590163934"/>
      <point x="459.4918032786885" y="428.8524590163934"/>
      <point x="363.44262295081967" y="363.2295081967213" type="curve" smooth="yes"/>
      <point x="191.37704918032787" y="246.47540983606558"/>
      <point x="73.27868852459017" y="144.39344262295083"/>
      <point x="73.27868852459017" y="92.70491803278688" type="curve" smooth="yes"/>
      <point x="73.27868852459017" y="80.0"/>
      <point x="85.1639344262295" y="66.40983606557377"/>
      <point x="98.63934426229508" y="52.63934426229508" type="curve" smooth="yes"/>
      <point x="110.63934426229508" y="40.63934426229508"/>
      <point x="119.75409836065575" y="30.229508196721312"/>
      <point x="119.75409836065575" y="21.704918032786885" type="curve" smooth="yes"/>
      <point x="119.75409836065575" y="-7.639344262295083"/>
      <point x="55.31147540983606" y="-28.393442622950815"/>
      <point x="2.721311475409836" y="-43.09836065573771" type="curve" smooth="yes"/>
      <point x="-30.81967213114754" y="-52.68852459016394"/>
      <point x="-49.0" y="-71.45901639344262"/>
      <point x="-49.0" y="-101.9344262295082" type="curve" smooth="yes"/>
      <point x="-49.0" y="-137.40983606557376"/>
      <point x="-26.524590163934427" y="-156.59016393442624"/>
    </contour>
    <contour>
      <point x="353.40983606557376" y="148.31147540983608" type="curve" smooth="yes"/>
      <point x="315.2950819672131" y="148.31147540983608"/>
      <point x="298.40983606557376" y="169.8360655737705"/>
      <point x="290.11475409836066" y="200.72131147540983" type="curve"/>
      <point x="319.2950819672131" y="227.31147540983608"/>
      <point x="346.59016393442624" y="240.31147540983608"/>
      <point x="370.2950819672131" y="240.31147540983608" type="curve" smooth="yes"/>
      <point x="401.0" y="240.31147540983608"/>
      <point x="415.40983606557376" y="223.60655737704917"/>
      <point x="415.40983606557376" y="201.60655737704917" type="curve" smooth="yes"/>
      <point x="415.40983606557376" y="169.19672131147541"/>
      <point x="386.0" y="148.31147540983608"/>
    </contour>
  </outline>
</glyph>
<glyph name="uni0798" format="2">
  <advance width="629.5081967213115"/>
  <unicode hex="0798"/>
  <outline>
    <contour>
      <point x="73.1639344262295" y="-44.0" type="curve" smooth="yes"/>
      <point x="161.0655737704918" y="-44.0"/>
      <point x="276.9836065573771" y="5.590163934426229"/>
      <point x="276.9836065573771" y="80.70491803278688" type="curve" smooth="yes"/>
      <point x="276.9836065573771" y="105.11475409836066"/>
      <point x="261.6885245901639" y="123.81967213114754"/>
      <point x="244.62295081967213" y="140.29508196721312" type="curve" smooth="yes"/>
      <point x="229.7377049180328" y="154.88524590163934"/>
      <point x="217.327868852459" y="165.18032786885246"/>
      <point x="217.327868852459" y="171.0" type="curve" smooth="yes"/>
      <point x="217.327868852459" y="179.81967213114754"/>
      <point x="234.44262295081967" y="194.0"/>
      <point x="252.78688524590163" y="206.81967213114754" type="curve"/>
      <point x="291.4754098360656" y="169.47540983606558"/>
      <point x="351.54098360655735" y="150.63934426229508"/>
      <point x="392.1475409836066" y="150.63934426229508" type="curve" smooth="yes"/>
      <point x="472.39344262295083" y="150.63934426229508"/>
      <point x="567.3934426229508" y="205.88524590163934"/>
      <point x="567.3934426229508" y="301.4754098360656" type="curve" smooth="yes"/>
      <point x="567.3934426229508" y="360.54098360655735"/>
      <point x="534.1967213114754" y="395.1311475409836"/>
      <point x="470.24590163934425" y="395.1311475409836" type="curve" smooth="yes"/>
      <point x="347.9672131147541" y="395.1311475409836"/>
      <point x="115.37704918032787" y="251.327868852459"/>
      <point x="115.37704918032787" y="154.54098360655738" type="curve" smooth="yes"/>
      <point x="115.37704918032787" y="141.13114754098362"/>
      <point x="129.4262295081967" y="129.65573770491804"/>
      <point x="147.08196721311475" y="117.18032786885246" type="curve" smooth="yes"/>
      <point x="160.37704918032787" y="107.18032786885246"/>
      <point x="171.08196721311475" y="98.18032786885246"/>
      <point x="171.08196721311475" y="86.95081967213115" type="curve" smooth="yes"/>
      <point x="171.08196721311475" y="60.01639344262295"/>
      <point x="131.5737704918033" y="48.31147540983606"/>
      <point x="76.1639344262295" y="48.31147540983606" type="curve" smooth="yes"/>
      <point x="62.983606557377044" y="48.31147540983606"/>
      <point x="46.16393442622951" y="51.90163934426229"/>
      <point x="32.98360655737705" y="55.90163934426229" type="curve" smooth="yes"/>
      <point x="22.278688524590166" y="59.606557377049185"/>
      <point x="11.983606557377044" y="62.31147540983606"/>
      <point x="-1.131147540983605" y="62.31147540983606" type="curve" smooth="yes"/>
      <point x="-33.37704918032787" y="62.31147540983606"/>
      <point x="-46.55737704918033" y="42.721311475409834"/>
      <point x="-46.55737704918033" y="12.950819672131146" type="curve" smooth="yes"/>
      <point x="-46.55737704918033" y="-8.0"/>
      <point x="-31.606557377049178" y="-23.770491803278688"/>
      <point x="-6.8196721311475414" y="-32.0655737704918" type="curve" smooth="yes"/>
      <point x="15.0" y="-40.295081967213115"/>
      <point x="43.63934426229508" y="-44.0"/>
    </contour>
    <contour>
      <point x="389.4754098360656" y="237.18032786885246" type="curve" smooth="yes"/>
      <point x="365.655737704918" y="237.18032786885246"/>
      <point x="344.1803278688525" y="245.59016393442624"/>
      <point x="325.7049180327869" y="259.4754098360656" type="curve"/>
      <point x="371.27868852459017" y="286.11475409836066"/>
      <point x="426.1639344262295" y="311.4754098360656"/>
      <point x="449.54098360655735" y="311.4754098360656" type="curve" smooth="yes"/>
      <point x="458.655737704918" y="311.4754098360656"/>
      <point x="465.8360655737705" y="308.88524590163934"/>
      <point x="465.8360655737705" y="299.0655737704918" type="curve" smooth="yes"/>
      <point x="465.8360655737705" y="264.0"/>
      <point x="442.40983606557376" y="237.18032786885246"/>
    </contour>
    <contour>
      <point x="457.2950819672131" y="547.4918032786885" type="curve" smooth="yes"/>
      <point x="485.4754098360656" y="547.4918032786885"/>
      <point x="513.655737704918" y="570.3770491803278"/>
      <point x="513.655737704918" y="602.8524590163935" type="curve" smooth="yes"/>
      <point x="513.655737704918" y="631.0327868852459"/>
      <point x="492.7704918032787" y="652.9180327868853"/>
      <point x="463.59016393442624" y="652.9180327868853" type="curve" smooth="yes"/>
      <point x="434.40983606557376" y="652.9180327868853"/>
      <point x="408.2295081967213" y="629.0327868852459"/>
      <point x="408.2295081967213" y="596.5573770491803" type="curve" smooth="yes"/>
      <point x="408.2295081967213" y="568.3770491803278"/>
      <point x="429.11475409836066" y="547.4918032786885"/>
    </contour>
    <contour>
      <point x="349.5245901639344" y="415.88524590163934" type="curve" smooth="yes"/>
      <point x="377.7049180327869" y="415.88524590163934"/>
      <point x="405.88524590163934" y="438.7704918032787"/>
      <point x="405.88524590163934" y="471.24590163934425" type="curve" smooth="yes"/>
      <point x="405.88524590163934" y="499.42622950819674"/>
      <point x="385.0" y="521.311475409836"/>
      <point x="355.8196721311475" y="521.311475409836" type="curve" smooth="yes"/>
      <point x="327.6393442622951" y="521.311475409836"/>
      <point x="300.45901639344265" y="497.42622950819674"/>
      <point x="300.45901639344265" y="464.95081967213116" type="curve" smooth="yes"/>
      <point x="300.45901639344265" y="436.7704918032787"/>
      <point x="321.344262295082" y="415.88524590163934"/>
    </contour>
    <contour>
      <point x="542.1803278688525" y="415.88524590163934" type="curve" smooth="yes"/>
      <point x="571.360655737705" y="415.88524590163934"/>
      <point x="599.5409836065573" y="438.7704918032787"/>
      <point x="599.5409836065573" y="471.24590163934425" type="curve" smooth="yes"/>
      <point x="599.5409836065573" y="499.42622950819674"/>
      <point x="577.655737704918" y="521.311475409836"/>
      <point x="549.4754098360655" y="521.311475409836" type="curve" smooth="yes"/>
      <point x="520.0" y="521.311475409836"/>
      <point x="494.11475409836066" y="497.42622950819674"/>
      <point x="494.11475409836066" y="464.95081967213116" type="curve" smooth="yes"/>
      <point x="494.11475409836066" y="436.7704918032787"/>
      <point x="514.0" y="415.88524590163934"/>
    </contour>
  </outline>
</glyph>
<glyph name="uni0799" format="2">
  <advance width="533.1311475409836"/>
  <unicode hex="0799"/>
  <outline>
    <contour>
      <point x="79.42622950819671" y="-10.0" type="curve" smooth="yes"/>
      <point x="114.8360655737705" y="-10.0"/>
      <point x="176.86885245901638" y="19.34426229508197"/>
      <point x="258.44262295081967" y="78.27868852459017" type="curve" smooth="yes"/>
      <point x="355.11475409836066" y="143.80327868852459"/>
      <point x="449.91803278688525" y="226.80327868852459"/>
      <point x="485.8360655737705" y="282.7049180327869" type="curve" smooth="yes"/>
      <point x="499.9016393442623" y="303.3606557377049"/>
      <point x="504.1311475409836" y="318.0655737704918"/>
      <point x="504.1311475409836" y="329.4754098360656" type="curve" smooth="yes"/>
      <point x="504.1311475409836" y="347.72131147540983"/>
      <point x="495.4754098360656" y="365.42622950819674"/>
      <point x="468.7049180327869" y="365.42622950819674" type="curve" smooth="yes"/>
      <point x="451.6393442622951" y="365.42622950819674"/>
      <point x="431.0983606557377" y="354.8360655737705"/>
      <point x="409.9672131147541" y="330.8196721311475" type="curve" smooth="yes"/>
      <point x="359.59016393442624" y="274.0327868852459"/>
      <point x="322.62295081967216" y="240.42622950819674"/>
      <point x="196.5737704918033" y="167.37704918032787" type="curve" smooth="yes"/>
      <point x="151.0655737704918" y="138.22950819672133"/>
      <point x="105.8688524590164" y="116.26229508196721"/>
      <point x="60.78688524590164" y="103.78688524590164" type="curve" smooth="yes"/>
      <point x="31.065573770491802" y="95.60655737704919"/>
      <point x="15.0" y="70.49180327868852"/>
      <point x="15.0" y="42.950819672131146" type="curve" smooth="yes"/>
      <point x="15.0" y="9.885245901639344"/>
      <point x="38.47540983606557" y="-10.0"/>
    </contour>
    <contour>
      <point x="411.7049180327869" y="-4.426229508196721" type="curve" smooth="yes"/>
      <point x="441.0655737704918" y="-4.426229508196721"/>
      <point x="470.42622950819674" y="19.34426229508197"/>
      <point x="470.42622950819674" y="53.295081967213115" type="curve" smooth="yes"/>
      <point x="470.42622950819674" y="82.65573770491804"/>
      <point x="447.655737704918" y="105.42622950819673"/>
      <point x="418.2950819672131" y="105.42622950819673" type="curve" smooth="yes"/>
      <point x="387.6393442622951" y="105.42622950819673"/>
      <point x="360.57377049180326" y="80.36065573770492"/>
      <point x="360.57377049180326" y="46.704918032786885" type="curve" smooth="yes"/>
      <point x="360.57377049180326" y="17.34426229508197"/>
      <point x="381.344262295082" y="-4.426229508196721"/>
    </contour>
  </outline>
</glyph>
<glyph name="uni079F" format="2">
  <advance width="1019.0"/>
  <unicode hex="079F"/>
  <outline>
    <contour>
      <point x="80.90163934426229" y="43.34426229508197" type="curve" smooth="yes"/>
      <point x="101.44262295081967" y="43.34426229508197"/>
      <point x="123.50819672131148" y="52.52459016393443"/>
      <point x="150.11475409836066" y="71.31147540983606" type="curve" smooth="yes"/>
      <point x="193.63934426229508" y="99.9672131147541"/>
      <point x="234.9016393442623" y="140.18032786885246"/>
      <point x="253.72131147540983" y="182.63934426229508" type="curve"/>
      <point x="343.37704918032784" y="171.1639344262295"/>
      <point x="421.2295081967213" y="163.63934426229508"/>
      <point x="546.2622950819672" y="163.63934426229508" type="curve" smooth="yes"/>
      <point x="690.0655737704918" y="163.63934426229508"/>
      <point x="826.7540983606557" y="170.9344262295082"/>
      <point x="916.0491803278688" y="233.22950819672133" type="curve" smooth="yes"/>
      <point x="942.8196721311475" y="251.70491803278688"/>
      <point x="964.0" y="274.1803278688525"/>
      <point x="980.0" y="301.4754098360656" type="curve" smooth="yes"/>
      <point x="992.0" y="322.7704918032787"/>
      <point x="999.7049180327868" y="342.655737704918"/>
      <point x="999.7049180327868" y="366.1803278688525" type="curve" smooth="yes"/>
      <point x="999.7049180327868" y="392.655737704918"/>
      <point x="988.8196721311475" y="409.42622950819674"/>
      <point x="959.5737704918033" y="409.42622950819674" type="curve" smooth="yes"/>
      <point x="932.688524590164" y="409.42622950819674"/>
      <point x="920.327868852459" y="395.24590163934425"/>
      <point x="906.0327868852459" y="366.5409836065574" type="curve" smooth="yes"/>
      <point x="891.5081967213115" y="337.78688524590166"/>
      <point x="867.1639344262295" y="307.9016393442623"/>
      <point x="833.344262295082" y="291.0163934426229" type="curve" smooth="yes"/>
      <point x="793.5901639344262" y="271.0163934426229"/>
      <point x="680.8852459016393" y="257.54098360655735"/>
      <point x="536.8360655737705" y="257.54098360655735" type="curve" smooth="yes"/>
      <point x="430.60655737704917" y="257.54098360655735"/>
      <point x="344.60655737704917" y="262.655737704918"/>
      <point x="270.9016393442623" y="273.3606557377049" type="curve"/>
      <point x="268.08196721311475" y="326.0"/>
      <point x="234.2622950819672" y="366.8360655737705"/>
      <point x="181.19672131147541" y="366.8360655737705" type="curve" smooth="yes"/>
      <point x="134.54098360655738" y="366.8360655737705"/>
      <point x="98.77049180327869" y="323.0655737704918"/>
      <point x="98.77049180327869" y="285.1803278688525" type="curve" smooth="yes"/>
      <point x="98.77049180327869" y="248.54098360655738"/>
      <point x="118.75409836065573" y="228.36065573770492"/>
      <point x="158.47540983606558" y="206.70491803278688" type="curve"/>
      <point x="148.70491803278688" y="175.29508196721312"/>
      <point x="106.77049180327869" y="148.47540983606558"/>
      <point x="74.59016393442623" y="136.47540983606558" type="curve" smooth="yes"/>
      <point x="42.885245901639344" y="124.77049180327869"/>
      <point x="25.475409836065573" y="113.40983606557377"/>
      <point x="25.475409836065573" y="89.29508196721312" type="curve" smooth="yes"/>
      <point x="25.475409836065573" y="61.52459016393443"/>
      <point x="46.950819672131146" y="43.34426229508197"/>
    </contour>
    <contour>
      <point x="570.7049180327868" y="328.57377049180326" type="curve" smooth="yes"/>
      <point x="600.0655737704918" y="328.57377049180326"/>
      <point x="629.4262295081967" y="352.344262295082"/>
      <point x="629.4262295081967" y="385.0" type="curve" smooth="yes"/>
      <point x="629.4262295081967" y="414.655737704918"/>
      <point x="606.655737704918" y="438.42622950819674"/>
      <point x="577.2950819672132" y="438.42622950819674" type="curve" smooth="yes"/>
      <point x="546.639344262295" y="438.42622950819674"/>
      <point x="519.5737704918033" y="413.3606557377049"/>
      <point x="519.5737704918033" y="379.7049180327869" type="curve" smooth="yes"/>
      <point x="519.5737704918033" y="350.344262295082"/>
      <point x="540.344262295082" y="328.57377049180326"/>
    </contour>
  </outline>
</glyph>
<glyph name="uni07A0" format="2">
  <advance width="651.360655737705"/>
  <unicode hex="07A0"/>
  <outline>
    <contour>
      <point x="95.72131147540983" y="-44.0" type="curve" smooth="yes"/>
      <point x="183.62295081967213" y="-44.0"/>
      <point x="299.54098360655735" y="5.590163934426229"/>
      <point x="299.54098360655735" y="80.70491803278688" type="curve" smooth="yes"/>
      <point x="299.54098360655735" y="105.11475409836066"/>
      <point x="284.24590163934425" y="123.81967213114754"/>
      <point x="267.1803278688525" y="140.29508196721312" type="curve" smooth="yes"/>
      <point x="252.29508196721312" y="154.88524590163934"/>
      <point x="239.88524590163934" y="165.18032786885246"/>
      <point x="239.88524590163934" y="171.0" type="curve" smooth="yes"/>
      <point x="239.88524590163934" y="179.81967213114754"/>
      <point x="257.0" y="194.0"/>
      <point x="275.344262295082" y="206.81967213114754" type="curve"/>
      <point x="314.0327868852459" y="169.47540983606558"/>
      <point x="374.0983606557377" y="150.63934426229508"/>
      <point x="414.7049180327869" y="150.63934426229508" type="curve" smooth="yes"/>
      <point x="494.95081967213116" y="150.63934426229508"/>
      <point x="589.9508196721312" y="205.88524590163934"/>
      <point x="589.9508196721312" y="301.4754098360656" type="curve" smooth="yes"/>
      <point x="589.9508196721312" y="360.54098360655735"/>
      <point x="556.7540983606557" y="395.1311475409836"/>
      <point x="492.8032786885246" y="395.1311475409836" type="curve" smooth="yes"/>
      <point x="370.5245901639344" y="395.1311475409836"/>
      <point x="137.9344262295082" y="251.327868852459"/>
      <point x="137.9344262295082" y="154.54098360655738" type="curve" smooth="yes"/>
      <point x="137.9344262295082" y="141.13114754098362"/>
      <point x="151.98360655737704" y="129.65573770491804"/>
      <point x="169.63934426229508" y="117.18032786885246" type="curve" smooth="yes"/>
      <point x="182.9344262295082" y="107.18032786885246"/>
      <point x="193.63934426229508" y="98.18032786885246"/>
      <point x="193.63934426229508" y="86.95081967213115" type="curve" smooth="yes"/>
      <point x="193.63934426229508" y="60.01639344262295"/>
      <point x="154.13114754098362" y="48.31147540983606"/>
      <point x="98.72131147540983" y="48.31147540983606" type="curve" smooth="yes"/>
      <point x="85.54098360655738" y="48.31147540983606"/>
      <point x="68.72131147540983" y="51.90163934426229"/>
      <point x="55.540983606557376" y="55.90163934426229" type="curve" smooth="yes"/>
      <point x="44.83606557377049" y="59.606557377049185"/>
      <point x="34.540983606557376" y="62.31147540983606"/>
      <point x="21.42622950819672" y="62.31147540983606" type="curve" smooth="yes"/>
      <point x="-10.819672131147541" y="62.31147540983606"/>
      <point x="-24.0" y="42.721311475409834"/>
      <point x="-24.0" y="12.950819672131146" type="curve" smooth="yes"/>
      <point x="-24.0" y="-8.0"/>
      <point x="-9.049180327868854" y="-23.770491803278688"/>
      <point x="15.737704918032787" y="-32.0655737704918" type="curve" smooth="yes"/>
      <point x="37.55737704918033" y="-40.295081967213115"/>
      <point x="66.19672131147541" y="-44.0"/>
    </contour>
    <contour>
      <point x="412.0327868852459" y="237.18032786885246" type="curve" smooth="yes"/>
      <point x="388.21311475409834" y="237.18032786885246"/>
      <point x="366.73770491803276" y="245.59016393442624"/>
      <point x="348.2622950819672" y="259.4754098360656" type="curve"/>
      <point x="393.8360655737705" y="286.11475409836066"/>
      <point x="448.72131147540983" y="311.4754098360656"/>
      <point x="472.0983606557377" y="311.4754098360656" type="curve" smooth="yes"/>
      <point x="481.21311475409834" y="311.4754098360656"/>
      <point x="488.39344262295083" y="308.88524590163934"/>
      <point x="488.39344262295083" y="299.0655737704918" type="curve" smooth="yes"/>
      <point x="488.39344262295083" y="264.0"/>
      <point x="464.9672131147541" y="237.18032786885246"/>
    </contour>
    <contour>
      <point x="402.7049180327869" y="-65.42622950819673" type="curve" smooth="yes"/>
      <point x="432.0655737704918" y="-65.42622950819673"/>
      <point x="461.42622950819674" y="-41.65573770491803"/>
      <point x="461.42622950819674" y="-7.704918032786885" type="curve" smooth="yes"/>
      <point x="461.42622950819674" y="21.65573770491803"/>
      <point x="438.655737704918" y="44.42622950819673"/>
      <point x="409.2950819672131" y="44.42622950819673" type="curve" smooth="yes"/>
      <point x="378.6393442622951" y="44.42622950819673"/>
      <point x="351.57377049180326" y="19.360655737704917"/>
      <point x="351.57377049180326" y="-14.295081967213115" type="curve" smooth="yes"/>
      <point x="351.57377049180326" y="-43.65573770491803"/>
      <point x="372.344262295082" y="-65.42622950819673"/>
    </contour>
  </outline>
</glyph>
<glyph name="uni07A4" format="2">
  <advance width="500.59016393442624"/>
  <unicode hex="07A4"/>
  <outline>
    <contour>
      <point x="70.63934426229508" y="-44.0" type="curve" smooth="yes"/>
      <point x="202.47540983606558" y="-44.0"/>
      <point x="357.95081967213116" y="10.0"/>
      <point x="357.95081967213116" y="112.0" type="curve" smooth="yes"/>
      <point x="357.95081967213116" y="137.0"/>
      <point x="336.95081967213116" y="160.0"/>
      <point x="315.95081967213116" y="180.0" type="curve" smooth="yes"/>
      <point x="299.0655737704918" y="195.88524590163934"/>
      <point x="285.95081967213116" y="210.65573770491804"/>
      <point x="285.95081967213116" y="217.47540983606558" type="curve" smooth="yes"/>
      <point x="285.95081967213116" y="226.47540983606558"/>
      <point x="296.88524590163934" y="235.47540983606558"/>
      <point x="321.95081967213116" y="250.36065573770492" type="curve" smooth="yes"/>
      <point x="342.7704918032787" y="262.4754098360656"/>
      <point x="373.4754098360656" y="279.59016393442624"/>
      <point x="407.0" y="296.40983606557376" type="curve" smooth="yes"/>
      <point x="447.40983606557376" y="316.8196721311475"/>
      <point x="473.0" y="330.0"/>
      <point x="473.0" y="351.3606557377049" type="curve" smooth="yes"/>
      <point x="473.0" y="375.24590163934425"/>
      <point x="456.0" y="396.9016393442623"/>
      <point x="426.0" y="396.9016393442623" type="curve" smooth="yes"/>
      <point x="404.2950819672131" y="396.9016393442623"/>
      <point x="359.1311475409836" y="375.672131147541"/>
      <point x="331.8196721311475" y="361.3114754098361" type="curve" smooth="yes"/>
      <point x="275.4754098360656" y="332.08196721311475"/>
      <point x="259.344262295082" y="320.72131147540983"/>
      <point x="247.04918032786884" y="312.42622950819674" type="curve" smooth="yes"/>
      <point x="195.45901639344262" y="277.1311475409836"/>
      <point x="182.04918032786884" y="247.88524590163934"/>
      <point x="182.04918032786884" y="222.0" type="curve" smooth="yes"/>
      <point x="182.04918032786884" y="193.0"/>
      <point x="198.5737704918033" y="171.0655737704918"/>
      <point x="217.5737704918033" y="149.88524590163934" type="curve" smooth="yes"/>
      <point x="233.80327868852459" y="132.0655737704918"/>
      <point x="251.0983606557377" y="114.0"/>
      <point x="251.0983606557377" y="103.0" type="curve" smooth="yes"/>
      <point x="251.0983606557377" y="69.8360655737705"/>
      <point x="178.75409836065575" y="49.90163934426229"/>
      <point x="90.0" y="49.90163934426229" type="curve" smooth="yes"/>
      <point x="64.70491803278688" y="49.90163934426229"/>
      <point x="43.704918032786885" y="55.90163934426229"/>
      <point x="27.0" y="60.90163934426229" type="curve" smooth="yes"/>
      <point x="11.0" y="65.90163934426229"/>
      <point x="1.0" y="68.90163934426229"/>
      <point x="-10.0" y="68.90163934426229" type="curve" smooth="yes"/>
      <point x="-35.0" y="68.90163934426229"/>
      <point x="-56.0" y="46.540983606557376"/>
      <point x="-56.0" y="16.475409836065573" type="curve" smooth="yes"/>
      <point x="-56.0" y="-9.0"/>
      <point x="-36.0" y="-25.0"/>
      <point x="-9.0" y="-34.0" type="curve" smooth="yes"/>
      <point x="13.0" y="-41.0"/>
      <point x="39.0" y="-44.0"/>
    </contour>
    <contour>
      <point x="411.655737704918" y="422.655737704918" type="curve" smooth="yes"/>
      <point x="440.72131147540983" y="422.655737704918"/>
      <point x="469.78688524590166" y="446.42622950819674"/>
      <point x="469.78688524590166" y="479.78688524590166" type="curve" smooth="yes"/>
      <point x="469.78688524590166" y="508.55737704918033"/>
      <point x="447.0163934426229" y="531.327868852459"/>
      <point x="418.24590163934425" y="531.327868852459" type="curve" smooth="yes"/>
      <point x="388.1803278688525" y="531.327868852459"/>
      <point x="361.11475409836066" y="506.55737704918033"/>
      <point x="361.11475409836066" y="473.1967213114754" type="curve" smooth="yes"/>
      <point x="361.11475409836066" y="444.1311475409836"/>
      <point x="381.59016393442624" y="422.655737704918"/>
    </contour>
    <contour>
      <point x="244.75409836065575" y="422.655737704918" type="curve" smooth="yes"/>
      <point x="273.8196721311475" y="422.655737704918"/>
      <point x="302.88524590163934" y="446.42622950819674"/>
      <point x="302.88524590163934" y="479.78688524590166" type="curve" smooth="yes"/>
      <point x="302.88524590163934" y="508.55737704918033"/>
      <point x="280.11475409836066" y="531.327868852459"/>
      <point x="251.34426229508196" y="531.327868852459" type="curve" smooth="yes"/>
      <point x="221.27868852459017" y="531.327868852459"/>
      <point x="194.21311475409837" y="506.55737704918033"/>
      <point x="194.21311475409837" y="473.1967213114754" type="curve" smooth="yes"/>
      <point x="194.21311475409837" y="444.1311475409836"/>
      <point x="214.68852459016392" y="422.655737704918"/>
    </contour>
  </outline>
</glyph>
<glyph name="uni07A5" format="2">
  <advance width="521.344262295082"/>
  <unicode hex="07A5"/>
  <outline>
    <contour>
      <point x="-15.426229508196727" y="-78.0" type="curve" smooth="yes"/>
      <point x="9.983606557377044" y="-78.0"/>
      <point x="94.59016393442623" y="-44.786885245901644"/>
      <point x="159.4262295081967" y="-3.6065573770491803" type="curve" smooth="yes"/>
      <point x="239.9672131147541" y="47.278688524590166"/>
      <point x="359.5409836065574" y="141.72131147540983"/>
      <point x="415.88524590163934" y="207.60655737704917" type="curve" smooth="yes"/>
      <point x="448.2295081967213" y="245.72131147540983"/>
      <point x="466.344262295082" y="287.24590163934425"/>
      <point x="466.344262295082" y="330.1803278688525" type="curve" smooth="yes"/>
      <point x="466.344262295082" y="384.3606557377049"/>
      <point x="422.6885245901639" y="409.42622950819674"/>
      <point x="358.9672131147541" y="409.42622950819674" type="curve" smooth="yes"/>
      <point x="251.672131147541" y="409.42622950819674"/>
      <point x="141.52459016393442" y="320.0655737704918"/>
      <point x="141.52459016393442" y="231.9344262295082" type="curve" smooth="yes"/>
      <point x="141.52459016393442" y="194.34426229508196"/>
      <point x="160.52459016393442" y="161.1639344262295"/>
      <point x="198.47540983606558" y="141.9344262295082" type="curve"/>
      <point x="169.14754098360655" y="123.36065573770492"/>
      <point x="127.0" y="100.08196721311475"/>
      <point x="86.327868852459" y="80.80327868852459" type="curve" smooth="yes"/>
      <point x="43.65573770491803" y="60.37704918032787"/>
      <point x="-0.6065573770491817" y="43.721311475409834"/>
      <point x="-30.83606557377049" y="36.42622950819673" type="curve" smooth="yes"/>
      <point x="-63.196721311475414" y="27.950819672131146"/>
      <point x="-81.55737704918033" y="10.131147540983605"/>
      <point x="-81.55737704918033" y="-20.34426229508197" type="curve" smooth="yes"/>
      <point x="-81.55737704918033" y="-55.114754098360656"/>
      <point x="-59.37704918032787" y="-78.0"/>
    </contour>
    <contour>
      <point x="292.78688524590166" y="207.18032786885246" type="curve"/>
      <point x="267.08196721311475" y="209.77049180327867"/>
      <point x="243.672131147541" y="217.65573770491804"/>
      <point x="243.672131147541" y="240.40983606557376" type="curve" smooth="yes"/>
      <point x="243.672131147541" y="282.5245901639344"/>
      <point x="299.08196721311475" y="324.7049180327869"/>
      <point x="339.9672131147541" y="324.7049180327869" type="curve" smooth="yes"/>
      <point x="360.9016393442623" y="324.7049180327869"/>
      <point x="365.3114754098361" y="315.40983606557376"/>
      <point x="365.3114754098361" y="305.88524590163934" type="curve" smooth="yes"/>
      <point x="365.3114754098361" y="273.3606557377049"/>
      <point x="332.91803278688525" y="239.01639344262296"/>
    </contour>
    <contour>
      <point x="352.655737704918" y="431.4754098360656" type="curve" smooth="yes"/>
      <point x="382.0163934426229" y="431.4754098360656"/>
      <point x="411.37704918032784" y="455.24590163934425"/>
      <point x="411.37704918032784" y="487.9016393442623" type="curve" smooth="yes"/>
      <point x="411.37704918032784" y="517.5573770491803"/>
      <point x="388.60655737704917" y="541.327868852459"/>
      <point x="359.24590163934425" y="541.327868852459" type="curve" smooth="yes"/>
      <point x="328.59016393442624" y="541.327868852459"/>
      <point x="301.5245901639344" y="516.2622950819672"/>
      <point x="301.5245901639344" y="482.60655737704917" type="curve" smooth="yes"/>
      <point x="301.5245901639344" y="453.24590163934425"/>
      <point x="322.2950819672131" y="431.4754098360656"/>
    </contour>
  </outline>
</glyph>
<glyph name="uni07A6" format="2">
  <unicode hex="07A6"/>
  <outline>
    <contour>
      <point x="47.950819672131146" y="432.0655737704918" type="curve" smooth="yes"/>
      <point x="63.131147540983605" y="432.0655737704918"/>
      <point x="81.31147540983606" y="435.3606557377049"/>
      <point x="104.85245901639344" y="444.1311475409836" type="curve" smooth="yes"/>
      <point x="161.72131147540983" y="463.8360655737705"/>
      <point x="291.3606557377049" y="535.1803278688525"/>
      <point x="327.7049180327869" y="569.9344262295082" type="curve" smooth="yes"/>
      <point x="346.0655737704918" y="587.4098360655738"/>
      <point x="354.4754098360656" y="604.1803278688525"/>
      <point x="354.4754098360656" y="622.0655737704918" type="curve" smooth="yes"/>
      <point x="354.4754098360656" y="642.5409836065573"/>
      <point x="342.7049180327869" y="656.4262295081967"/>
      <point x="318.0" y="656.4262295081967" type="curve" smooth="yes"/>
      <point x="300.8196721311475" y="656.4262295081967"/>
      <point x="284.344262295082" y="650.1311475409836"/>
      <point x="262.5245901639344" y="632.6065573770492" type="curve" smooth="yes"/>
      <point x="192.95081967213116" y="576.6229508196722"/>
      <point x="111.73770491803279" y="535.4426229508197"/>
      <point x="54.77049180327869" y="520.672131147541" type="curve" smooth="yes"/>
      <point x="22.114754098360656" y="512.0819672131148"/>
      <point x="0.0" y="499.42622950819674"/>
      <point x="0.0" y="470.0163934426229" type="curve" smooth="yes"/>
      <point x="0.0" y="443.1311475409836"/>
      <point x="23.0" y="432.0655737704918"/>
    </contour>
  </outline>
</glyph>
<glyph name="uni07A7" format="2">
  <unicode hex="07A7"/>
  <outline>
    <contour>
      <point x="46.47540983606557" y="558.655737704918" type="curve" smooth="yes"/>
      <point x="61.65573770491803" y="558.655737704918"/>
      <point x="79.8360655737705" y="561.9508196721312"/>
      <point x="103.37704918032787" y="570.7213114754098" type="curve" smooth="yes"/>
      <point x="153.1311475409836" y="589.1311475409836"/>
      <point x="269.88524590163934" y="658.1147540983607"/>
      <point x="306.2295081967213" y="693.5737704918033" type="curve" smooth="yes"/>
      <point x="324.59016393442624" y="711.0491803278688"/>
      <point x="333.0" y="727.8196721311475"/>
      <point x="333.0" y="745.7049180327868" type="curve" smooth="yes"/>
      <point x="333.0" y="766.1803278688525"/>
      <point x="321.2295081967213" y="780.0655737704918"/>
      <point x="296.5245901639344" y="780.0655737704918" type="curve" smooth="yes"/>
      <point x="279.04918032786884" y="780.0655737704918"/>
      <point x="263.1639344262295" y="773.4754098360655"/>
      <point x="241.04918032786884" y="756.2459016393443" type="curve" smooth="yes"/>
      <point x="175.18032786885246" y="704.7377049180328"/>
      <point x="105.08196721311475" y="661.4426229508197"/>
      <point x="53.295081967213115" y="647.2622950819672" type="curve" smooth="yes"/>
      <point x="20.639344262295083" y="637.9672131147541"/>
      <point x="-1.4754098360655732" y="626.016393442623"/>
      <point x="-1.4754098360655732" y="596.6065573770492" type="curve" smooth="yes"/>
      <point x="-1.4754098360655732" y="569.7213114754098"/>
      <point x="21.524590163934427" y="558.655737704918"/>
    </contour>
    <contour>
      <point x="101.95081967213115" y="432.0655737704918" type="curve" smooth="yes"/>
      <point x="117.1311475409836" y="432.0655737704918"/>
      <point x="135.31147540983608" y="435.3606557377049"/>
      <point x="158.85245901639342" y="444.1311475409836" type="curve" smooth="yes"/>
      <point x="208.60655737704917" y="463.24590163934425"/>
      <point x="325.3606557377049" y="531.5245901639345"/>
      <point x="361.7049180327869" y="566.983606557377" type="curve" smooth="yes"/>
      <point x="380.0655737704918" y="584.4590163934427"/>
      <point x="388.4754098360656" y="601.2295081967213"/>
      <point x="388.4754098360656" y="619.1147540983607" type="curve" smooth="yes"/>
      <point x="388.4754098360656" y="639.5901639344262"/>
      <point x="376.7049180327869" y="653.4754098360655"/>
      <point x="352.0" y="653.4754098360655" type="curve" smooth="yes"/>
      <point x="334.5245901639344" y="653.4754098360655"/>
      <point x="317.9344262295082" y="647.5901639344262"/>
      <point x="296.5245901639344" y="629.655737704918" type="curve" smooth="yes"/>
      <point x="233.36065573770492" y="576.0327868852459"/>
      <point x="160.55737704918033" y="535.1475409836065"/>
      <point x="108.77049180327869" y="520.672131147541" type="curve" smooth="yes"/>
      <point x="76.11475409836066" y="511.37704918032784"/>
      <point x="54.0" y="499.42622950819674"/>
      <point x="54.0" y="470.0163934426229" type="curve" smooth="yes"/>
      <point x="54.0" y="443.1311475409836"/>
      <point x="77.0" y="432.0655737704918"/>
    </contour>
  </outline>
</glyph>
<glyph name="uni07A8" format="2">
  <unicode hex="07A8"/>
  <outline>
    <contour>
      <point x="-16.704918032786885" y="-296.5245901639344" type="curve" smooth="yes"/>
      <point x="-1.5245901639344268" y="-296.5245901639344"/>
      <point x="16.65573770491803" y="-293.2295081967213"/>
      <point x="40.196721311475414" y="-284.4590163934426" type="curve" smooth="yes"/>
      <point x="95.65573770491804" y="-264.04918032786884"/>
      <point x="226.70491803278688" y="-194.11475409836066"/>
      <point x="263.04918032786884" y="-158.65573770491804" type="curve" smooth="yes"/>
      <point x="281.40983606557376" y="-141.18032786885246"/>
      <point x="289.8196721311475" y="-124.40983606557377"/>
      <point x="289.8196721311475" y="-106.52459016393442" type="curve" smooth="yes"/>
      <point x="289.8196721311475" y="-86.04918032786885"/>
      <point x="278.04918032786884" y="-72.1639344262295"/>
      <point x="253.34426229508196" y="-72.1639344262295" type="curve" smooth="yes"/>
      <point x="235.8688524590164" y="-72.1639344262295"/>
      <point x="219.98360655737704" y="-78.75409836065575"/>
      <point x="197.8688524590164" y="-95.98360655737704" type="curve" smooth="yes"/>
      <point x="127.40983606557377" y="-150.78688524590166"/>
      <point x="47.78688524590164" y="-193.14754098360658"/>
      <point x="-9.885245901639344" y="-207.91803278688525" type="curve" smooth="yes"/>
      <point x="-42.540983606557376" y="-216.5081967213115"/>
      <point x="-64.65573770491804" y="-229.1639344262295"/>
      <point x="-64.65573770491804" y="-258.57377049180326" type="curve" smooth="yes"/>
      <point x="-64.65573770491804" y="-285.4590163934426"/>
      <point x="-41.65573770491803" y="-296.5245901639344"/>
    </contour>
  </outline>
</glyph>
<glyph name="uni07A9" format="2">
  <unicode hex="07A9"/>
  <outline>
    <contour>
      <point x="46.47540983606557" y="-287.11475409836066" type="curve" smooth="yes"/>
      <point x="61.65573770491803" y="-287.11475409836066"/>
      <point x="79.8360655737705" y="-283.8196721311475"/>
      <point x="103.37704918032787" y="-275.04918032786884" type="curve" smooth="yes"/>
      <point x="153.1311475409836" y="-256.6393442622951"/>
      <point x="269.88524590163934" y="-187.65573770491804"/>
      <point x="306.2295081967213" y="-152.19672131147541" type="curve" smooth="yes"/>
      <point x="324.59016393442624" y="-134.72131147540983"/>
      <point x="333.0" y="-117.95081967213115"/>
      <point x="333.0" y="-100.06557377049181" type="curve" smooth="yes"/>
      <point x="333.0" y="-79.59016393442623"/>
      <point x="321.2295081967213" y="-65.70491803278688"/>
      <point x="296.5245901639344" y="-65.70491803278688" type="curve" smooth="yes"/>
      <point x="279.04918032786884" y="-65.70491803278688"/>
      <point x="263.1639344262295" y="-72.29508196721312"/>
      <point x="241.04918032786884" y="-89.52459016393442" type="curve" smooth="yes"/>
      <point x="175.18032786885246" y="-141.0327868852459"/>
      <point x="105.08196721311475" y="-184.327868852459"/>
      <point x="53.295081967213115" y="-198.5081967213115" type="curve" smooth="yes"/>
      <point x="20.639344262295083" y="-207.80327868852459"/>
      <point x="-1.4754098360655732" y="-219.75409836065575"/>
      <point x="-1.4754098360655732" y="-249.1639344262295" type="curve" smooth="yes"/>
      <point x="-1.4754098360655732" y="-276.04918032786884"/>
      <point x="21.524590163934427" y="-287.11475409836066"/>
    </contour>
    <contour>
      <point x="101.95081967213115" y="-413.7049180327869" type="curve" smooth="yes"/>
      <point x="117.1311475409836" y="-413.7049180327869"/>
      <point x="135.31147540983608" y="-410.40983606557376"/>
      <point x="158.85245901639342" y="-401.6393442622951" type="curve" smooth="yes"/>
      <point x="208.60655737704917" y="-383.2295081967213"/>
      <point x="325.3606557377049" y="-314.24590163934425"/>
      <point x="361.7049180327869" y="-278.78688524590166" type="curve" smooth="yes"/>
      <point x="380.0655737704918" y="-261.3114754098361"/>
      <point x="388.4754098360656" y="-244.54098360655738"/>
      <point x="388.4754098360656" y="-226.65573770491804" type="curve" smooth="yes"/>
      <point x="388.4754098360656" y="-206.18032786885246"/>
      <point x="376.7049180327869" y="-192.29508196721312"/>
      <point x="352.0" y="-192.29508196721312" type="curve" smooth="yes"/>
      <point x="334.5245901639344" y="-192.29508196721312"/>
      <point x="318.6393442622951" y="-198.88524590163934"/>
      <point x="296.5245901639344" y="-216.11475409836066" type="curve" smooth="yes"/>
      <point x="230.65573770491804" y="-267.62295081967216"/>
      <point x="160.55737704918033" y="-310.91803278688525"/>
      <point x="108.77049180327869" y="-325.0983606557377" type="curve" smooth="yes"/>
      <point x="76.11475409836066" y="-334.39344262295083"/>
      <point x="54.0" y="-346.344262295082"/>
      <point x="54.0" y="-375.75409836065575" type="curve" smooth="yes"/>
      <point x="54.0" y="-402.6393442622951"/>
      <point x="77.0" y="-413.7049180327869"/>
    </contour>
  </outline>
</glyph>
<glyph name="uni07AA" format="2">
  <unicode hex="07AA"/>
  <outline>
    <contour>
      <point x="58.36065573770492" y="432.655737704918" type="curve" smooth="yes"/>
      <point x="91.0655737704918" y="432.655737704918"/>
      <point x="137.24590163934425" y="450.0"/>
      <point x="207.65573770491804" y="495.11475409836066" type="curve" smooth="yes"/>
      <point x="278.3606557377049" y="540.5245901639345"/>
      <point x="303.1967213114754" y="579.4098360655738"/>
      <point x="303.1967213114754" y="620.0655737704918" type="curve" smooth="yes"/>
      <point x="303.1967213114754" y="663.9508196721312"/>
      <point x="216.672131147541" y="690.311475409836"/>
      <point x="138.65573770491804" y="690.311475409836" type="curve" smooth="yes"/>
      <point x="81.93442622950819" y="690.311475409836"/>
      <point x="39.40983606557377" y="677.9508196721312"/>
      <point x="39.40983606557377" y="642.360655737705" type="curve" smooth="yes"/>
      <point x="39.40983606557377" y="615.8196721311475"/>
      <point x="52.65573770491803" y="602.4098360655738"/>
      <point x="95.65573770491804" y="602.4098360655738" type="curve" smooth="yes"/>
      <point x="112.0655737704918" y="602.4098360655738"/>
      <point x="127.65573770491804" y="603.4098360655738"/>
      <point x="146.65573770491804" y="603.4098360655738" type="curve" smooth="yes"/>
      <point x="166.29508196721312" y="603.4098360655738"/>
      <point x="195.27868852459017" y="597.5901639344262"/>
      <point x="206.9344262295082" y="592.1803278688525" type="curve"/>
      <point x="177.57377049180326" y="565.2459016393443"/>
      <point x="118.18032786885246" y="544.4098360655738"/>
      <point x="50.049180327868854" y="522.1311475409836" type="curve" smooth="yes"/>
      <point x="16.40983606557377" y="511.0163934426229"/>
      <point x="1.4098360655737707" y="501.60655737704917"/>
      <point x="1.4098360655737707" y="473.9016393442623" type="curve" smooth="yes"/>
      <point x="1.4098360655737707" y="446.1311475409836"/>
      <point x="20.59016393442623" y="432.655737704918"/>
    </contour>
  </outline>
</glyph>
<glyph name="uni07AB" format="2">
  <unicode hex="07AB"/>
  <outline>
    <contour>
      <point x="351.3606557377049" y="432.655737704918" type="curve" smooth="yes"/>
      <point x="384.0655737704918" y="432.655737704918"/>
      <point x="430.5409836065574" y="450.2950819672131"/>
      <point x="500.655737704918" y="495.11475409836066" type="curve" smooth="yes"/>
      <point x="572.0655737704918" y="540.2295081967213"/>
      <point x="596.1967213114754" y="579.4098360655738"/>
      <point x="596.1967213114754" y="620.0655737704918" type="curve" smooth="yes"/>
      <point x="596.1967213114754" y="663.9508196721312"/>
      <point x="509.672131147541" y="690.311475409836"/>
      <point x="431.655737704918" y="690.311475409836" type="curve" smooth="yes"/>
      <point x="374.9344262295082" y="690.311475409836"/>
      <point x="332.40983606557376" y="677.9508196721312"/>
      <point x="332.40983606557376" y="642.360655737705" type="curve" smooth="yes"/>
      <point x="332.40983606557376" y="615.8196721311475"/>
      <point x="345.655737704918" y="602.4098360655738"/>
      <point x="388.655737704918" y="602.4098360655738" type="curve" smooth="yes"/>
      <point x="405.3606557377049" y="602.4098360655738"/>
      <point x="419.95081967213116" y="603.4098360655738"/>
      <point x="439.655737704918" y="603.4098360655738" type="curve" smooth="yes"/>
      <point x="456.8196721311475" y="603.4098360655738"/>
      <point x="485.327868852459" y="598.1803278688525"/>
      <point x="499.9344262295082" y="592.1803278688525" type="curve"/>
      <point x="470.27868852459017" y="565.2459016393443"/>
      <point x="411.4754098360656" y="544.7049180327868"/>
      <point x="343.04918032786884" y="522.1311475409836" type="curve" smooth="yes"/>
      <point x="309.40983606557376" y="511.0163934426229"/>
      <point x="294.40983606557376" y="501.60655737704917"/>
      <point x="294.40983606557376" y="473.9016393442623" type="curve" smooth="yes"/>
      <point x="294.40983606557376" y="446.1311475409836"/>
      <point x="313.59016393442624" y="432.655737704918"/>
    </contour>
    <contour>
      <point x="58.36065573770492" y="432.655737704918" type="curve" smooth="yes"/>
      <point x="91.0655737704918" y="432.655737704918"/>
      <point x="137.54098360655738" y="450.7049180327869"/>
      <point x="207.65573770491804" y="495.11475409836066" type="curve" smooth="yes"/>
      <point x="278.7704918032787" y="540.5245901639345"/>
      <point x="303.1967213114754" y="579.4098360655738"/>
      <point x="303.1967213114754" y="620.0655737704918" type="curve" smooth="yes"/>
      <point x="303.1967213114754" y="663.9508196721312"/>
      <point x="216.672131147541" y="690.311475409836"/>
      <point x="138.65573770491804" y="690.311475409836" type="curve" smooth="yes"/>
      <point x="81.93442622950819" y="690.311475409836"/>
      <point x="39.40983606557377" y="677.9508196721312"/>
      <point x="39.40983606557377" y="642.360655737705" type="curve" smooth="yes"/>
      <point x="39.40983606557377" y="615.8196721311475"/>
      <point x="52.65573770491803" y="602.4098360655738"/>
      <point x="95.65573770491804" y="602.4098360655738" type="curve" smooth="yes"/>
      <point x="112.36065573770492" y="602.4098360655738"/>
      <point x="127.65573770491804" y="603.4098360655738"/>
      <point x="146.65573770491804" y="603.4098360655738" type="curve" smooth="yes"/>
      <point x="164.52459016393442" y="603.4098360655738"/>
      <point x="192.327868852459" y="598.1803278688525"/>
      <point x="206.9344262295082" y="592.1803278688525" type="curve"/>
      <point x="177.57377049180326" y="565.2459016393443"/>
      <point x="118.47540983606558" y="544.4098360655738"/>
      <point x="50.049180327868854" y="522.1311475409836" type="curve" smooth="yes"/>
      <point x="16.40983606557377" y="511.0163934426229"/>
      <point x="1.4098360655737707" y="501.60655737704917"/>
      <point x="1.4098360655737707" y="473.9016393442623" type="curve" smooth="yes"/>
      <point x="1.4098360655737707" y="446.1311475409836"/>
      <point x="20.59016393442623" y="432.655737704918"/>
    </contour>
  </outline>
</glyph>
<glyph name="uni07AC" format="2">
  <unicode hex="07AC"/>
  <outline>
    <contour>
      <point x="151.24590163934425" y="432.655737704918" type="curve" smooth="yes"/>
      <point x="204.91803278688525" y="432.655737704918"/>
      <point x="258.1967213114754" y="441.54098360655735"/>
      <point x="258.1967213114754" y="480.95081967213116" type="curve" smooth="yes"/>
      <point x="258.1967213114754" y="510.44262295081967"/>
      <point x="251.7704918032787" y="526.9016393442623"/>
      <point x="217.24590163934425" y="526.9016393442623" type="curve" smooth="yes"/>
      <point x="202.0655737704918" y="526.9016393442623"/>
      <point x="179.88524590163934" y="522.1967213114754"/>
      <point x="166.7704918032787" y="522.1967213114754" type="curve" smooth="yes"/>
      <point x="135.19672131147541" y="522.1967213114754"/>
      <point x="117.85245901639344" y="530.5409836065573"/>
      <point x="105.67213114754098" y="539.8360655737705" type="curve"/>
      <point x="117.55737704918033" y="561.2950819672132"/>
      <point x="175.34426229508196" y="594.1311475409836"/>
      <point x="227.81967213114754" y="625.688524590164" type="curve" smooth="yes"/>
      <point x="242.13114754098362" y="635.1147540983607"/>
      <point x="254.59016393442624" y="645.4098360655738"/>
      <point x="254.59016393442624" y="663.7540983606557" type="curve" smooth="yes"/>
      <point x="254.59016393442624" y="690.1147540983607"/>
      <point x="236.40983606557376" y="702.2950819672132"/>
      <point x="211.9344262295082" y="702.2950819672132" type="curve" smooth="yes"/>
      <point x="179.52459016393442" y="702.2950819672132"/>
      <point x="136.0655737704918" y="680.655737704918"/>
      <point x="88.60655737704919" y="642.4918032786885" type="curve" smooth="yes"/>
      <point x="19.065573770491802" y="587.6065573770492"/>
      <point x="0.0" y="569.5573770491803"/>
      <point x="0.0" y="532.7213114754098" type="curve" smooth="yes"/>
      <point x="0.0" y="486.59016393442624"/>
      <point x="59.01639344262295" y="432.655737704918"/>
    </contour>
  </outline>
</glyph>
<glyph name="uni07AD" format="2">
  <unicode hex="07AD"/>
  <outline>
    <contour>
      <point x="440.72131147540983" y="432.655737704918" type="curve" smooth="yes"/>
      <point x="494.39344262295083" y="432.655737704918"/>
      <point x="548.3770491803278" y="441.54098360655735"/>
      <point x="548.3770491803278" y="480.95081967213116" type="curve" smooth="yes"/>
      <point x="548.3770491803278" y="510.44262295081967"/>
      <point x="541.2459016393443" y="526.9016393442623"/>
      <point x="506.72131147540983" y="526.9016393442623" type="curve" smooth="yes"/>
      <point x="491.5409836065574" y="526.9016393442623"/>
      <point x="469.3606557377049" y="522.1967213114754"/>
      <point x="456.24590163934425" y="522.1967213114754" type="curve" smooth="yes"/>
      <point x="424.672131147541" y="522.1967213114754"/>
      <point x="407.327868852459" y="530.5409836065573"/>
      <point x="395.1475409836066" y="539.8360655737705" type="curve"/>
      <point x="407.0327868852459" y="561.2950819672132"/>
      <point x="464.8196721311475" y="593.8360655737705"/>
      <point x="517.2950819672132" y="625.688524590164" type="curve" smooth="yes"/>
      <point x="531.311475409836" y="635.1147540983607"/>
      <point x="544.0655737704918" y="645.4098360655738"/>
      <point x="544.0655737704918" y="663.7540983606557" type="curve" smooth="yes"/>
      <point x="544.0655737704918" y="690.1147540983607"/>
      <point x="525.8852459016393" y="702.2950819672132"/>
      <point x="501.40983606557376" y="702.2950819672132" type="curve" smooth="yes"/>
      <point x="469.0" y="702.2950819672132"/>
      <point x="425.54098360655735" y="679.9508196721312"/>
      <point x="378.08196721311475" y="642.4918032786885" type="curve" smooth="yes"/>
      <point x="309.24590163934425" y="588.311475409836"/>
      <point x="289.4754098360656" y="569.5573770491803"/>
      <point x="289.4754098360656" y="532.7213114754098" type="curve" smooth="yes"/>
      <point x="289.4754098360656" y="486.59016393442624"/>
      <point x="348.4918032786885" y="432.655737704918"/>
    </contour>
    <contour>
      <point x="151.24590163934425" y="432.655737704918" type="curve" smooth="yes"/>
      <point x="204.91803278688525" y="432.655737704918"/>
      <point x="258.1967213114754" y="441.54098360655735"/>
      <point x="258.1967213114754" y="480.95081967213116" type="curve" smooth="yes"/>
      <point x="258.1967213114754" y="510.44262295081967"/>
      <point x="251.7704918032787" y="526.9016393442623"/>
      <point x="217.24590163934425" y="526.9016393442623" type="curve" smooth="yes"/>
      <point x="202.0655737704918" y="526.9016393442623"/>
      <point x="179.88524590163934" y="522.1967213114754"/>
      <point x="166.7704918032787" y="522.1967213114754" type="curve" smooth="yes"/>
      <point x="135.19672131147541" y="522.1967213114754"/>
      <point x="117.85245901639344" y="530.5409836065573"/>
      <point x="105.67213114754098" y="539.8360655737705" type="curve"/>
      <point x="117.55737704918033" y="561.2950819672132"/>
      <point x="175.34426229508196" y="594.1311475409836"/>
      <point x="227.81967213114754" y="625.688524590164" type="curve" smooth="yes"/>
      <point x="241.8360655737705" y="634.8196721311475"/>
      <point x="254.59016393442624" y="645.4098360655738"/>
      <point x="254.59016393442624" y="663.7540983606557" type="curve" smooth="yes"/>
      <point x="254.59016393442624" y="690.1147540983607"/>
      <point x="236.40983606557376" y="702.2950819672132"/>
      <point x="211.9344262295082" y="702.2950819672132" type="curve" smooth="yes"/>
      <point x="179.52459016393442" y="702.2950819672132"/>
      <point x="136.0655737704918" y="680.655737704918"/>
      <point x="88.60655737704919" y="642.4918032786885" type="curve" smooth="yes"/>
      <point x="19.770491803278688" y="588.311475409836"/>
      <point x="0.0" y="569.5573770491803"/>
      <point x="0.0" y="532.7213114754098" type="curve" smooth="yes"/>
      <point x="0.0" y="486.59016393442624"/>
      <point x="59.01639344262295" y="432.655737704918"/>
    </contour>
  </outline>
</glyph>
<glyph name="uni07AE" format="2">
  <unicode hex="07AE"/>
  <outline>
    <contour>
      <point x="58.36065573770492" y="432.655737704918" type="curve" smooth="yes"/>
      <point x="92.90163934426229" y="432.655737704918"/>
      <point x="138.9672131147541" y="451.95081967213116"/>
      <point x="205.37704918032787" y="493.3606557377049" type="curve"/>
      <point x="227.14754098360655" y="460.4754098360656"/>
      <point x="276.21311475409834" y="432.655737704918"/>
      <point x="342.73770491803276" y="432.655737704918" type="curve" smooth="yes"/>
      <point x="397.11475409836066" y="432.655737704918"/>
      <point x="450.0983606557377" y="441.54098360655735"/>
      <point x="450.0983606557377" y="480.95081967213116" type="curve" smooth="yes"/>
      <point x="450.0983606557377" y="510.44262295081967"/>
      <point x="443.26229508196724" y="526.9016393442623"/>
      <point x="408.44262295081967" y="526.9016393442623" type="curve" smooth="yes"/>
      <point x="393.55737704918033" y="526.9016393442623"/>
      <point x="371.08196721311475" y="522.1967213114754"/>
      <point x="358.9672131147541" y="522.1967213114754" type="curve" smooth="yes"/>
      <point x="326.39344262295083" y="522.1967213114754"/>
      <point x="309.75409836065575" y="530.5409836065573"/>
      <point x="296.8688524590164" y="539.8360655737705" type="curve"/>
      <point x="309.45901639344265" y="561.2950819672132"/>
      <point x="366.54098360655735" y="594.1311475409836"/>
      <point x="419.0163934426229" y="625.688524590164" type="curve" smooth="yes"/>
      <point x="434.0327868852459" y="635.8196721311475"/>
      <point x="446.08196721311475" y="645.4098360655738"/>
      <point x="446.08196721311475" y="663.7540983606557" type="curve" smooth="yes"/>
      <point x="446.08196721311475" y="690.1147540983607"/>
      <point x="428.60655737704917" y="702.2950819672132"/>
      <point x="404.1311475409836" y="702.2950819672132" type="curve" smooth="yes"/>
      <point x="372.8360655737705" y="702.2950819672132"/>
      <point x="332.78688524590166" y="683.7704918032787"/>
      <point x="288.08196721311475" y="649.360655737705" type="curve"/>
      <point x="259.672131147541" y="675.5409836065573"/>
      <point x="197.08196721311475" y="690.311475409836"/>
      <point x="138.65573770491804" y="690.311475409836" type="curve" smooth="yes"/>
      <point x="81.93442622950819" y="690.311475409836"/>
      <point x="39.40983606557377" y="677.9508196721312"/>
      <point x="39.40983606557377" y="642.360655737705" type="curve" smooth="yes"/>
      <point x="39.40983606557377" y="615.8196721311475"/>
      <point x="52.65573770491803" y="602.4098360655738"/>
      <point x="95.65573770491804" y="602.4098360655738" type="curve" smooth="yes"/>
      <point x="112.36065573770492" y="602.4098360655738"/>
      <point x="127.65573770491804" y="603.4098360655738"/>
      <point x="146.65573770491804" y="603.4098360655738" type="curve" smooth="yes"/>
      <point x="164.52459016393442" y="603.4098360655738"/>
      <point x="192.327868852459" y="598.1803278688525"/>
      <point x="206.9344262295082" y="592.1803278688525" type="curve"/>
      <point x="177.5737704918033" y="565.2459016393443"/>
      <point x="118.18032786885246" y="544.4098360655738"/>
      <point x="50.049180327868854" y="522.1311475409836" type="curve" smooth="yes"/>
      <point x="16.40983606557377" y="511.0163934426229"/>
      <point x="1.4098360655737707" y="501.60655737704917"/>
      <point x="1.4098360655737707" y="473.9016393442623" type="curve" smooth="yes"/>
      <point x="1.4098360655737707" y="446.1311475409836"/>
      <point x="20.59016393442623" y="432.655737704918"/>
    </contour>
  </outline>
</glyph>
<glyph name="uni07AF" format="2">
  <unicode hex="07AF"/>
  <outline>
    <contour>
      <point x="141.24590163934425" y="432.655737704918" type="curve" smooth="yes"/>
      <point x="244.45901639344262" y="432.655737704918"/>
      <point x="303.5409836065574" y="479.40983606557376"/>
      <point x="303.5409836065574" y="518.9508196721312" type="curve" smooth="yes"/>
      <point x="303.5409836065574" y="539.016393442623"/>
      <point x="291.0655737704918" y="550.9016393442623"/>
      <point x="270.59016393442624" y="550.9016393442623" type="curve" smooth="yes"/>
      <point x="242.29508196721312" y="550.9016393442623"/>
      <point x="207.21311475409837" y="518.672131147541"/>
      <point x="145.24590163934425" y="518.672131147541" type="curve" smooth="yes"/>
      <point x="118.65573770491804" y="518.672131147541"/>
      <point x="95.90163934426229" y="530.5573770491803"/>
      <point x="95.90163934426229" y="570.016393442623" type="curve" smooth="yes"/>
      <point x="95.90163934426229" y="631.7213114754098"/>
      <point x="234.0983606557377" y="764.0983606557377"/>
      <point x="324.04918032786884" y="764.0983606557377" type="curve" smooth="yes"/>
      <point x="342.0983606557377" y="764.0983606557377"/>
      <point x="345.6885245901639" y="752.4590163934427"/>
      <point x="345.6885245901639" y="745.7540983606557" type="curve" smooth="yes"/>
      <point x="345.6885245901639" y="726.2295081967213"/>
      <point x="327.04918032786884" y="711.0"/>
      <point x="313.45901639344265" y="700.2950819672132" type="curve" smooth="yes"/>
      <point x="287.88524590163934" y="680.4262295081967"/>
      <point x="279.5245901639344" y="669.9508196721312"/>
      <point x="279.5245901639344" y="648.9508196721312" type="curve" smooth="yes"/>
      <point x="279.5245901639344" y="625.1803278688525"/>
      <point x="299.7049180327869" y="605.0"/>
      <point x="322.7704918032787" y="605.0" type="curve" smooth="yes"/>
      <point x="336.5409836065574" y="605.0"/>
      <point x="357.4754098360656" y="617.4098360655738"/>
      <point x="376.26229508196724" y="635.1967213114754" type="curve" smooth="yes"/>
      <point x="409.8524590163934" y="665.672131147541"/>
      <point x="442.7704918032787" y="701.7868852459017"/>
      <point x="442.7704918032787" y="766.7540983606557" type="curve" smooth="yes"/>
      <point x="442.7704918032787" y="819.5245901639345"/>
      <point x="397.7049180327869" y="851.0"/>
      <point x="329.3606557377049" y="851.0" type="curve" smooth="yes"/>
      <point x="193.8688524590164" y="851.0"/>
      <point x="0.0" y="699.4098360655738"/>
      <point x="0.0" y="554.016393442623" type="curve" smooth="yes"/>
      <point x="0.0" y="467.37704918032784"/>
      <point x="70.45901639344262" y="432.655737704918"/>
    </contour>
  </outline>
</glyph>
<glyph name="uni07B0" format="2">
  <unicode hex="07B0"/>
  <outline>
    <contour>
      <point x="126.95081967213115" y="432.655737704918" type="curve" smooth="yes"/>
      <point x="225.95081967213116" y="432.655737704918"/>
      <point x="317.1311475409836" y="517.0655737704918"/>
      <point x="317.1311475409836" y="623.8852459016393" type="curve" smooth="yes"/>
      <point x="317.1311475409836" y="688.2459016393443"/>
      <point x="283.0655737704918" y="726.0655737704918"/>
      <point x="203.36065573770492" y="726.0655737704918" type="curve" smooth="yes"/>
      <point x="93.1311475409836" y="726.0655737704918"/>
      <point x="0.0" y="640.7868852459017"/>
      <point x="0.0" y="551.8360655737705" type="curve" smooth="yes"/>
      <point x="0.0" y="482.655737704918"/>
      <point x="44.22950819672131" y="432.655737704918"/>
    </contour>
    <contour>
      <point x="135.60655737704917" y="515.7868852459017" type="curve" smooth="yes"/>
      <point x="99.85245901639344" y="515.7868852459017"/>
      <point x="92.42622950819671" y="534.655737704918"/>
      <point x="92.42622950819671" y="556.8360655737705" type="curve" smooth="yes"/>
      <point x="92.42622950819671" y="603.9508196721312"/>
      <point x="127.19672131147541" y="645.1147540983607"/>
      <point x="191.24590163934425" y="645.1147540983607" type="curve" smooth="yes"/>
      <point x="212.24590163934425" y="645.1147540983607"/>
      <point x="226.88524590163934" y="626.2950819672132"/>
      <point x="226.88524590163934" y="606.7704918032787" type="curve" smooth="yes"/>
      <point x="226.88524590163934" y="555.8360655737705"/>
      <point x="182.77049180327867" y="515.7868852459017"/>
    </contour>
  </outline>
</glyph>
<glyph name="uni07B1" format="2">
  <advance width="490.11475409836066"/>
  <unicode hex="07B1"/>
  <outline>
    <contour>
      <point x="226.01639344262296" y="-176.0" type="curve" smooth="yes"/>
      <point x="282.44262295081967" y="-176.0"/>
      <point x="333.6885245901639" y="-164.9344262295082"/>
      <point x="371.9836065573771" y="-142.75409836065575" type="curve" smooth="yes"/>
      <point x="407.327868852459" y="-122.34426229508196"/>
      <point x="426.73770491803276" y="-101.04918032786885"/>
      <point x="426.73770491803276" y="-77.34426229508196" type="curve" smooth="yes"/>
      <point x="426.73770491803276" y="-51.57377049180329"/>
      <point x="410.55737704918033" y="-37.393442622950815"/>
      <point x="385.60655737704917" y="-37.393442622950815" type="curve" smooth="yes"/>
      <point x="375.8360655737705" y="-37.393442622950815"/>
      <point x="363.3606557377049" y="-41.278688524590166"/>
      <point x="346.95081967213116" y="-52.278688524590166" type="curve" smooth="yes"/>
      <point x="304.1475409836066" y="-80.0327868852459"/>
      <point x="273.9672131147541" y="-89.98360655737704"/>
      <point x="231.01639344262296" y="-89.98360655737704" type="curve" smooth="yes"/>
      <point x="161.672131147541" y="-89.98360655737704"/>
      <point x="125.85245901639344" y="-77.98360655737704"/>
      <point x="125.85245901639344" y="-39.34426229508197" type="curve" smooth="yes"/>
      <point x="125.85245901639344" y="-8.475409836065573"/>
      <point x="175.77049180327867" y="20.229508196721312"/>
      <point x="266.44262295081967" y="69.32786885245902" type="curve" smooth="yes"/>
      <point x="367.27868852459017" y="123.54098360655738"/>
      <point x="450.9672131147541" y="190.47540983606558"/>
      <point x="450.9672131147541" y="276.88524590163934" type="curve" smooth="yes"/>
      <point x="450.9672131147541" y="351.40983606557376"/>
      <point x="380.44262295081967" y="395.1311475409836"/>
      <point x="302.5409836065574" y="395.1311475409836" type="curve" smooth="yes"/>
      <point x="211.45901639344262" y="395.1311475409836"/>
      <point x="115.52459016393442" y="335.7049180327869"/>
      <point x="115.52459016393442" y="253.88524590163934" type="curve" smooth="yes"/>
      <point x="115.52459016393442" y="187.4262295081967"/>
      <point x="165.0327868852459" y="154.7704918032787"/>
      <point x="232.98360655737704" y="139.40983606557376" type="curve"/>
      <point x="205.0983606557377" y="122.11475409836065"/>
      <point x="174.68852459016392" y="105.81967213114754"/>
      <point x="146.0983606557377" y="88.52459016393442" type="curve" smooth="yes"/>
      <point x="78.73770491803279" y="49.049180327868854"/>
      <point x="29.295081967213115" y="9.819672131147541"/>
      <point x="29.295081967213115" y="-44.34426229508197" type="curve" smooth="yes"/>
      <point x="29.295081967213115" y="-134.68852459016392"/>
      <point x="122.8688524590164" y="-176.0"/>
    </contour>
    <contour>
      <point x="326.4754098360656" y="209.54098360655738" type="curve"/>
      <point x="272.04918032786884" y="211.54098360655738"/>
      <point x="216.08196721311475" y="219.60655737704917"/>
      <point x="216.08196721311475" y="252.18032786885246" type="curve" smooth="yes"/>
      <point x="216.08196721311475" y="286.0"/>
      <point x="264.1967213114754" y="308.5245901639344"/>
      <point x="298.5409836065574" y="308.5245901639344" type="curve" smooth="yes"/>
      <point x="333.2950819672131" y="308.5245901639344"/>
      <point x="350.11475409836066" y="290.7049180327869"/>
      <point x="350.11475409836066" y="272.1803278688525" type="curve" smooth="yes"/>
      <point x="350.11475409836066" y="244.0655737704918"/>
      <point x="343.2950819672131" y="226.65573770491804"/>
    </contour>
  </outline>
</glyph>
<glyph name="quoteleft" format="2">
  <advance width="347.0163934426229"/>
  <unicode hex="2018"/>
  <outline>
    <contour>
      <point x="122.47540983606558" y="507.8196721311475" type="curve" smooth="yes"/>
      <point x="168.65573770491804" y="507.8196721311475"/>
      <point x="212.01639344262296" y="546.7540983606557"/>
      <point x="212.01639344262296" y="591.7049180327868" type="curve" smooth="yes"/>
      <point x="212.01639344262296" y="623.7049180327868"/>
      <point x="190.60655737704917" y="649.2950819672132"/>
      <point x="157.19672131147541" y="653.0655737704918" type="curve"/>
      <point x="169.1311475409836" y="679.4590163934427"/>
      <point x="188.29508196721312" y="699.2131147540983"/>
      <point x="216.19672131147541" y="727.0" type="curve" smooth="yes"/>
      <point x="224.60655737704917" y="735.4098360655738"/>
      <point x="229.72131147540983" y="741.5901639344262"/>
      <point x="229.72131147540983" y="752.0" type="curve" smooth="yes"/>
      <point x="229.72131147540983" y="759.5409836065573"/>
      <point x="224.0655737704918" y="776.9508196721312"/>
      <point x="202.0655737704918" y="776.9508196721312" type="curve" smooth="yes"/>
      <point x="185.36065573770492" y="776.9508196721312"/>
      <point x="170.0" y="763.2459016393443"/>
      <point x="154.45901639344262" y="748.8196721311475" type="curve" smooth="yes"/>
      <point x="120.1639344262295" y="718.4590163934427"/>
      <point x="54.81967213114754" y="632.7049180327868"/>
      <point x="54.81967213114754" y="578.4098360655738" type="curve" smooth="yes"/>
      <point x="54.81967213114754" y="531.5245901639344"/>
      <point x="84.11475409836066" y="507.8196721311475"/>
    </contour>
  </outline>
</glyph>
